Inter-Italic.glyphspackage
{
glyphname = exclam;
layers = (
{
anchors = (
{
name = _center;
pos = (334.792,745);
}
);
layerId = "11F4534A-B963-4AB5-820F-DAF9A20CD933";
shapes = (
{
closed = 1;
nodes = (
(376,480,l),
(555,1490,l),
(361,1490,l),
(206,480,l)
);
},
{
closed = 1;
nodes = (
(287,-12,o),
(349,41,o),
(360,108,cs),
(373,185,o),
(320,250,o),
(242,250,cs),
(176,250,o),
(113,197,o),
(102,130,cs),
(89,53,o),
(143,-12,o),
(220,-12,cs)
);
}
);
width = 608;
},
{
anchors = (
{
name = _center;
pos = (418.792,745);
}
);
layerId = "D0EC06BF-13F9-4C88-A6F5-B8203AF6C77E";
shapes = (
{
closed = 1;
nodes = (
(555,466,l),
(754,1490,l),
(330,1490,l),
(191,466,l)
);
},
{
closed = 1;
nodes = (
(432,-24,o),
(516,39,o),
(534,149,cs),
(557,285,o),
(477,374,o),
(337,374,cs),
(217,374,o),
(133,311,o),
(115,201,cs),
(92,65,o),
(172,-24,o),
(312,-24,cs)
);
}
);
width = 776;
},
{
anchors = (
{
name = _center;
pos = (323.792,745);
}
);
layerId = "200BE2C5-40F6-4CF4-AF4F-A33C0CC0964F";
shapes = (
{
closed = 1;
nodes = (
(297,442,l),
(470,1490,l),
(424,1490,l),
(251,442,l)
);
},
{
closed = 1;
nodes = (
(230,-9,o),
(256,13,o),
(260,41,cs),
(265,71,o),
(244,97,o),
(213,97,cs),
(186,97,o),
(160,75,o),
(155,47,cs),
(150,17,o),
(172,-9,o),
(202,-9,cs)
);
}
);
width = 586;
},
{
anchors = (
{
name = _center;
pos = (299.924,745);
}
);
guides = (
{
angle = 80.6;
pos = (264,1536);
}
);
layerId = m008;
name = ital_gen;
shapes = (
{
closed = 1;
nodes = (
(328.107,432,l),
(516.258,1490,l),
(330.258,1490,l),
(168.107,432,l)
);
},
{
closed = 1;
nodes = (
(238.604,-12,o),
(299.212,40,o),
(309.807,104,cs),
(320.402,168,o),
(277.011,220,o),
(213.011,220,cs),
(149.011,220,o),
(88.402,168,o),
(77.807,104,cs),
(67.212,40,o),
(110.604,-12,o),
(174.604,-12,cs)
);
}
);
width = 528;
},
{
anchors = (
{
name = _center;
pos = (403.924,745);
}
);
guides = (
{
orientation = center;
angle = 80.6;
pos = (-1658,516);
}
);
layerId = m010;
name = ital_gen;
shapes = (
{
closed = 1;
nodes = (
(536.702,496,l),
(739.258,1490,l),
(315.258,1490,l),
(188.702,496,l)
);
},
{
closed = 1;
nodes = (
(396.445,-19,o),
(500.179,70,o),
(519.879,189,cs),
(539.579,308,o),
(465.313,397,o),
(346.313,397,cs),
(227.313,397,o),
(123.579,308,o),
(103.879,189,cs),
(84.179,70,o),
(158.445,-19,o),
(277.445,-19,cs)
);
}
);
width = 736;
},
{
anchors = (
{
name = _center;
pos = (275.924,745);
}
);
guides = (
{
angle = 80.6;
pos = (240,1633);
}
);
layerId = m012;
name = ital_gen;
shapes = (
{
closed = 1;
nodes = (
(248.763,442,l),
(422.258,1490,l),
(376.258,1490,l),
(202.763,442,l)
);
},
{
closed = 1;
nodes = (
(178.266,-8,o),
(202.742,13,o),
(207.212,40,cs),
(211.682,67,o),
(194.158,88,o),
(167.158,88,cs),
(140.158,88,o),
(115.682,67,o),
(111.212,40,cs),
(106.742,13,o),
(124.266,-8,o),
(151.266,-8,cs)
);
}
);
width = 480;
}
);
unicode = 33;
userData = {
"interface.width-adjustments" = (
-16
);
};
}
{
glyphname = dollar;
kernLeft = S;
kernRight = S;
layers = (
{
layerId = "11F4534A-B963-4AB5-820F-DAF9A20CD933";
name = ital_gen;
shapes = (
{
closed = 1;
nodes = (
(596,-186,l),
(904,1676,l),
(786,1676,l),
(478,-186,l)
);
},
{
ref = S;
}
);
width = 1306;
},
{
guides = (
{
pos = (0,2280);
},
{
pos = (0,764);
}
);
layerId = "D0EC06BF-13F9-4C88-A6F5-B8203AF6C77E";
name = ital_gen;
shapes = (
{
closed = 1;
nodes = (
(636,-186,l),
(944,1676,l),
(824,1676,l),
(516,-186,l)
);
},
{
ref = S;
}
);
width = 1364;
},
{
layerId = "200BE2C5-40F6-4CF4-AF4F-A33C0CC0964F";
name = ital_gen;
shapes = (
{
closed = 1;
nodes = (
(532,-186,l),
(840,1676,l),
(794,1676,l),
(486,-186,l)
);
},
{
alignment = -1;
ref = S;
}
);
width = 1254;
},
{
layerId = m008;
name = ital_gen;
shapes = (
{
closed = 1;
nodes = (
(564,-186,l),
(872,1676,l),
(754,1676,l),
(446,-186,l)
);
},
{
ref = S;
}
);
width = 1258;
},
{
guides = (
{
pos = (-96,2280);
}
);
layerId = m010;
name = ital_gen;
shapes = (
{
closed = 1;
nodes = (
(623,-186,l),
(979,1676,l),
(859,1676,l),
(503,-186,l)
);
},
{
ref = S;
}
);
width = 1403;
},
{
layerId = m012;
name = ital_gen;
shapes = (
{
closed = 1;
nodes = (
(476,-186,l),
(784,1676,l),
(738,1676,l),
(430,-186,l)
);
},
{
alignment = -1;
ref = S;
}
);
width = 1127;
}
);
metricLeft = S;
metricRight = S;
unicode = 36;
userData = {
"interface.width-adjustments" = (
-16
);
};
}
{
glyphname = percent;
layers = (
{
layerId = "11F4534A-B963-4AB5-820F-DAF9A20CD933";
shapes = (
{
closed = 1;
nodes = (
(837,117,o),
(919,-20,o),
(1108,-20,cs),
(1295,-20,o),
(1416,117,o),
(1446,280,cs),
(1460,358,ls),
(1490,520,o),
(1411,657,o),
(1222,658,cs),
(1036,657,o),
(911,520,o),
(882,358,cs),
(866,280,ls)
);
},
{
closed = 1;
nodes = (
(1047,448,o),
(1100,532,o),
(1202,532,cs),
(1306,532,o),
(1329,448,o),
(1312,358,cs),
(1298,280,ls),
(1281,189,o),
(1231,105,o),
(1128,104,cs),
(1024,105,o),
(999,189,o),
(1016,280,cs),
(1030,358,ls)
);
},
{
closed = 1;
nodes = (
(244,968,o),
(320,832,o),
(510,832,cs),
(695,832,o),
(823,968,o),
(846,1132,cs),
(858,1210,ls),
(882,1373,o),
(809,1510,o),
(620,1510,cs),
(433,1510,o),
(303,1373,o),
(280,1210,cs),
(268,1132,ls)
);
},
{
closed = 1;
nodes = (
(441,1300,o),
(497,1385,o),
(600,1384,cs),
(704,1385,o),
(723,1300,o),
(710,1210,cs),
(698,1132,ls),
(684,1041,o),
(631,957,o),
(530,958,cs),
(425,957,o),
(402,1041,o),
(416,1132,cs),
(428,1210,ls)
);
},
{
pos = (542,0);
ref = fraction;
}
);
width = 1664;
},
{
layerId = "D0EC06BF-13F9-4C88-A6F5-B8203AF6C77E";
shapes = (
{
closed = 1;
nodes = (
(870,91,o),
(970,-73,o),
(1198,-72,cs),
(1427,-73,o),
(1577,91,o),
(1612,280,cs),
(1626,358,ls),
(1662,549,o),
(1561,710,o),
(1330,710,cs),
(1104,710,o),
(954,546,o),
(920,358,cs),
(904,280,ls)
);
},
{
closed = 1;
nodes = (
(1183,416,o),
(1215,483,o),
(1292,482,cs),
(1375,483,o),
(1381,416,o),
(1370,358,cs),
(1356,280,ls),
(1345,222,o),
(1316,157,o),
(1236,158,cs),
(1159,157,o),
(1148,225,o),
(1158,280,cs),
(1172,358,ls)
);
},
{
closed = 1;
nodes = (
(239,942,o),
(333,783,o),
(562,782,cs),
(790,783,o),
(946,940,o),
(974,1132,cs),
(986,1210,ls),
(1015,1403,o),
(921,1562,o),
(690,1562,cs),
(467,1562,o),
(308,1403,o),
(280,1210,cs),
(268,1132,ls)
);
},
{
closed = 1;
nodes = (
(543,1265,o),
(575,1335,o),
(652,1336,cs),
(735,1335,o),
(739,1268,o),
(730,1210,cs),
(718,1132,ls),
(710,1073,o),
(679,1009,o),
(600,1010,cs),
(525,1009,o),
(515,1073,o),
(524,1132,cs),
(536,1210,ls)
);
},
{
pos = (636,0);
ref = fraction;
}
);
width = 1824;
},
{
layerId = "200BE2C5-40F6-4CF4-AF4F-A33C0CC0964F";
shapes = (
{
closed = 1;
nodes = (
(855,96,o),
(943,-20,o),
(1080,-20,cs),
(1219,-20,o),
(1344,96,o),
(1374,270,cs),
(1378,318,ls),
(1408,492,o),
(1321,608,o),
(1184,608,cs),
(1044,608,o),
(919,492,o),
(890,318,cs),
(884,270,ls)
);
},
{
closed = 1;
nodes = (
(963,465,o),
(1065,561,o),
(1176,562,cs),
(1286,561,o),
(1359,465,o),
(1332,318,cs),
(1326,270,ls),
(1300,122,o),
(1199,26,o),
(1088,26,cs),
(975,26,o),
(905,122,o),
(930,270,cs),
(936,318,ls)
);
},
{
closed = 1;
nodes = (
(236,998,o),
(323,881,o),
(460,882,cs),
(599,881,o),
(724,998,o),
(754,1172,cs),
(762,1218,ls),
(788,1393,o),
(704,1510,o),
(564,1510,cs),
(428,1510,o),
(300,1393,o),
(274,1218,cs),
(264,1172,ls)
);
},
{
closed = 1;
nodes = (
(343,1367,o),
(445,1463,o),
(556,1464,cs),
(669,1463,o),
(739,1367,o),
(716,1218,cs),
(706,1172,ls),
(681,1024,o),
(579,928,o),
(468,928,cs),
(358,928,o),
(285,1024,o),
(312,1172,cs),
(320,1218,ls)
);
},
{
alignment = -1;
pos = (512,0);
ref = fraction;
}
);
width = 1582;
},
{
layerId = m008;
name = ital_gen;
shapes = (
{
closed = 1;
nodes = (
(812.794,116,o),
(892.279,-20,o),
(1081.279,-20,cs),
(1268.279,-20,o),
(1391.794,116,o),
(1418.944,280,cs),
(1431.857,358,ls),
(1458.841,521,o),
(1382.356,657,o),
(1193.521,658,cs),
(1007.356,657,o),
(879.841,521,o),
(853.857,358,cs),
(840.944,280,ls)
);
},
{
closed = 1;
nodes = (
(1016.756,448,o),
(1071.662,532,o),
(1172.662,532,cs),
(1277.662,532,o),
(1298.756,448,o),
(1283.857,358,cs),
(1270.944,280,ls),
(1255.879,189,o),
(1203.973,105,o),
(1101.807,104,cs),
(997.973,105,o),
(973.879,189,o),
(988.944,280,cs),
(1001.857,358,ls)
);
},
{
closed = 1;
nodes = (
(213.007,969,o),
(291.327,832,o),
(480.327,832,cs),
(667.327,832,o),
(792.007,969,o),
(817.992,1132,cs),
(830.904,1210,ls),
(858.889,1373,o),
(782.569,1510,o),
(592.569,1510,cs),
(406.569,1510,o),
(279.889,1373,o),
(252.904,1210,cs),
(239.992,1132,ls)
);
},
{
closed = 1;
nodes = (
(415.804,1300,o),
(470.875,1385,o),
(571.71,1384,cs),
(676.875,1385,o),
(697.804,1300,o),
(682.904,1210,cs),
(669.992,1132,ls),
(654.927,1041,o),
(603.02,957,o),
(501.186,958,cs),
(397.02,957,o),
(372.927,1041,o),
(387.992,1132,cs),
(400.904,1210,ls)
);
},
{
pos = (542,0);
ref = fraction;
}
);
width = 1600;
},
{
layerId = m010;
name = ital_gen;
shapes = (
{
closed = 1;
nodes = (
(862.49,90,o),
(959.505,-73,o),
(1188.671,-72,cs),
(1416.505,-73,o),
(1569.49,90,o),
(1600.944,280,cs),
(1613.857,358,ls),
(1645.642,550,o),
(1549.13,710,o),
(1318.13,710,cs),
(1092.13,710,o),
(938.145,547,o),
(907.857,358,cs),
(894.944,280,ls)
);
},
{
closed = 1;
nodes = (
(1169.459,416,o),
(1202.55,483,o),
(1280.385,482,cs),
(1362.55,483,o),
(1367.459,416,o),
(1357.857,358,cs),
(1344.944,280,ls),
(1335.176,221,o),
(1305.581,157,o),
(1226.747,158,cs),
(1148.581,157,o),
(1137.673,224,o),
(1146.944,280,cs),
(1159.857,358,ls)
);
},
{
closed = 1;
nodes = (
(224.703,943,o),
(321.215,783,o),
(550.049,782,cs),
(778.215,783,o),
(931.206,940,o),
(961.992,1132,cs),
(974.904,1210,ls),
(1007.69,1402,o),
(910.178,1562,o),
(679.178,1562,cs),
(456.178,1562,o),
(300.69,1402,o),
(268.904,1210,cs),
(255.992,1132,ls)
);
},
{
closed = 1;
nodes = (
(534.01,1265,o),
(564.598,1335,o),
(641.764,1336,cs),
(724.598,1335,o),
(729.506,1268,o),
(718.904,1210,cs),
(705.992,1132,ls),
(697.224,1073,o),
(667.629,1009,o),
(587.795,1010,cs),
(512.629,1009,o),
(502.224,1073,o),
(511.992,1132,cs),
(524.904,1210,ls)
);
},
{
pos = (632,0);
ref = fraction;
}
);
width = 1792;
},
{
layerId = m012;
name = ital_gen;
shapes = (
{
closed = 1;
nodes = (
(795.648,97,o),
(882.279,-20,o),
(1021.279,-20,cs),
(1158.279,-20,o),
(1284.648,97,o),
(1313.288,270,cs),
(1321.235,318,ls),
(1349.875,491,o),
(1262.244,608,o),
(1125.244,608,cs),
(986.244,608,o),
(860.875,491,o),
(831.235,318,cs),
(823.288,270,ls)
);
},
{
closed = 1;
nodes = (
(902.57,465,o),
(1005.463,561,o),
(1117.629,562,cs),
(1228.463,561,o),
(1298.57,465,o),
(1275.235,318,cs),
(1267.288,270,ls),
(1241.787,122,o),
(1139.894,26,o),
(1028.894,26,cs),
(916.894,26,o),
(845.787,122,o),
(871.288,270,cs),
(879.235,318,ls)
);
},
{
closed = 1;
nodes = (
(176.974,999,o),
(263.439,881,o),
(402.604,882,cs),
(539.439,881,o),
(665.974,999,o),
(694.614,1172,cs),
(702.229,1218,ls),
(731.2,1393,o),
(643.569,1510,o),
(506.569,1510,cs),
(367.569,1510,o),
(242.2,1393,o),
(212.229,1218,cs),
(204.614,1172,ls)
);
},
{
closed = 1;
nodes = (
(283.896,1367,o),
(386.788,1463,o),
(498.954,1464,cs),
(609.788,1463,o),
(679.896,1367,o),
(656.229,1218,cs),
(648.614,1172,ls),
(623.112,1024,o),
(521.22,928,o),
(410.22,928,cs),
(298.22,928,o),
(227.112,1024,o),
(252.614,1172,cs),
(260.229,1218,ls)
);
},
{
alignment = -1;
pos = (512,0);
ref = fraction;
}
);
width = 1454;
}
);
unicode = 37;
userData = {
"interface.width-adjustments" = (
-16
);
};
}
{
glyphname = ampersand;
layers = (
{
layerId = "11F4534A-B963-4AB5-820F-DAF9A20CD933";
shapes = (
{
closed = 1;
nodes = (
(625,-20,o),
(794,32,o),
(908,140,c),
(922,154,o),
(940,169,o),
(954,184,c),
(1015,241,o),
(1155,355,o),
(1204,652,c),
(1038,652,l),
(986,332,o),
(727,131,o),
(504,130,cs),
(326,131,o),
(230,256,o),
(254,396,c),
(259,436,o),
(315,540,o),
(466,640,cs),
(798,862,ls),
(933,952,o),
(1027,1050,o),
(1050,1192,c),
(1079,1359,o),
(966,1504,o),
(742,1504,cs),
(524,1504,o),
(358,1367,o),
(326,1166,cs),
(298,992,o),
(401,870,o),
(526,680,cs),
(978,0,l),
(1184,0,l),
(640,834,ls),
(564,953,o),
(480,1059,o),
(498,1164,cs),
(513,1257,o),
(608,1356,o),
(722,1356,cs),
(829,1356,o),
(887,1268,o),
(876,1192,c),
(858,1091,o),
(794,1036,o),
(702,980,c),
(460,820,l),
(256,695,o),
(108,582,o),
(78,396,c),
(38,154,o),
(189,-20,o),
(482,-20,c)
);
}
);
width = 1310;
},
{
layerId = "D0EC06BF-13F9-4C88-A6F5-B8203AF6C77E";
shapes = (
{
closed = 1;
nodes = (
(607,-23,o),
(746,6,o),
(877,82,c),
(920,102,o),
(961,119,o),
(1005,140,c),
(1223,276,o),
(1340,518,o),
(1379,776,c),
(1063,776,l),
(1017,495,o),
(761,291,o),
(563,290,cs),
(464,291,o),
(412,340,o),
(423,424,c),
(435,492,o),
(482,532,o),
(533,564,cs),
(879,782,ls),
(1023,873,o),
(1113,995,o),
(1135,1134,c),
(1171,1341,o),
(1043,1513,o),
(793,1512,cs),
(531,1513,o),
(327,1327,o),
(289,1100,cs),
(254,896,o),
(369,735,o),
(443,640,cs),
(941,0,l),
(1341,0,l),
(751,794,l),
(668,922,o),
(601,1007,o),
(611,1094,cs),
(620,1159,o),
(674,1196,o),
(739,1196,cs),
(816,1196,o),
(842,1152,o),
(833,1106,cs),
(826,1071,o),
(799,1020,o),
(725,978,cs),
(353,768,l),
(182,663,o),
(63,564,o),
(35,396,c),
(-1,166,o),
(162,-23,o),
(481,-24,c)
);
}
);
width = 1423;
},
{
associatedMasterId = "D0EC06BF-13F9-4C88-A6F5-B8203AF6C77E";
layerId = "A024DAEF-5CF1-4DB6-A2CD-0618C3F5EE1E";
name = "Sep 16 18, 17:30";
shapes = (
{
closed = 1;
nodes = (
(207,663,o),
(88,567,o),
(62,404,c),
(21,154,o),
(181,-20,o),
(488,-20,c),
(737,-20,o),
(850,49,o),
(980,120,cs),
(990,125,o),
(1025,137,o),
(1030,140,cs),
(1249,276,o),
(1365,518,o),
(1406,776,c),
(1088,776,l),
(1042,495,o),
(786,291,o),
(588,290,cs),
(492,291,o),
(437,340,o),
(450,434,c),
(463,509,o),
(478,529,o),
(510,562,c),
(904,808,ls),
(1033,887,o),
(1138,1007,o),
(1160,1134,c),
(1196,1341,o),
(1068,1513,o),
(818,1512,cs),
(556,1513,o),
(353,1327,o),
(314,1100,cs),
(280,896,o),
(396,736,o),
(468,640,cs),
(936,0,l),
(1368,0,l),
(776,794,l),
(693,922,o),
(623,1001,o),
(638,1094,cs),
(649,1158,o),
(693,1196,o),
(766,1196,cs),
(836,1196,o),
(865,1143,o),
(858,1100,c),
(853,1076,o),
(847,1033,o),
(750,978,cs),
(378,768,l)
);
}
);
width = 1506;
},
{
layerId = "200BE2C5-40F6-4CF4-AF4F-A33C0CC0964F";
shapes = (
{
closed = 1;
nodes = (
(600,-20,o),
(756,47,o),
(877,148,cs),
(891,161,o),
(904,176,o),
(917,192,cs),
(993,285,o),
(1070,410,o),
(1111,536,c),
(1065,542,l),
(965,241,o),
(742,33,o),
(451,26,cs),
(241,21,o),
(115,180,o),
(145,372,cs),
(165,492,o),
(240,578,o),
(443,712,cs),
(687,876,ls),
(860,991,o),
(935,1088,o),
(955,1208,cs),
(983,1382,o),
(880,1510,o),
(711,1510,cs),
(539,1510,o),
(369,1364,o),
(341,1196,cs),
(322,1082,o),
(382,996,o),
(489,824,cs),
(1005,0,l),
(1063,0,l),
(529,852,ls),
(422,1025,o),
(372,1100,o),
(387,1196,cs),
(410,1338,o),
(569,1463,o),
(713,1464,cs),
(857,1463,o),
(931,1356,o),
(909,1208,cs),
(891,1102,o),
(824,1020,o),
(663,914,cs),
(419,750,ls),
(205,607,o),
(123,506,o),
(99,372,cs),
(62,155,o),
(219,-20,o),
(455,-20,cs)
);
}
);
width = 1195;
},
{
layerId = m008;
name = ital_gen;
shapes = (
{
closed = 1;
nodes = (
(598.279,-20,o),
(766.888,32,o),
(881.767,140,c),
(895.085,154,o),
(906.568,169,o),
(921.051,184,c),
(981.494,235,o),
(1129.36,355,o),
(1178.528,652,c),
(1012.528,652,l),
(959.552,332,o),
(699.112,130,o),
(476.112,130,cs),
(298.112,130,o),
(202.971,256,o),
(226.148,396,cs),
(232.769,436,o),
(287.152,541,o),
(436.541,640,cs),
(771.293,862,ls),
(907.193,952,o),
(1000.417,1050,o),
(1023.924,1192,cs),
(1051.571,1359,o),
(938.576,1504,o),
(713.576,1504,cs),
(496.576,1504,o),
(330.896,1367,o),
(297.62,1166,cs),
(268.815,992,o),
(373.618,870,o),
(499.163,680,cs),
(950.59,0,l),
(1158.59,0,l),
(612.658,834,ls),
(536.193,952,o),
(453.906,1059,o),
(471.289,1164,cs),
(486.685,1257,o),
(582.075,1356,o),
(695.075,1356,cs),
(803.075,1356,o),
(860.506,1268,o),
(847.924,1192,cs),
(831.204,1091,o),
(765.761,1040,o),
(674.828,980,cs),
(432.34,820,ls),
(232.488,688,o),
(80.94,582,o),
(50.148,396,cs),
(10.085,154,o),
(162.279,-20,o),
(455.279,-20,c)
);
}
);
width = 1246;
},
{
layerId = m010;
name = ital_gen;
shapes = (
{
closed = 1;
nodes = (
(595.617,-24,o),
(734.418,5,o),
(866.165,82,c),
(910.476,102,o),
(951.29,119,o),
(995.767,140,c),
(1212.282,276,o),
(1328.345,518,o),
(1371.056,776,c),
(1053.056,776,l),
(1006.537,495,o),
(749.599,290,o),
(550.599,290,cs),
(453.599,290,o),
(398.877,340,o),
(412.783,424,cs),
(424.04,492,o),
(471.497,531,o),
(523.96,564,cs),
(868.049,782,ls),
(1011.114,873,o),
(1101.477,996,o),
(1124.323,1134,c),
(1158.591,1341,o),
(1032.9,1512,o),
(782.9,1512,cs),
(520.9,1512,o),
(316.274,1327,o),
(278.694,1100,cs),
(244.922,896,o),
(358.269,735,o),
(432.541,640,cs),
(930.59,0,l),
(1332.59,0,l),
(742.036,794,l),
(656.226,922,o),
(589.298,1007,o),
(603.701,1094,cs),
(613.965,1156,o),
(662.587,1196,o),
(730.587,1196,cs),
(803.587,1196,o),
(831.468,1153,o),
(823.687,1106,cs),
(817.562,1069,o),
(789.45,1020,o),
(714.497,978,cs),
(341.732,768,l),
(171.349,663,o),
(51.794,563,o),
(24.148,396,cs),
(-14.094,165,o),
(149.617,-24,o),
(470.617,-24,cs)
);
}
);
width = 1392;
},
{
associatedMasterId = m010;
layerId = "8FACB6CB-6DBA-4AB2-BE75-46B49E9CB2DD";
name = "Sep 16 18, 17:30";
shapes = (
{
closed = 1;
nodes = (
(207,663,o),
(88,567,o),
(62,404,c),
(21,154,o),
(181,-20,o),
(488,-20,c),
(737,-20,o),
(850,49,o),
(980,120,cs),
(990,125,o),
(1025,137,o),
(1030,140,cs),
(1249,276,o),
(1365,518,o),
(1406,776,c),
(1088,776,l),
(1042,495,o),
(786,291,o),
(588,290,cs),
(492,291,o),
(437,340,o),
(450,434,c),
(463,509,o),
(478,529,o),
(510,562,c),
(904,808,ls),
(1033,887,o),
(1138,1007,o),
(1160,1134,c),
(1196,1341,o),
(1068,1513,o),
(818,1512,cs),
(556,1513,o),
(353,1327,o),
(314,1100,cs),
(280,896,o),
(396,736,o),
(468,640,cs),
(936,0,l),
(1368,0,l),
(776,794,l),
(693,922,o),
(623,1001,o),
(638,1094,cs),
(649,1158,o),
(693,1196,o),
(766,1196,cs),
(836,1196,o),
(865,1143,o),
(858,1100,c),
(853,1076,o),
(847,1033,o),
(750,978,cs),
(378,768,l)
);
}
);
width = 1506;
},
{
layerId = m012;
name = ital_gen;
shapes = (
{
closed = 1;
nodes = (
(595.279,-20,o),
(750.337,77,o),
(842.561,175,cs),
(847.555,181,o),
(853.382,186,o),
(858.376,192,cs),
(938.441,283,o),
(1010.465,410,o),
(1051.324,536,c),
(1006.318,542,l),
(905.487,241,o),
(693.894,26,o),
(402.894,26,cs),
(192.894,26,o),
(54.389,180,o),
(86.174,372,cs),
(106.04,492,o),
(181.609,580,o),
(381.792,714,cs),
(626.942,878,ls),
(800.146,994,o),
(874.707,1088,o),
(894.573,1208,cs),
(923.379,1382,o),
(819.569,1510,o),
(650.569,1510,cs),
(474.569,1510,o),
(311.558,1371,o),
(282.587,1196,cs),
(261.396,1068,o),
(323.642,997,o),
(431.002,824,cs),
(945.59,0,l),
(1004.59,0,l),
(472.638,852,ls),
(365.112,1024,o),
(310.376,1086,o),
(328.587,1196,cs),
(353.253,1345,o),
(492.954,1464,o),
(642.954,1464,cs),
(785.954,1464,o),
(873.24,1357,o),
(848.739,1209,cs),
(831.025,1102,o),
(761.285,1019,o),
(606.067,915,cs),
(358.752,750,ls),
(145.244,608,o),
(62.358,506,o),
(40.174,372,cs),
(4.085,154,o),
(159.279,-20,o),
(395.279,-20,cs)
);
}
);
width = 1092;
}
);
metricLeft = d;
unicode = 38;
userData = {
"interface.width-adjustments" = (
-16
);
};
}
{
glyphname = parenleft;
kernLeft = parenleft;
kernRight = parenleft;
layers = (
{
guides = (
{
name = "Mid center";
pos = (0,651);
}
);
layerId = "200BE2C5-40F6-4CF4-AF4F-A33C0CC0964F";
shapes = (
{
closed = 1;
nodes = (
(198,317,o),
(221,-3,o),
(312,-302,c),
(360,-302,l),
(268,-3,o),
(244,314,o),
(296,628,cs),
(349,940,o),
(474,1260,o),
(670,1560,c),
(620,1560,l),
(431,1263,o),
(303,943,o),
(250,628,cs)
);
}
);
width = 646;
},
{
guides = (
{
pos = (588,1560);
}
);
layerId = "11F4534A-B963-4AB5-820F-DAF9A20CD933";
shapes = (
{
closed = 1;
nodes = (
(178,320,o),
(213,15,o),
(337,-279,c),
(512,-279,l),
(398,79,o),
(365,345,o),
(409,609,cs),
(457,897,o),
(611,1263,o),
(820,1581,c),
(645,1581,l),
(454,1334,o),
(280,932,o),
(226,608,cs)
);
}
);
width = 747;
},
{
guides = (
{
angle = -9.4;
name = "Mid center";
pos = (0,636);
}
);
layerId = m008;
name = ital_gen;
shapes = (
{
closed = 1;
nodes = (
(107.275,282,o),
(140.451,-25,o),
(253.919,-294,c),
(419.919,-294,l),
(312.55,36,o),
(284.573,314,o),
(330.595,592,cs),
(381.584,900,o),
(533.334,1273,o),
(727.84,1566,c),
(561.84,1566,l),
(381.101,1332,o),
(214.716,931,o),
(158.595,592,cs)
);
}
);
width = 612;
},
{
layerId = "D0EC06BF-13F9-4C88-A6F5-B8203AF6C77E";
shapes = (
{
closed = 1;
nodes = (
(85,301,o),
(123,-6,o),
(247,-279,c),
(613,-279,l),
(521,112,o),
(503,347,o),
(546,607,cs),
(597,914,o),
(735,1274,o),
(921,1581,c),
(555,1581,l),
(364,1344,o),
(191,942,o),
(136,607,cs)
);
}
);
width = 794;
},
{
guides = (
{
angle = -9.4;
name = "Mid center";
pos = (0,636);
}
);
layerId = m010;
name = ital_gen;
shapes = (
{
closed = 1;
nodes = (
(52.295,264,o),
(79.472,-43,o),
(185.919,-294,c),
(567.919,-294,l),
(495.04,45,o),
(461.593,296,o),
(510.595,592,cs),
(566.551,930,o),
(717.479,1292,o),
(875.84,1566,c),
(493.84,1566,l),
(322.088,1344,o),
(166.027,951,o),
(106.595,592,cs)
);
}
);
width = 736;
},
{
guides = (
{
angle = -9.4;
pos = (600,2144);
},
{
angle = -9.4;
pos = (624,-416);
},
{
angle = -9.4;
name = "Mid center";
pos = (0,636);
}
);
layerId = m012;
name = ital_gen;
shapes = (
{
closed = 1;
nodes = (
(141.228,324,o),
(163.252,4,o),
(253.753,-295,c),
(303.753,-295,l),
(209.252,4,o),
(186.731,321,o),
(239.714,635,cs),
(290.365,947,o),
(417.01,1265,o),
(612.005,1567,c),
(562.005,1567,l),
(372.837,1270,o),
(244.862,950,o),
(191.714,635,cs)
);
}
);
width = 518;
}
);
unicode = 40;
userData = {
com.typemytype.robofont.guideline.magnetic.6H1sRKKBfi = 5;
com.typemytype.robofont.guideline.magnetic.IYaB9kRuJP = 5;
com.typemytype.robofont.guideline.magnetic.PK9Z25O3at = 5;
com.typemytype.robofont.guideline.magnetic.pOwuJlK9ke = 5;
"interface.width-adjustments" = (
-16
);
};
}
{
glyphname = parenright;
kernLeft = parenright;
kernRight = parenright;
layers = (
{
guides = (
{
pos = (210,1560);
},
{
name = "Mid center";
pos = (-137,651);
}
);
layerId = "11F4534A-B963-4AB5-820F-DAF9A20CD933";
shapes = (
{
closed = 1;
nodes = (
(123,-279,l),
(340,9,o),
(479,314,o),
(528,607,cs),
(581,929,o),
(541,1332,o),
(431,1581,c),
(265,1581,l),
(370,1264,o),
(404,897,o),
(356,607,cs),
(313,347,o),
(193,80,o),
(-43,-279,c)
);
}
);
width = 738;
},
{
guides = (
{
name = "Mid center";
pos = (-197,651);
}
);
layerId = "D0EC06BF-13F9-4C88-A6F5-B8203AF6C77E";
shapes = (
{
closed = 1;
nodes = (
(283,-294,l),
(472,-43,o),
(601,264,o),
(655,592,cs),
(715,951,o),
(689,1344,o),
(591,1566,c),
(209,1566,l),
(276,1292,o),
(307,930,o),
(251,592,cs),
(202,296,o),
(86,45,o),
(-99,-294,c)
);
}
);
width = 778;
},
{
guides = (
{
orientation = center;
pos = (-332,864);
}
);
layerId = "200BE2C5-40F6-4CF4-AF4F-A33C0CC0964F";
shapes = (
{
closed = 1;
nodes = (
(49,-302,l),
(239,-3,o),
(367,317,o),
(419,628,cs),
(471,943,o),
(449,1263,o),
(358,1560,c),
(308,1560,l),
(403,1258,o),
(424,940,o),
(371,628,cs),
(320,314,o),
(193,-3,o),
(-1,-302,c)
);
}
);
width = 647;
},
{
guides = (
{
angle = -9.4;
name = "Mid center";
pos = (-259,636);
}
);
layerId = m008;
name = ital_gen;
shapes = (
{
closed = 1;
nodes = (
(85.919,-294,l),
(288.451,-25,o),
(423.275,282,o),
(474.595,592,cs),
(530.716,931,o),
(497.101,1332,o),
(393.84,1566,c),
(227.84,1566,l),
(325.334,1273,o),
(353.584,900,o),
(302.595,592,cs),
(256.573,314,o),
(136.55,36,o),
(-80.081,-294,c)
);
}
);
width = 612;
},
{
guides = (
{
angle = -9.4;
pos = (-318,1240);
},
{
angle = -9.4;
pos = (-318,764);
},
{
angle = -9.4;
name = "Mid center";
pos = (-198,636);
}
);
layerId = m010;
name = ital_gen;
shapes = (
{
closed = 1;
nodes = (
(277.919,-294,l),
(467.472,-43,o),
(596.295,264,o),
(650.595,592,cs),
(710.027,951,o),
(684.088,1344,o),
(585.84,1566,c),
(203.84,1566,l),
(271.479,1292,o),
(302.551,930,o),
(246.595,592,cs),
(197.593,296,o),
(81.04,45,o),
(-104.081,-294,c)
);
}
);
width = 736;
},
{
guides = (
{
angle = -9.4;
name = "Mid center";
pos = (-10,636);
}
);
layerId = m012;
name = ital_gen;
shapes = (
{
closed = 1;
nodes = (
(-18,-294,l),
(171,5,o),
(299,325,o),
(352,636,cs),
(403,951,o),
(381,1271,o),
(290,1568,c),
(240,1568,l),
(335,1266,o),
(357,948,o),
(304,636,cs),
(253,322,o),
(125,5,o),
(-68,-294,c)
);
}
);
width = 518;
}
);
metricLeft = "=|parenleft";
metricRight = "=|parenleft";
unicode = 41;
userData = {
"interface.width-adjustments" = (
-16
);
};
}
{
glyphname = plus;
kernLeft = hyphen;
kernRight = hyphen;
layers = (
{
anchors = (
{
name = _center;
pos = (678.808,582);
}
);
guides = (
{
pos = (268,800);
}
);
layerId = "11F4534A-B963-4AB5-820F-DAF9A20CD933";
shapes = (
{
closed = 1;
nodes = (
(682,102,l),
(840,1062,l),
(676,1062,l),
(518,102,l)
);
},
{
closed = 1;
nodes = (
(1144,500,l),
(1172,664,l),
(212,664,l),
(184,500,l)
);
}
);
width = 1350;
},
{
anchors = (
{
name = _center;
pos = (717.615,605);
}
);
guides = (
{
pos = (744,896);
}
);
layerId = "D0EC06BF-13F9-4C88-A6F5-B8203AF6C77E";
shapes = (
{
closed = 1;
nodes = (
(792,66,l),
(968,1144,l),
(642,1144,l),
(466,66,l)
);
},
{
closed = 1;
nodes = (
(1228,442,l),
(1282,768,l),
(206,768,l),
(152,442,l)
);
}
);
width = 1420;
},
{
anchors = (
{
name = _center;
pos = (655.808,582);
}
);
layerId = "200BE2C5-40F6-4CF4-AF4F-A33C0CC0964F";
shapes = (
{
closed = 1;
nodes = (
(608,160,l),
(748,1004,l),
(702,1004,l),
(562,160,l)
);
},
{
closed = 1;
nodes = (
(1074,558,l),
(1082,606,l),
(238,606,l),
(230,558,l)
);
}
);
width = 1304;
},
{
anchors = (
{
name = _center;
pos = (651.94,582);
}
);
background = {
shapes = (
{
pos = (108,0);
ref = e;
}
);
};
guides = (
{
angle = -9.4;
pos = (-24,800);
}
);
layerId = m008;
name = ital_gen;
shapes = (
{
closed = 1;
nodes = (
(653.476,102,l),
(812.403,1062,l),
(650.403,1062,l),
(491.476,102,l)
);
},
{
closed = 1;
nodes = (
(1117.365,500,l),
(1144.515,664,l),
(184.515,664,l),
(157.365,500,l)
);
}
);
width = 1286;
},
{
anchors = (
{
name = _center;
pos = (706.747,605);
}
);
guides = (
{
orientation = center;
angle = -9.4;
pos = (-3182,832);
}
);
layerId = m010;
name = ital_gen;
shapes = (
{
closed = 1;
nodes = (
(779.516,66,l),
(957.978,1144,l),
(631.978,1144,l),
(453.516,66,l)
);
},
{
closed = 1;
nodes = (
(1217.763,442,l),
(1271.732,768,l),
(195.732,768,l),
(141.763,442,l)
);
}
);
width = 1388;
},
{
anchors = (
{
name = _center;
pos = (596.94,582);
}
);
guides = (
{
angle = -9.4;
pos = (140,800);
}
);
layerId = m012;
name = ital_gen;
shapes = (
{
closed = 1;
nodes = (
(549.078,160,l),
(688.801,1004,l),
(642.801,1004,l),
(503.078,160,l)
);
},
{
closed = 1;
nodes = (
(1014.966,558,l),
(1022.913,606,l),
(178.913,606,l),
(170.966,558,l)
);
}
);
width = 1176;
}
);
unicode = 43;
userData = {
com.typemytype.robofont.guideline.magnetic.vWa5hxe2x0 = 5;
"interface.width-adjustments" = (
-16
);
};
}
{
glyphname = hyphen;
kernLeft = hyphen;
kernRight = hyphen;
layers = (
{
anchors = (
{
name = _center;
pos = (484.078,638);
}
);
guides = (
{
orientation = center;
pos = (1102,878);
}
);
layerId = "11F4534A-B963-4AB5-820F-DAF9A20CD933";
shapes = (
{
closed = 1;
nodes = (
(172,718,l),
(146,558,l),
(798,558,l),
(824,718,l)
);
}
);
width = 942;
},
{
anchors = (
{
name = _center;
pos = (491.629,593);
}
);
layerId = "D0EC06BF-13F9-4C88-A6F5-B8203AF6C77E";
shapes = (
{
closed = 1;
nodes = (
(168,744,l),
(118,442,l),
(816,442,l),
(866,744,l)
);
}
);
width = 972;
},
{
anchors = (
{
name = _center;
pos = (462.244,639);
}
);
guides = (
{
orientation = center;
pos = (1102,878);
}
);
layerId = "200BE2C5-40F6-4CF4-AF4F-A33C0CC0964F";
shapes = (
{
closed = 1;
nodes = (
(190,662,l),
(180,616,l),
(736,616,l),
(744,662,l)
);
}
);
width = 898;
},
{
associatedMasterId = "11F4534A-B963-4AB5-820F-DAF9A20CD933";
guides = (
{
orientation = center;
pos = (1104,816);
}
);
layerId = "FA942A48-6198-45E0-B3DC-94AD50B28E82";
name = low;
shapes = (
{
closed = 1;
nodes = (
(164,674,l),
(138,514,l),
(790,514,l),
(816,674,l)
);
}
);
width = 942;
},
{
associatedMasterId = "200BE2C5-40F6-4CF4-AF4F-A33C0CC0964F";
guides = (
{
orientation = center;
pos = (1104,816);
}
);
layerId = "628641A3-A77A-48BD-AD1C-A1A5E33F57F0";
name = low;
shapes = (
{
closed = 1;
nodes = (
(182,616,l),
(174,570,l),
(728,570,l),
(738,616,l)
);
}
);
width = 898;
},
{
anchors = (
{
name = _center;
pos = (452.244,608);
}
);
background = {
shapes = (
{
ref = x;
}
);
};
guides = (
{
orientation = center;
angle = -9.4;
pos = (-3279,878);
}
);
layerId = m008;
name = ital_gen;
shapes = (
{
closed = 1;
nodes = (
(139.488,688,l),
(113,528,l),
(765,528,l),
(791.488,688,l)
);
}
);
width = 878;
},
{
associatedMasterId = m008;
guides = (
{
orientation = center;
pos = (1104,816);
}
);
layerId = "8219FCA5-55E9-407D-B48F-811E641E65DF";
name = low;
shapes = (
{
closed = 1;
nodes = (
(164,674,l),
(138,514,l),
(790,514,l),
(816,674,l)
);
}
);
width = 942;
},
{
anchors = (
{
name = _center;
pos = (476.788,569);
}
);
background = {
shapes = (
{
ref = x;
}
);
};
guides = (
{
orientation = center;
angle = -9.4;
pos = (-1366,816);
}
);
layerId = m010;
name = ital_gen;
shapes = (
{
closed = 1;
nodes = (
(152.785,720,l),
(102.79,418,l),
(800.79,418,l),
(850.785,720,l)
);
}
);
width = 940;
},
{
anchors = (
{
name = _center;
pos = (403.376,639);
}
);
layerId = m012;
name = ital_gen;
shapes = (
{
closed = 1;
nodes = (
(130.184,662,l),
(122.568,616,l),
(678.568,616,l),
(686.184,662,l)
);
}
);
width = 770;
},
{
associatedMasterId = m012;
guides = (
{
orientation = center;
pos = (1104,816);
}
);
layerId = "64E4E782-A065-4601-86D3-F65473F65BC2";
name = low;
shapes = (
{
closed = 1;
nodes = (
(182,616,l),
(174,570,l),
(728,570,l),
(738,616,l)
);
}
);
width = 898;
}
);
unicode = 45;
userData = {
"interface.width-adjustments" = (
-16
);
};
}
{
glyphname = period;
kernLeft = comma;
kernRight = comma;
layers = (
{
anchors = (
{
name = _center;
pos = (220.158,119);
}
);
layerId = "11F4534A-B963-4AB5-820F-DAF9A20CD933";
shapes = (
{
closed = 1;
nodes = (
(276,-12,o),
(338,41,o),
(349,108,cs),
(362,185,o),
(309,250,o),
(231,250,cs),
(165,250,o),
(102,197,o),
(91,130,cs),
(78,53,o),
(132,-12,o),
(209,-12,cs)
);
}
);
width = 586;
},
{
anchors = (
{
name = _center;
pos = (322.091,179);
}
);
guides = (
{
pos = (564,1240);
},
{
pos = (12,764);
}
);
layerId = "D0EC06BF-13F9-4C88-A6F5-B8203AF6C77E";
shapes = (
{
closed = 1;
nodes = (
(416,-24,o),
(507,50,o),
(524,153,cs),
(545,282,o),
(462,382,o),
(335,382,cs),
(228,382,o),
(137,308,o),
(120,205,cs),
(99,76,o),
(182,-24,o),
(309,-24,cs)
);
}
);
width = 770;
},
{
anchors = (
{
name = _center;
pos = (191.742,44);
}
);
layerId = "200BE2C5-40F6-4CF4-AF4F-A33C0CC0964F";
shapes = (
{
closed = 1;
nodes = (
(214,-9,o),
(240,13,o),
(244,41,cs),
(249,71,o),
(228,97,o),
(197,97,cs),
(170,97,o),
(144,75,o),
(139,47,cs),
(134,17,o),
(156,-9,o),
(186,-9,cs)
);
}
);
width = 554;
},
{
anchors = (
{
name = _center;
pos = (149.807,104);
}
);
layerId = m008;
name = ital_gen;
shapes = (
{
closed = 1;
nodes = (
(194.604,-12,o),
(255.212,40,o),
(265.807,104,cs),
(276.402,168,o),
(233.011,220,o),
(169.011,220,cs),
(105.011,220,o),
(44.402,168,o),
(33.807,104,cs),
(23.212,40,o),
(66.604,-12,o),
(130.604,-12,cs)
);
}
);
width = 440;
},
{
anchors = (
{
name = _center;
pos = (215.879,189);
}
);
guides = (
{
angle = -9.4;
pos = (-112,1240);
},
{
angle = -9.4;
pos = (-112,764);
}
);
layerId = m010;
name = ital_gen;
shapes = (
{
closed = 1;
nodes = (
(296.445,-19,o),
(404.841,74,o),
(423.879,189,cs),
(442.917,304,o),
(365.313,397,o),
(250.313,397,cs),
(135.313,397,o),
(26.917,304,o),
(7.879,189,cs),
(-11.159,74,o),
(66.445,-19,o),
(181.445,-19,cs)
);
}
);
width = 544;
},
{
anchors = (
{
name = _center;
pos = (119.212,40);
}
);
layerId = m012;
name = ital_gen;
shapes = (
{
closed = 1;
nodes = (
(138.266,-8,o),
(162.742,13,o),
(167.212,40,cs),
(171.682,67,o),
(154.158,88,o),
(127.158,88,cs),
(100.158,88,o),
(75.682,67,o),
(71.212,40,cs),
(66.742,13,o),
(84.266,-8,o),
(111.266,-8,cs)
);
}
);
width = 400;
}
);
unicode = 46;
userData = {
"interface.width-adjustments" = (
-16
);
};
}
{
glyphname = zero;
kernLeft = six;
kernRight = nine;
layers = (
{
anchors = (
{
name = center;
pos = (636,745);
},
{
name = top;
pos = (760,1490);
}
);
guides = (
{
pos = (849,2044);
},
{
pos = (849,4);
}
);
layerId = "200BE2C5-40F6-4CF4-AF4F-A33C0CC0964F";
name = ital_gen;
shapes = (
{
closed = 1;
nodes = (
(794,-20,o),
(1015,271,o),
(1093,744,cs),
(1172,1219,o),
(1047,1510,o),
(764,1510,cs),
(479,1510,o),
(258,1219,o),
(179,744,cs),
(101,271,o),
(226,-20,o),
(511,-20,cs)
);
},
{
closed = 1;
nodes = (
(263,26,o),
(151,297,o),
(225,744,cs),
(299,1193,o),
(501,1464,o),
(756,1464,cs),
(1009,1464,o),
(1121,1193,o),
(1047,744,cs),
(973,297,o),
(771,26,o),
(518,26,cs)
);
}
);
width = 1210;
},
{
anchors = (
{
name = center;
pos = (572,745);
},
{
name = top;
pos = (696,1490);
}
);
guides = (
{
pos = (716,2044);
},
{
pos = (716,4);
}
);
layerId = m012;
name = ital_gen;
shapes = (
{
closed = 1;
nodes = (
(730,-20,o),
(951,271,o),
(1029,744,cs),
(1108,1219,o),
(983,1510,o),
(700,1510,cs),
(415,1510,o),
(194,1219,o),
(115,744,cs),
(37,271,o),
(162,-20,o),
(447,-20,cs)
);
},
{
closed = 1;
nodes = (
(199,26,o),
(87,297,o),
(161,744,cs),
(235,1193,o),
(437,1464,o),
(692,1464,cs),
(945,1464,o),
(1057,1193,o),
(983,744,cs),
(909,297,o),
(707,26,o),
(454,26,cs)
);
}
);
width = 1082;
},
{
anchors = (
{
name = center;
pos = (671,745);
},
{
name = top;
pos = (795,1490);
}
);
guides = (
{
orientation = center;
angle = 80.6;
pos = (185,792);
}
);
layerId = "11F4534A-B963-4AB5-820F-DAF9A20CD933";
name = ital_gen;
shapes = (
{
closed = 1;
nodes = (
(874,-20,o),
(1109,258,o),
(1189,744,cs),
(1269,1228,o),
(1124,1510,o),
(798,1510,cs),
(472,1510,o),
(233,1228,o),
(153,744,cs),
(73,258,o),
(216,-20,o),
(545,-20,cs)
);
},
{
closed = 1;
nodes = (
(350,138,o),
(262,361,o),
(325,744,cs),
(389,1128,o),
(551,1352,o),
(772,1352,cs),
(993,1352,o),
(1081,1128,o),
(1017,744,cs),
(954,361,o),
(792,138,o),
(571,138,cs)
);
}
);
width = 1280;
},
{
anchors = (
{
name = center;
pos = (664,745);
},
{
name = top;
pos = (788,1490);
}
);
guides = (
{
orientation = center;
angle = 80.6;
pos = (-5705,792);
},
{
angle = 80.6;
pos = (629,1552);
}
);
layerId = m008;
name = ital_gen;
shapes = (
{
closed = 1;
nodes = (
(867,-24,o),
(1125,275,o),
(1202,744,cs),
(1280,1215,o),
(1122,1514,o),
(792,1514,cs),
(462,1514,o),
(204,1215,o),
(126,744,cs),
(49,275,o),
(207,-24,o),
(537,-24,cs)
);
},
{
closed = 1;
nodes = (
(336,136,o),
(234,366,o),
(296,744,cs),
(359,1124,o),
(537,1354,o),
(765,1354,cs),
(993,1354,o),
(1095,1124,o),
(1032,744,cs),
(970,366,o),
(792,136,o),
(564,136,cs)
);
}
);
width = 1256;
},
{
anchors = (
{
name = center;
pos = (779,745);
},
{
name = top;
pos = (903,1490);
}
);
layerId = "D0EC06BF-13F9-4C88-A6F5-B8203AF6C77E";
name = ital_gen;
shapes = (
{
closed = 1;
nodes = (
(1068,-20,o),
(1358,263,o),
(1437,744,cs),
(1517,1225,o),
(1320,1510,o),
(906,1510,cs),
(492,1510,o),
(201,1226,o),
(121,744,cs),
(42,263,o),
(239,-20,o),
(653,-20,cs)
);
},
{
closed = 1;
nodes = (
(552,308,o),
(494,461,o),
(541,744,cs),
(588,1027,o),
(699,1184,o),
(852,1184,cs),
(1006,1184,o),
(1064,1028,o),
(1017,744,cs),
(970,461,o),
(861,308,o),
(707,308,cs)
);
}
);
width = 1496;
},
{
anchors = (
{
name = center;
pos = (734,745);
},
{
name = top;
pos = (858,1490);
}
);
layerId = m010;
name = ital_gen;
shapes = (
{
closed = 1;
nodes = (
(1020,-24,o),
(1313,267,o),
(1392,744,cs),
(1471,1222,o),
(1275,1514,o),
(862,1514,cs),
(449,1514,o),
(155,1221,o),
(76,744,cs),
(-3,268,o),
(194,-24,o),
(607,-24,cs)
);
},
{
closed = 1;
nodes = (
(495,296,o),
(422,466,o),
(468,744,cs),
(514,1023,o),
(644,1194,o),
(809,1194,cs),
(974,1194,o),
(1046,1023,o),
(1000,744,cs),
(954,466,o),
(825,296,o),
(660,296,cs)
);
}
);
width = 1396;
}
);
metricLeft = O;
metricRight = O;
unicode = 48;
}
{
glyphname = one;
kernLeft = one;
kernRight = H;
layers = (
{
anchors = (
{
name = _center;
pos = (459.792,745);
}
);
layerId = "11F4534A-B963-4AB5-820F-DAF9A20CD933";
shapes = (
{
closed = 1;
nodes = (
(652,1490,l),
(238,1242,l),
(206,1058,l),
(610,1300,l),
(620,1300,l),
(404,0,l),
(584,0,l),
(832,1490,l)
);
}
);
width = 858;
},
{
anchors = (
{
name = _center;
pos = (493.792,745);
}
);
guides = (
{
pos = (484,1240);
},
{
pos = (16,764);
}
);
layerId = "D0EC06BF-13F9-4C88-A6F5-B8203AF6C77E";
shapes = (
{
closed = 1;
nodes = (
(610,1490,l),
(206,1266,l),
(152,922,l),
(510,1118,l),
(518,1118,l),
(332,0,l),
(736,0,l),
(984,1490,l)
);
}
);
width = 926;
},
{
anchors = (
{
name = _center;
pos = (406.792,745);
}
);
layerId = "200BE2C5-40F6-4CF4-AF4F-A33C0CC0964F";
shapes = (
{
closed = 1;
nodes = (
(610,1490,l),
(264,1282,l),
(256,1228,l),
(610,1440,l),
(620,1440,l),
(382,0,l),
(428,0,l),
(674,1490,l)
);
}
);
width = 752;
},
{
anchors = (
{
name = _center;
pos = (455.924,745);
}
);
layerId = m008;
name = ital_gen;
shapes = (
{
closed = 1;
nodes = (
(579.258,1490,l),
(166.202,1242,l),
(135.741,1058,l),
(537.804,1300,l),
(547.804,1300,l),
(332.59,0,l),
(506.59,0,l),
(753.258,1490,l)
);
}
);
width = 742;
},
{
anchors = (
{
name = _center;
pos = (509.924,745);
}
);
layerId = m010;
name = ital_gen;
shapes = (
{
closed = 1;
nodes = (
(557.258,1490,l),
(154.175,1266,l),
(97.226,922,l),
(462.833,1125,l),
(464.833,1125,l),
(278.59,0,l),
(684.59,0,l),
(931.258,1490,l)
);
}
);
width = 852;
},
{
anchors = (
{
name = _center;
pos = (437.924,745);
}
);
layerId = m012;
name = ital_gen;
shapes = (
{
closed = 1;
nodes = (
(551.258,1490,l),
(206.824,1282,l),
(197.884,1228,l),
(552.981,1440,l),
(560.981,1440,l),
(322.59,0,l),
(368.59,0,l),
(615.258,1490,l)
);
}
);
width = 624;
},
{
anchors = (
{
name = _center;
pos = (459.792,745);
}
);
associatedMasterId = "11F4534A-B963-4AB5-820F-DAF9A20CD933";
layerId = "C0F7BFB2-6899-4A08-9D27-CCBDD80BD3C9";
name = "Jul 10, 22, 11:15";
shapes = (
{
closed = 1;
nodes = (
(652,1490,l),
(238,1242,l),
(206,1058,l),
(610,1300,l),
(620,1300,l),
(404,0,l),
(584,0,l),
(832,1490,l)
);
}
);
width = 858;
}
);
metricRight = H;
tags = (
"TODO-opsz"
);
unicode = 49;
}
{
glyphname = two;
kernLeft = two;
kernRight = two;
layers = (
{
anchors = (
{
name = cross;
pos = (702,632);
},
{
name = top;
pos = (774,1490);
}
);
background = {
shapes = (
{
pos = (-24,0);
ref = three;
}
);
};
layerId = "11F4534A-B963-4AB5-820F-DAF9A20CD933";
name = ital_gen;
shapes = (
{
closed = 1;
nodes = (
(1001,0,l),
(1027,160,l),
(335,160,l),
(337,172,l),
(731,530,ls),
(1032,804,o),
(1129,932,o),
(1156,1096,cs),
(1195,1327,o),
(1038,1510,o),
(777,1510,cs),
(516,1510,o),
(288,1332,o),
(244,1070,c),
(416,1070,l),
(444,1240,o),
(572,1352,o),
(745,1352,cs),
(906,1352,o),
(1013,1254,o),
(986,1096,cs),
(964,959,o),
(866,858,o),
(664,670,cs),
(83,130,l),
(61,0,l)
);
}
);
width = 1240;
},
{
anchors = (
{
name = cross;
pos = (801,673);
},
{
name = top;
pos = (817,1490);
}
);
guides = (
{
pos = (-15,2280);
}
);
layerId = "D0EC06BF-13F9-4C88-A6F5-B8203AF6C77E";
name = ital_gen;
shapes = (
{
closed = 1;
nodes = (
(1150,0,l),
(1203,322,l),
(621,322,l),
(623,332,l),
(782,448,ls),
(1170,730,o),
(1279,878,o),
(1308,1050,cs),
(1354,1328,o),
(1157,1510,o),
(800,1510,cs),
(453,1510,o),
(196,1317,o),
(144,1004,c),
(528,1004,l),
(549,1129,o),
(635,1198,o),
(748,1198,cs),
(859,1198,o),
(927,1129,o),
(908,1016,cs),
(891,910,o),
(811,841,o),
(686,750,cs),
(54,290,l),
(6,0,l)
);
}
);
width = 1325;
},
{
anchors = (
{
name = cross;
pos = (744,637);
},
{
name = top;
pos = (791,1490);
}
);
layerId = "200BE2C5-40F6-4CF4-AF4F-A33C0CC0964F";
name = ital_gen;
shapes = (
{
closed = 1;
nodes = (
(996,0,l),
(1004,46,l),
(178,46,l),
(179,52,l),
(705,574,ls),
(978,844,o),
(1067,961,o),
(1094,1126,cs),
(1131,1347,o),
(985,1510,o),
(760,1510,cs),
(528,1510,o),
(345,1333,o),
(309,1118,c),
(355,1118,l),
(386,1307,o),
(554,1464,o),
(760,1464,cs),
(959,1464,o),
(1081,1321,o),
(1048,1126,cs),
(1024,977,o),
(941,867,o),
(674,602,cs),
(104,38,l),
(98,0,l)
);
}
);
width = 1273;
},
{
anchors = (
{
name = cross;
pos = (669,607);
},
{
name = top;
pos = (725,1490);
}
);
background = {
shapes = (
{
pos = (-39,0);
ref = three;
}
);
};
layerId = m008;
name = ital_gen;
shapes = (
{
closed = 1;
nodes = (
(972,0,l),
(998,160,l),
(263,160,l),
(272,162,l),
(732,528,ls),
(980,726,o),
(1107,871,o),
(1138,1060,cs),
(1183,1331,o),
(1011,1514,o),
(723,1514,cs),
(439,1514,o),
(215,1305,o),
(166,1008,c),
(334,1008,l),
(369,1220,o),
(520,1354,o),
(712,1354,cs),
(910,1354,o),
(999,1244,o),
(967,1054,cs),
(943,904,o),
(846,808,o),
(628,635,cs),
(18,151,l),
(-7,0,l)
);
}
);
width = 1146;
},
{
anchors = (
{
name = cross;
pos = (759,649);
},
{
name = top;
pos = (801,1490);
}
);
background = {
shapes = (
{
pos = (-28,0);
ref = three;
}
);
};
layerId = m010;
name = ital_gen;
shapes = (
{
closed = 1;
nodes = (
(1131,0,l),
(1184,322,l),
(612,322,l),
(613,324,l),
(878,512,ls),
(1104,672,o),
(1262,817,o),
(1299,1036,cs),
(1348.008,1335,o),
(1136,1514,o),
(792,1514,cs),
(441,1514,o),
(187,1297,o),
(130,952,c),
(511,952,l),
(536,1107,o),
(636,1194,o),
(756,1194,cs),
(868,1194,o),
(944,1136,o),
(926,1024,cs),
(905,899,o),
(777,818,o),
(687,754,cs),
(35.009,290,l),
(-13,0,l)
);
}
);
width = 1290;
},
{
anchors = (
{
name = cross;
pos = (611,580);
},
{
name = top;
pos = (732,1490);
}
);
layerId = m012;
name = ital_gen;
shapes = (
{
closed = 1;
nodes = (
(873,0,l),
(881,46,l),
(111,46,l),
(111,47,l),
(646,574,ls),
(920,844,o),
(1008,961,o),
(1035,1126,cs),
(1072,1347,o),
(926,1510,o),
(701,1510,cs),
(456,1510,o),
(261,1329,o),
(218,1072,c),
(264,1072,l),
(303,1303,o),
(481,1464,o),
(701,1464,cs),
(900,1464,o),
(1022,1321,o),
(989,1126,cs),
(965,977,o),
(883,866,o),
(615,602,cs),
(46,42,l),
(39,0,l)
);
}
);
width = 1087;
}
);
unicode = 50;
}
{
glyphname = three;
kernLeft = three;
kernRight = eight;
layers = (
{
anchors = (
{
name = _center;
pos = (682.792,745);
}
);
layerId = "11F4534A-B963-4AB5-820F-DAF9A20CD933";
shapes = (
{
closed = 1;
nodes = (
(863,-20,o),
(1090,139,o),
(1132,392,cs),
(1163,581,o),
(1076,730,o),
(894,762,c),
(894,770,l),
(1049,818,o),
(1167,936,o),
(1192,1100,cs),
(1228,1315,o),
(1089,1510,o),
(808,1510,cs),
(556,1510,o),
(321,1350,o),
(276,1118,c),
(450,1118,l),
(479,1265,o),
(642,1353,o),
(800,1352,cs),
(964,1353,o),
(1045,1257,o),
(1022,1114,cs),
(994,950,o),
(849,844,o),
(672,844,cs),
(558,844,l),
(532,684,l),
(654,684,ls),
(882,684,o),
(980,571,o),
(958,416,cs),
(931,242,o),
(761,140,o),
(574,140,cs),
(397,140,o),
(289,230,o),
(302,372,c),
(122,372,l),
(92,137,o),
(279,-20,o),
(570,-20,cs)
);
}
);
width = 1304;
},
{
anchors = (
{
name = _center;
pos = (721.792,745);
}
);
guides = (
{
pos = (984,2280);
},
{
pos = (-16,764);
}
);
layerId = "D0EC06BF-13F9-4C88-A6F5-B8203AF6C77E";
shapes = (
{
closed = 1;
nodes = (
(957,-20,o),
(1237,163,o),
(1278,408,cs),
(1308,598,o),
(1180,740,o),
(968,766,c),
(968,776,l),
(1162,793,o),
(1300,881,o),
(1330,1056,cs),
(1369,1300,o),
(1169,1510,o),
(830,1510,cs),
(503,1510,o),
(234,1317,o),
(190,1044,c),
(574,1044,l),
(586,1135,o),
(697,1199,o),
(808,1198,cs),
(911,1199,o),
(956,1148,o),
(942,1070,cs),
(926,970,o),
(825,896,o),
(702,896,cs),
(558,896,l),
(512,616,l),
(672,616,ls),
(795,617,o),
(879,575,o),
(864,482,cs),
(849,393,o),
(753,305,o),
(628,306,cs),
(523,305,o),
(449,367,o),
(466,454,c),
(64,454,l),
(16,176,o),
(241,-20,o),
(606,-20,cs)
);
}
);
width = 1382;
},
{
associatedMasterId = "11F4534A-B963-4AB5-820F-DAF9A20CD933";
layerId = "13E57C55-4418-4EA5-AB4C-FFA60C92562E";
name = "Sep 23 18, 16:27";
shapes = (
{
closed = 1;
nodes = (
(791,-20,o),
(1012,132,o),
(1056,384,cs),
(1084,558,o),
(996,695,o),
(826,750,c),
(830,762,l),
(993,809,o),
(1112,937,o),
(1140,1094,cs),
(1180,1333,o),
(1020,1510,o),
(750,1510,cs),
(498,1510,o),
(295,1354,o),
(258,1118,c),
(430,1118,l),
(455,1268,o),
(586,1361,o),
(748,1358,cs),
(903,1356,o),
(993,1264,o),
(968,1114,cs),
(945,951,o),
(801,838,o),
(626,838,cs),
(544,838,l),
(518,672,l),
(608,672,ls),
(816,672,o),
(910,573,o),
(884,410,cs),
(855,243,o),
(724,143,o),
(542,142,cs),
(361,143,o),
(280,238,o),
(300,372,c),
(122,372,l),
(81,143,o),
(248,-20,o),
(524,-20,cs)
);
}
);
width = 1224;
},
{
anchors = (
{
name = _center;
pos = (658.792,745);
}
);
layerId = "200BE2C5-40F6-4CF4-AF4F-A33C0CC0964F";
shapes = (
{
closed = 1;
nodes = (
(800,-20,o),
(1009,157,o),
(1048,386,cs),
(1079,576,o),
(977,719,o),
(792,768,c),
(792,774,l),
(969,823,o),
(1100,954,o),
(1126,1128,cs),
(1164,1347,o),
(1024,1510,o),
(788,1510,cs),
(556,1510,o),
(358,1347,o),
(320,1118,c),
(366,1118,l),
(399,1321,o),
(585,1463,o),
(792,1464,cs),
(1004,1463,o),
(1111,1321,o),
(1080,1128,cs),
(1047,922,o),
(852,791,o),
(628,792,cs),
(606,792,l),
(600,744,l),
(622,744,ls),
(876,745,o),
(1036,602,o),
(1000,386,cs),
(969,189,o),
(774,26,o),
(538,26,cs),
(314,26,o),
(175,172,o),
(206,372,c),
(160,372,l),
(122,145,o),
(288,-20,o),
(538,-20,cs)
);
}
);
width = 1256;
},
{
anchors = (
{
name = _center;
pos = (651.924,745);
}
);
layerId = m008;
name = ital_gen;
shapes = (
{
closed = 1;
nodes = (
(824.617,-24,o),
(1074.912,159,o),
(1115.472,404,cs),
(1145.933,588,o),
(1045.441,730,o),
(860.738,762,c),
(862.725,774,l),
(1037.168,825,o),
(1160.358,953,o),
(1186.681,1112,cs),
(1224.26,1339,o),
(1046.231,1514,o),
(772.231,1514,cs),
(490.231,1514,o),
(260.108,1326,o),
(215.41,1056,c),
(389.41,1056,l),
(420.533,1244,o),
(555.075,1356,o),
(745.075,1356,cs),
(930.075,1356,o),
(1034.189,1254,o),
(1009.025,1102,cs),
(983.531,948,o),
(836.313,844,o),
(644.313,844,cs),
(524.313,844,l),
(497.826,684,l),
(617.826,684,ls),
(836.826,684,o),
(967.119,571,o),
(939.472,404,cs),
(913.15,245,o),
(754.774,134,o),
(550.774,134,cs),
(337.774,134,o),
(233.136,257,o),
(268.067,468,c),
(86.067,468,l),
(37.892,177,o),
(220.617,-24,o),
(528.617,-24,cs)
);
}
);
width = 1232;
},
{
associatedMasterId = m008;
layerId = "1C494ECE-E467-4647-A262-A8AF6FF4451B";
name = "Sep 23 18, 16:27";
shapes = (
{
closed = 1;
nodes = (
(791,-20,o),
(1012,132,o),
(1056,384,cs),
(1084,558,o),
(996,695,o),
(826,750,c),
(830,762,l),
(993,809,o),
(1112,937,o),
(1140,1094,cs),
(1180,1333,o),
(1020,1510,o),
(750,1510,cs),
(498,1510,o),
(295,1354,o),
(258,1118,c),
(430,1118,l),
(455,1268,o),
(586,1361,o),
(748,1358,cs),
(903,1356,o),
(993,1264,o),
(968,1114,cs),
(945,951,o),
(801,838,o),
(626,838,cs),
(544,838,l),
(518,672,l),
(608,672,ls),
(816,672,o),
(910,573,o),
(884,410,cs),
(855,243,o),
(724,143,o),
(542,142,cs),
(361,143,o),
(280,238,o),
(300,372,c),
(122,372,l),
(81,143,o),
(248,-20,o),
(524,-20,cs)
);
}
);
width = 1224;
},
{
anchors = (
{
name = _center;
pos = (707.924,745);
}
);
layerId = m010;
name = ital_gen;
shapes = (
{
closed = 1;
nodes = (
(941.617,-24,o),
(1219.906,165,o),
(1262.121,420,cs),
(1291.588,598,o),
(1197.745,756,o),
(977.553,779,c),
(978.049,782,l),
(1150.36,802,o),
(1298.564,918,o),
(1328.694,1100,cs),
(1368.922,1343,o),
(1165.231,1514,o),
(835.231,1514,cs),
(471.231,1514,o),
(220.632,1305,o),
(175.437,1032,c),
(563.437,1032,l),
(581.15,1139,o),
(675.567,1214,o),
(785.567,1214,cs),
(890.567,1214,o),
(955.144,1145,o),
(939.417,1050,cs),
(923.358,953,o),
(834.922,896,o),
(700.922,896,cs),
(556.922,896,l),
(510.568,616,l),
(654.568,616,ls),
(793.568,616,o),
(871.808,551,o),
(855.253,451,cs),
(839.194,354,o),
(744.937,286,o),
(625.937,286,cs),
(493.937,286,o),
(428.009,371,o),
(451.351,512,c),
(61.351,512,l),
(15.329,234,o),
(150.617,-24,o),
(576.617,-24,cs)
);
}
);
width = 1344;
},
{
anchors = (
{
name = _center;
pos = (599.924,745);
}
);
layerId = m012;
name = ital_gen;
shapes = (
{
closed = 1;
nodes = (
(740.279,-20,o),
(950.747,158,o),
(988.492,386,cs),
(1019.946,576,o),
(918.62,719,o),
(731.732,768,c),
(732.725,774,l),
(909.671,822,o),
(1039.524,954,o),
(1067.329,1128,cs),
(1104.585,1347,o),
(963.569,1510,o),
(730.569,1510,cs),
(495.569,1510,o),
(298.585,1347,o),
(259.674,1118,c),
(307.674,1118,l),
(340.28,1321,o),
(513.788,1463,o),
(722.954,1464,cs),
(931.788,1463,o),
(1053.115,1320,o),
(1021.329,1128,cs),
(987.226,922,o),
(793.539,791,o),
(569.705,792,cs),
(547.705,792,l),
(539.759,744,l),
(561.759,744,ls),
(816.924,745,o),
(978.085,601,o),
(942.492,386,cs),
(909.713,188,o),
(723.894,26,o),
(486.894,26,cs),
(263.894,26,o),
(116.065,172,o),
(148.174,372,c),
(102.174,372,l),
(64.595,145,o),
(228.279,-20,o),
(479.279,-20,cs)
);
}
);
width = 1128;
}
);
unicode = 51;
}
{
glyphname = four;
kernLeft = four;
kernRight = four;
layers = (
{
anchors = (
{
name = _center;
pos = (782,745);
}
);
background = {
shapes = (
{
pos = (-120,0);
ref = A;
}
);
};
guides = (
{
pos = (12,320);
}
);
layerId = "D0EC06BF-13F9-4C88-A6F5-B8203AF6C77E";
name = ital_gen;
shapes = (
{
closed = 1;
nodes = (
(1314,232,l),
(1366,546,l),
(480,546,l),
(482,558,l),
(891,1070,l),
(1053,1070,l),
(1123,1490,l),
(839,1490,l),
(82,546,l),
(30,232,l)
);
},
{
closed = 1;
nodes = (
(1104,0,l),
(1351,1490,l),
(973,1490,l),
(803,466,l),
(770,328,l),
(716,0,l)
);
}
);
width = 1438;
},
{
anchors = (
{
name = _center;
pos = (687,745);
}
);
layerId = "200BE2C5-40F6-4CF4-AF4F-A33C0CC0964F";
name = ital_gen;
shapes = (
{
closed = 1;
nodes = (
(1033,350,l),
(1041,396,l),
(191,396,l),
(192,402,l),
(968,1394,l),
(1002,1394,l),
(1018,1490,l),
(988,1490,l),
(123,384,l),
(117,350,l)
);
},
{
closed = 1;
nodes = (
(789,0,l),
(1036,1490,l),
(988,1490,l),
(804,378,l),
(801,364,l),
(741,0,l)
);
}
);
width = 1218;
},
{
anchors = (
{
name = _center;
pos = (699.924,745);
}
);
layerId = m008;
name = ital_gen;
shapes = (
{
closed = 1;
nodes = (
(1185.188,360,l),
(1211.676,520,l),
(254.676,520,l),
(255.007,522,l),
(936.817,1288,l),
(1000.817,1288,l),
(1034.258,1490,l),
(924.258,1490,l),
(48.689,508,l),
(24.188,360,l)
);
},
{
closed = 1;
nodes = (
(897.59,0,l),
(1144.258,1490,l),
(972.258,1490,l),
(804.06,474,l),
(792.472,404,l),
(725.59,0,l)
);
}
);
width = 1265;
},
{
anchors = (
{
name = _center;
pos = (774.924,745);
}
);
layerId = m010;
name = ital_gen;
shapes = (
{
closed = 1;
nodes = (
(1310.268,288,l),
(1360.926,594,l),
(449.926,594,l),
(450.257,596,l),
(888.674,1118,l),
(1031.674,1118,l),
(1093.258,1490,l),
(830.258,1490,l),
(76.251,602,l),
(24.268,288,l)
);
},
{
closed = 1;
nodes = (
(1096.59,0,l),
(1343.258,1490,l),
(951.258,1490,l),
(791.007,522,l),
(768.161,384,l),
(704.59,0,l)
);
}
);
width = 1414;
},
{
anchors = (
{
name = _center;
pos = (620.924,745);
}
);
layerId = m012;
name = ital_gen;
shapes = (
{
closed = 1;
nodes = (
(974.532,350,l),
(982.148,396,l),
(132.148,396,l),
(133.141,402,l),
(909.365,1394,l),
(943.365,1394,l),
(959.258,1490,l),
(929.258,1490,l),
(64.161,384,l),
(58.532,350,l)
);
},
{
closed = 1;
nodes = (
(730.59,0,l),
(977.258,1490,l),
(929.258,1490,l),
(745.168,378,l),
(742.85,364,l),
(682.59,0,l)
);
}
);
width = 1090;
},
{
anchors = (
{
name = _center;
pos = (720,745);
}
);
layerId = "11F4534A-B963-4AB5-820F-DAF9A20CD933";
name = ital_gen;
shapes = (
{
closed = 1;
nodes = (
(1155,306,l),
(1181,466,l),
(299,466,l),
(301,478,l),
(925,1260,l),
(999,1260,l),
(1037,1490,l),
(929,1490,l),
(103,454,l),
(79,306,l)
);
},
{
closed = 1;
nodes = (
(900,0,l),
(1147,1490,l),
(975,1490,l),
(798,420,l),
(786,350,l),
(728,0,l)
);
}
);
width = 1315;
}
);
unicode = 52;
}
{
glyphname = five;
layers = (
{
guides = (
{
angle = 80.6;
pos = (1344,1656);
}
);
layerId = "200BE2C5-40F6-4CF4-AF4F-A33C0CC0964F";
name = ital_gen;
shapes = (
{
closed = 1;
nodes = (
(726,-20,o),
(944,186,o),
(989,462,cs),
(1037,751,o),
(864,940,o),
(625,940,cs),
(505,940,o),
(397,895,o),
(312,826,c),
(306,826,l),
(484,1442,l),
(1104,1442,l),
(1112,1490,l),
(450,1490,l),
(247,786,l),
(315,774,l),
(395,844,o),
(507,894,o),
(625,894,cs),
(838,894,o),
(987,727,o),
(943,462,cs),
(903,215,o),
(702,26,o),
(467,26,cs),
(259,26,o),
(153,169,o),
(187,372,c),
(141,372,l),
(103,143,o),
(237,-20,o),
(468,-20,cs)
);
}
);
width = 1152;
},
{
layerId = m012;
name = ital_gen;
shapes = (
{
closed = 1;
nodes = (
(687,-20,o),
(921,184,o),
(967,459,cs),
(1013,738,o),
(848,940,o),
(572,940,cs),
(400,940,o),
(260,860,o),
(190,785,c),
(190,784,l),
(357,1444,l),
(1105,1444,l),
(1112,1490,l),
(322,1490,l),
(119,688,l),
(162,688,l),
(235,815,o),
(405,894,o),
(572,894,cs),
(818,894,o),
(963,717,o),
(922,465,cs),
(880,217,o),
(668,26,o),
(407,26,cs),
(176,26,o),
(50,170,o),
(84,372,c),
(38,372,l),
(1,145,o),
(148,-20,o),
(405,-20,cs)
);
}
);
width = 1042;
},
{
background = {
shapes = (
{
ref = three;
}
);
};
guides = (
{
angle = 80.6;
pos = (1436,1656);
}
);
layerId = "11F4534A-B963-4AB5-820F-DAF9A20CD933";
name = ital_gen;
shapes = (
{
closed = 1;
nodes = (
(816,-20,o),
(1059,189,o),
(1107,474,cs),
(1156,765,o),
(988,975,o),
(716,975,cs),
(613,975,o),
(508,939,o),
(439,888,c),
(431,888,l),
(555,1323,l),
(1179,1323,l),
(1207,1490,l),
(423,1490,l),
(212,752,l),
(386,730,l),
(454,776,o),
(572,808,o),
(662,808,cs),
(844,808,o),
(953,671,o),
(922,476,cs),
(891,281,o),
(725,147,o),
(548,147,cs),
(395,147,o),
(301,245,o),
(311,376,c),
(127,376,l),
(99,148,o),
(268,-20,o),
(530,-20,cs)
);
}
);
width = 1242;
},
{
background = {
shapes = (
{
pos = (-20,0);
ref = six;
}
);
};
layerId = m008;
name = ital_gen;
shapes = (
{
closed = 1;
nodes = (
(816,-20,o),
(1034,190,o),
(1084,490,cs),
(1133,785,o),
(963,996,o),
(689,996,cs),
(549,996,o),
(441,948,o),
(330,847,c),
(328,847,l),
(444,1330,l),
(1141,1330,l),
(1168,1490,l),
(308,1490,l),
(117,640,l),
(290,640,l),
(357,767,o),
(500,834,o),
(664,834,cs),
(849,834,o),
(943,689,o),
(910,488,cs),
(876,286,o),
(713,140,o),
(520,140,cs),
(338,140,o),
(232,263,o),
(244,432,c),
(64,432,l),
(32,174,o),
(231,-20,o),
(518,-20,cs)
);
}
);
width = 1180;
},
{
background = {
shapes = (
{
pos = (29,0);
ref = three;
}
);
};
guides = (
{
pos = (-51,2280);
},
{
pos = (-51,2396);
}
);
layerId = "D0EC06BF-13F9-4C88-A6F5-B8203AF6C77E";
name = ital_gen;
shapes = (
{
closed = 1;
nodes = (
(979,-20,o),
(1235,200,o),
(1287,512,cs),
(1334,795,o),
(1154,994,o),
(889,994,cs),
(738,994,o),
(621,928,o),
(559,838,c),
(551,838,l),
(633,1166,l),
(1303,1166,l),
(1357,1490,l),
(355,1490,l),
(161,670,l),
(505,600,l),
(551,672,o),
(644,716,o),
(731,716,cs),
(854,716,o),
(916,631,o),
(895,500,cs),
(873,370,o),
(766,286,o),
(643,286,cs),
(535,286,o),
(464,351,o),
(481,454,c),
(87,454,l),
(44,176,o),
(273,-20,o),
(617,-20,cs)
);
}
);
width = 1365;
},
{
guides = (
{
pos = (-200,2280);
},
{
pos = (-200,2396);
}
);
layerId = m010;
name = ital_gen;
shapes = (
{
closed = 1;
nodes = (
(914,-24,o),
(1171,200,o),
(1223,512,cs),
(1275,828,o),
(1064,1017,o),
(775,1017,cs),
(665,1017,o),
(583,985,o),
(512,925,c),
(510,925,l),
(569,1166,l),
(1239,1166,l),
(1293,1490,l),
(259,1490,l),
(69,600,l),
(441,600,l),
(477,674,o),
(568,724,o),
(671,724,cs),
(791,724,o),
(852,631,o),
(831,500,cs),
(809,370,o),
(704,282,o),
(582,282,cs),
(462,282,o),
(394,366,o),
(412,480,c),
(27,480,l),
(-5,166,o),
(208,-24,o),
(552,-24,cs)
);
}
);
width = 1266;
}
);
metricRight = zero;
unicode = 53;
}
{
glyphname = six;
kernLeft = six;
layers = (
{
layerId = "200BE2C5-40F6-4CF4-AF4F-A33C0CC0964F";
name = ital_gen;
shapes = (
{
closed = 1;
nodes = (
(744,-20,o),
(948,198,o),
(989,446,cs),
(1033,710,o),
(873,910,o),
(640,910,cs),
(467,910,o),
(287,803,o),
(215,654,c),
(209,654,l),
(296,1177,o),
(482,1464,o),
(753,1464,cs),
(949,1464,o),
(1048,1321,o),
(1028,1118,c),
(1074,1118,l),
(1098,1350,o),
(983,1510,o),
(761,1510,cs),
(403,1510,o),
(233,1076,o),
(167,674,cs),
(89,207,o),
(241,-20,o),
(494,-20,cs)
);
},
{
closed = 1;
nodes = (
(317,26,o),
(201,163,o),
(195,424,cs),
(190,658,o),
(401,864,o),
(628,864,cs),
(844,864,o),
(982,681,o),
(943,446,cs),
(905,215,o),
(716,26,o),
(501,26,cs)
);
}
);
width = 1156;
},
{
background = {
shapes = (
{
closed = 1;
nodes = (
(772,-20,o),
(940,198,o),
(940,446,cs),
(940,710,o),
(747,910,o),
(514,910,cs),
(341,910,o),
(179,803,o),
(132,654,c),
(126,654,l),
(126,1177,o),
(265,1464,o),
(536,1464,cs),
(732,1464,o),
(854,1321,o),
(868,1118,c),
(914,1118,l),
(900,1350,o),
(758,1510,o),
(536,1510,cs),
(178,1510,o),
(80,1076,o),
(80,674,cs),
(80,207,o),
(269,-20,o),
(522,-20,cs)
);
},
{
closed = 1;
nodes = (
(338,26,o),
(199,163,o),
(150,424,cs),
(106,658,o),
(283,864,o),
(510,864,cs),
(726,864,o),
(894,681,o),
(894,446,cs),
(894,215,o),
(737,26,o),
(522,26,cs)
);
}
);
};
layerId = m012;
name = ital_gen;
shapes = (
{
closed = 1;
nodes = (
(681,-16,o),
(885,202,o),
(926,450,cs),
(970,714,o),
(810,914,o),
(577,914,cs),
(404,914,o),
(219,806,o),
(147,647,c),
(145,647,l),
(229,1176,o),
(427,1460,o),
(698,1460,cs),
(884,1460,o),
(974,1339,o),
(967,1152,c),
(1014,1152,l),
(1024,1366,o),
(908,1506,o),
(697,1506,cs),
(339,1506,o),
(171,1080,o),
(104,678,cs),
(27,211,o),
(178,-16,o),
(431,-16,cs)
);
},
{
closed = 1;
nodes = (
(247,30,o),
(139,167,o),
(133,428,cs),
(128,662,o),
(347,868,o),
(574,868,cs),
(790,868,o),
(919,685,o),
(880,450,cs),
(842,219,o),
(646,30,o),
(431,30,cs)
);
}
);
width = 1028;
},
{
layerId = "11F4534A-B963-4AB5-820F-DAF9A20CD933";
name = ital_gen;
shapes = (
{
closed = 1;
nodes = (
(846,-20,o),
(1079,203,o),
(1124,480,cs),
(1172,768,o),
(993,974,o),
(738,974,cs),
(584,974,o),
(440.994,900,o),
(339,776,c),
(327,776,l),
(388,1140,o),
(563,1350,o),
(794,1350,cs),
(951,1350,o),
(1030,1251,o),
(1042,1118,c),
(1218,1118,l),
(1220,1348,o),
(1071,1510,o),
(821,1510,cs),
(486,1510,o),
(230,1213,o),
(143,686,cs),
(52,136,o),
(300,-20,o),
(544,-20,cs)
);
},
{
closed = 1;
nodes = (
(384,140,o),
(274,299,o),
(304,478,cs),
(333,655,o),
(504,814,o),
(688,814,cs),
(871,814,o),
(981,665,o),
(950,480,cs),
(919,291,o),
(753,140,o),
(570,140,cs)
);
}
);
width = 1259;
},
{
layerId = m008;
name = ital_gen;
shapes = (
{
closed = 1;
nodes = (
(817,-24,o),
(1048,182,o),
(1097,476,cs),
(1144,759,o),
(972,970,o),
(703,970,cs),
(543,970,o),
(392,895,o),
(305,780,c),
(303,780,l),
(358,1113,o),
(521,1354,o),
(779,1354,cs),
(930,1354,o),
(1011,1262,o),
(1015,1118,c),
(1191,1118,l),
(1202,1355,o),
(1046,1514,o),
(787,1514,cs),
(413,1514,o),
(198,1183,o),
(115,682,cs),
(40,232,o),
(194,-24,o),
(524,-24,cs)
);
},
{
closed = 1;
nodes = (
(365,136,o),
(246,287,o),
(276,474,cs),
(307,660,o),
(479,810,o),
(660,810,cs),
(839,810,o),
(954,664,o),
(923,476,cs),
(892,287,o),
(723,136,o),
(543,136,cs)
);
}
);
width = 1196;
},
{
background = {
shapes = (
{
pos = (58,0);
ref = five;
}
);
};
layerId = "D0EC06BF-13F9-4C88-A6F5-B8203AF6C77E";
name = ital_gen;
shapes = (
{
closed = 1;
nodes = (
(991,-20,o),
(1271,191,o),
(1324,512,cs),
(1369,785,o),
(1221,984,o),
(950,984,cs),
(781,984,o),
(613,902,o),
(534,766,c),
(526,766,l),
(566,1006,o),
(668,1166,o),
(838,1166,cs),
(923,1166,o),
(992,1129,o),
(996,1044,c),
(1394,1044,l),
(1411,1299,o),
(1224,1510,o),
(895,1510,cs),
(505,1510,o),
(197,1210,o),
(118,728,cs),
(28,186,o),
(292,-20,o),
(640,-20,cs)
);
},
{
closed = 1;
nodes = (
(569,286,o),
(495,375,o),
(515,498,cs),
(536,620,o),
(640,710,o),
(757,710,cs),
(878,710,o),
(950,620,o),
(929,498,cs),
(909,375,o),
(807,286,o),
(686,286,cs)
);
}
);
width = 1422;
},
{
layerId = m010;
name = ital_gen;
shapes = (
{
closed = 1;
nodes = (
(950,-24,o),
(1225,186,o),
(1276,498,cs),
(1325,789,o),
(1132,1000,o),
(828,1000,cs),
(679,1000,o),
(567,950,o),
(471,838,c),
(469,838,l),
(507,1069,o),
(610,1210,o),
(785,1210,cs),
(898,1210,o),
(965,1150,o),
(967,1056,c),
(1349,1056,l),
(1366,1311,o),
(1172,1514,o),
(843,1514,cs),
(437,1514,o),
(152,1210,o),
(73,728,cs),
(-6,254,o),
(195,-24,o),
(602,-24,cs)
);
},
{
closed = 1;
nodes = (
(523,288,o),
(450,376,o),
(470,498,cs),
(491,620,o),
(592,708,o),
(711,708,cs),
(832,708,o),
(905,620,o),
(884,498,cs),
(864,376,o),
(763,288,o),
(642,288,cs)
);
}
);
width = 1321;
}
);
metricLeft = zero;
metricRight = zero;
unicode = 54;
}
{
glyphname = seven;
kernRight = seven;
layers = (
{
anchors = (
{
name = _center;
pos = (606.792,745);
}
);
layerId = "11F4534A-B963-4AB5-820F-DAF9A20CD933";
shapes = (
{
closed = 1;
nodes = (
(296,0,l),
(1178,1320,l),
(1208,1490,l),
(254,1490,l),
(226,1330,l),
(994,1330,l),
(992,1318,l),
(108,0,l)
);
}
);
width = 1152;
},
{
anchors = (
{
name = _center;
pos = (643.792,745);
}
);
layerId = "D0EC06BF-13F9-4C88-A6F5-B8203AF6C77E";
shapes = (
{
closed = 1;
nodes = (
(488,0,l),
(1272,1166,l),
(1324,1490,l),
(218,1490,l),
(166,1166,l),
(852,1166,l),
(850,1158,l),
(72,0,l)
);
}
);
width = 1228;
},
{
anchors = (
{
name = _center;
pos = (584.792,745);
}
);
layerId = "200BE2C5-40F6-4CF4-AF4F-A33C0CC0964F";
shapes = (
{
closed = 1;
nodes = (
(184,0,l),
(1128,1442,l),
(1138,1490,l),
(274,1490,l),
(264,1442,l),
(1074,1442,l),
(1074,1438,l),
(130,0,l)
);
}
);
width = 1112;
},
{
anchors = (
{
name = _center;
pos = (562.924,745);
}
);
layerId = m008;
name = ital_gen;
shapes = (
{
closed = 1;
nodes = (
(236.59,0,l),
(1119.115,1320,l),
(1147.258,1490,l),
(191.258,1490,l),
(164.77,1330,l),
(932.77,1330,l),
(930.784,1318,l),
(46.59,0,l)
);
}
);
width = 1054;
},
{
anchors = (
{
name = _center;
pos = (632.924,745);
}
);
layerId = m010;
name = ital_gen;
shapes = (
{
closed = 1;
nodes = (
(478.59,0,l),
(1259.62,1166,l),
(1313.258,1490,l),
(207.258,1490,l),
(151.303,1152,l),
(837.303,1152,l),
(836.971,1150,l),
(62.59,0,l)
);
}
);
width = 1194;
},
{
anchors = (
{
name = _center;
pos = (526.924,745);
}
);
layerId = m012;
name = ital_gen;
shapes = (
{
closed = 1;
nodes = (
(124.59,0,l),
(1071.312,1442,l),
(1079.258,1490,l),
(215.258,1490,l),
(207.312,1442,l),
(1015.312,1442,l),
(1014.65,1438,l),
(72.59,0,l)
);
}
);
width = 985;
}
);
metricRight = "=|T";
unicode = 55;
}
{
glyphname = eight;
kernLeft = eight;
kernRight = eight;
layers = (
{
layerId = "11F4534A-B963-4AB5-820F-DAF9A20CD933";
name = ital_gen;
shapes = (
{
closed = 1;
nodes = (
(837,-20,o),
(1066,153,o),
(1107,396,cs),
(1138,584,o),
(1036,744,o),
(881,774,c),
(882,782,l),
(1028,819,o),
(1143,956,o),
(1169,1114,cs),
(1207.001,1341,o),
(1035,1510,o),
(777,1510,cs),
(514,1510,o),
(305.001,1341,o),
(267,1114,cs),
(241,956,o),
(310,819,o),
(446,782,c),
(445,774,l),
(275,744,o),
(126,584,o),
(95,396,cs),
(54,153,o),
(239,-20,o),
(540,-20,cs)
);
},
{
closed = 1;
nodes = (
(345,140,o),
(245,244,o),
(272,404,cs),
(300,572,o),
(466,692,o),
(658,692,cs),
(846,692,o),
(958,572,o),
(930,404,cs),
(903,244,o),
(751,140,o),
(550,140,cs)
);
},
{
closed = 1;
nodes = (
(503,846,o),
(414,948,o),
(439,1102,cs),
(465,1254,o),
(599,1352,o),
(767,1352,cs),
(931,1352,o),
(1019,1254,o),
(993,1102,cs),
(968,948,o),
(826,846,o),
(667,846,cs)
);
}
);
width = 1256;
},
{
layerId = "D0EC06BF-13F9-4C88-A6F5-B8203AF6C77E";
name = ital_gen;
shapes = (
{
closed = 1;
nodes = (
(1004,-20,o),
(1274,163,o),
(1314,404,cs),
(1344,588,o),
(1214,736,o),
(1028,766,c),
(1029,776,l),
(1201,806,o),
(1348,939,o),
(1376,1106,cs),
(1415,1338,o),
(1177,1510,o),
(847,1510,cs),
(519,1510,o),
(273,1339,o),
(234,1106,cs),
(207,940,o),
(306,806,o),
(471,776,c),
(470,766,l),
(270,736,o),
(94,588,o),
(64,404,cs),
(24,163,o),
(282,-20,o),
(642,-20,cs)
);
},
{
closed = 1;
nodes = (
(551,258,o),
(481,336,o),
(498,440,cs),
(515,543,o),
(610,616,o),
(723,616,cs),
(838,616,o),
(909,542,o),
(892,440,cs),
(874,335,o),
(779,258,o),
(664,258,cs)
);
},
{
closed = 1;
nodes = (
(669,896,o),
(607,966,o),
(622,1058,cs),
(638,1152,o),
(723,1218,o),
(823,1218,cs),
(925,1218,o),
(988,1151,o),
(972,1058,cs),
(957,965,o),
(871,896,o),
(769,896,cs)
);
}
);
width = 1430;
},
{
layerId = "200BE2C5-40F6-4CF4-AF4F-A33C0CC0964F";
name = ital_gen;
shapes = (
{
closed = 1;
nodes = (
(771,-20,o),
(1007,160,o),
(1045,384,cs),
(1074,561,o),
(970,728,o),
(794,768,c),
(795,774,l),
(960,826,o),
(1091,969,o),
(1118,1132,cs),
(1154,1345,o),
(993,1510,o),
(767,1510,cs),
(539,1510,o),
(327,1343,o),
(292,1132,cs),
(265,968,o),
(352,827,o),
(497,774,c),
(496,768,l),
(306,726,o),
(148,561,o),
(119,384,cs),
(81,160,o),
(259,-20,o),
(514,-20,cs)
);
},
{
closed = 1;
nodes = (
(282,26,o),
(132,189,o),
(165,386,cs),
(198,585,o),
(417,748,o),
(649,748,cs),
(882,748,o),
(1030,585,o),
(997,386,cs),
(964,189,o),
(746,26,o),
(513,26,cs)
);
},
{
closed = 1;
nodes = (
(438,788,o),
(308,946,o),
(338,1132,cs),
(369,1318,o),
(566,1464,o),
(767,1464,cs),
(969,1464,o),
(1103,1318,o),
(1072,1132,cs),
(1042,946,o),
(841,788,o),
(639,788,cs)
);
}
);
width = 1222;
},
{
layerId = m008;
name = ital_gen;
shapes = (
{
closed = 1;
nodes = (
(807,-24,o),
(1038.998,151,o),
(1080,396,cs),
(1110,582,o),
(1007,736,o),
(849,773,c),
(849,775,l),
(991,811,o),
(1116,953,o),
(1142,1114,cs),
(1180,1344,o),
(1009,1514,o),
(751,1514,cs),
(491,1514,o),
(278,1344,o),
(240,1114,cs),
(214,952,o),
(286,815,o),
(419,779,c),
(419,777,l),
(249,747,o),
(99,584,o),
(68,396,cs),
(26.998,151,o),
(216,-24,o),
(512,-24,cs)
);
},
{
closed = 1;
nodes = (
(323,136,o),
(218,242,o),
(245,404,cs),
(273,573,o),
(433,692,o),
(631,692,cs),
(822,692,o),
(931,571,o),
(903,404,cs),
(876,241,o),
(722,136,o),
(523,136,cs)
);
},
{
closed = 1;
nodes = (
(475,846,o),
(387,950,o),
(412,1102,cs),
(438,1251,o),
(573,1356,o),
(740,1356,cs),
(905,1356,o),
(992,1254,o),
(966,1102,cs),
(941,949,o),
(804,846,o),
(640,846,cs)
);
}
);
width = 1192;
},
{
layerId = m010;
name = ital_gen;
shapes = (
{
closed = 1;
nodes = (
(953,-24,o),
(1210,146,o),
(1253,404,cs),
(1284,593,o),
(1174,738,o),
(975,770,c),
(976,772,l),
(1159,804,o),
(1295,935,o),
(1323,1106,cs),
(1364,1355,o),
(1152,1514,o),
(803,1514,cs),
(462,1514,o),
(221,1350,o),
(181,1106,cs),
(153,935,o),
(246,803,o),
(418,772,c),
(417,770,l),
(208,738,o),
(50,593,o),
(19,404,cs),
(-24,146,o),
(208,-24,o),
(580,-24,cs)
);
},
{
closed = 1;
nodes = (
(496,254,o),
(427,330,o),
(444,436,cs),
(462,541,o),
(556,616,o),
(670,616,cs),
(785,616,o),
(856,541,o),
(838,436,cs),
(821,331,o),
(724,254,o),
(610,254,cs)
);
},
{
closed = 1;
nodes = (
(612,907,o),
(554,969,o),
(570,1066,cs),
(587,1163,o),
(665,1225,o),
(771,1225,cs),
(878,1225,o),
(937,1163,o),
(920,1066,cs),
(904,969,o),
(825,907,o),
(718,907,cs)
);
}
);
width = 1314;
},
{
layerId = m012;
name = ital_gen;
shapes = (
{
closed = 1;
nodes = (
(712,-20,o),
(946,160,o),
(984,384,cs),
(1013,561,o),
(905,727,o),
(722,769,c),
(722,770,l),
(903,822,o),
(1032,969,o),
(1059,1132,cs),
(1095,1345,o),
(934,1510,o),
(708,1510,cs),
(480,1510,o),
(268,1343,o),
(233,1132,cs),
(206,968,o),
(287,823,o),
(448,770,c),
(448,769,l),
(250,727,o),
(89,561,o),
(60,384,cs),
(22,160,o),
(200,-20,o),
(455,-20,cs)
);
},
{
closed = 1;
nodes = (
(221,26,o),
(72,184,o),
(106,385,cs),
(139,587,o),
(356,745,o),
(589,745,cs),
(822,745,o),
(971,587,o),
(938,385,cs),
(904,184,o),
(687,26,o),
(454,26,cs)
);
},
{
closed = 1;
nodes = (
(376,791,o),
(248,941,o),
(280,1133,cs),
(310,1318,o),
(503,1464,o),
(708,1464,cs),
(914,1464,o),
(1044,1318,o),
(1014,1133,cs),
(982,941,o),
(787,791,o),
(581,791,cs)
);
}
);
width = 1092;
}
);
metricLeft = zero;
metricRight = zero;
note = "essentially two conjoined \"three\" glyphs";
unicode = 56;
}
{
glyphname = nine;
kernRight = nine;
layers = (
{
layerId = "11F4534A-B963-4AB5-820F-DAF9A20CD933";
name = ital_gen;
shapes = (
{
closed = 1;
nodes = (
(852,-20,o),
(1091,276,o),
(1178,806,cs),
(1269,1353,o),
(1005,1507,o),
(761,1510,cs),
(459,1513,o),
(242,1286,o),
(197,1012,cs),
(149,724,o),
(336,518,o),
(593,518,cs),
(746,518,o),
(881,593,o),
(984,716,c),
(996,716,l),
(935,349,o),
(749,140,o),
(520,140,cs),
(362,140,o),
(291,239,o),
(281,376,c),
(103,376,l),
(99,140,o),
(267,-20,o),
(518,-20,cs)
);
},
{
closed = 1;
nodes = (
(450,678,o),
(342,826,o),
(373,1012,cs),
(403,1199,o),
(567,1350,o),
(750,1350,cs),
(937,1350,o),
(1048.003,1190,o),
(1019,1016,cs),
(990,838,o),
(817,678,o),
(633,678,cs)
);
}
);
width = 1259;
},
{
layerId = "D0EC06BF-13F9-4C88-A6F5-B8203AF6C77E";
name = ital_gen;
shapes = (
{
closed = 1;
nodes = (
(1025,-24,o),
(1285,280,o),
(1365,762,cs),
(1455,1304,o),
(1176,1514,o),
(828,1514,cs),
(477,1514,o),
(212,1299,o),
(159,978,cs),
(114,705,o),
(262,506,o),
(533,506,cs),
(702,506,o),
(869,588,o),
(949,724,c),
(957,724,l),
(917,484,o),
(814,320,o),
(644,320,cs),
(559,320,o),
(491,361,o),
(487,446,c),
(89,446,l),
(72,191,o),
(306,-24,o),
(635,-24,cs)
);
},
{
closed = 1;
nodes = (
(606,780,o),
(533,869,o),
(553,992,cs),
(573,1114,o),
(677,1204,o),
(796,1204,cs),
(915,1204,o),
(987,1114,o),
(967,992,cs),
(947,870,o),
(845,780,o),
(726,780,cs)
);
}
);
width = 1421;
},
{
layerId = "200BE2C5-40F6-4CF4-AF4F-A33C0CC0964F";
name = ital_gen;
shapes = (
{
closed = 1;
nodes = (
(826,-20,o),
(985,416,o),
(1051,818,cs),
(1129,1286,o),
(970,1510,o),
(716,1510,cs),
(467,1510,o),
(270,1295,o),
(229,1048,cs),
(186,783,o),
(352,582,o),
(588,582,cs),
(759,582,o),
(932,689,o),
(1003,838,c),
(1009,838,l),
(922,314,o),
(735,26,o),
(464,26,cs),
(269,26,o),
(171,172,o),
(190,376,c),
(144,376,l),
(121,143,o),
(244,-20,o),
(465,-20,cs)
);
},
{
closed = 1;
nodes = (
(375,628,o),
(236,812,o),
(275,1048,cs),
(313,1277,o),
(501,1463,o),
(716,1464,cs),
(900,1463,o),
(1018,1329,o),
(1025,1068,cs),
(1029,835,o),
(817,628,o),
(590,628,cs)
);
}
);
width = 1156;
},
{
layerId = m008;
name = ital_gen;
shapes = (
{
closed = 1;
nodes = (
(858,-24,o),
(1069,307,o),
(1152,808,cs),
(1226,1258,o),
(1065,1514,o),
(735,1514,cs),
(442,1514,o),
(219,1312,o),
(171,1018,cs),
(124,735,o),
(304,528,o),
(573,528,cs),
(733,528,o),
(871,595,o),
(958,710,c),
(960,710,l),
(904,377,o),
(741,136,o),
(483,136,cs),
(332,136,o),
(248,228,o),
(244,372,c),
(68,372,l),
(56,135,o),
(225,-24,o),
(484,-24,cs)
);
},
{
closed = 1;
nodes = (
(429,688,o),
(313,830,o),
(345,1018,cs),
(376,1207,o),
(544,1354,o),
(724,1354,cs),
(902,1354,o),
(1022,1207,o),
(991,1020,cs),
(960,834,o),
(789,688,o),
(608,688,cs)
);
}
);
width = 1196;
},
{
layerId = m010;
name = ital_gen;
shapes = (
{
closed = 1;
nodes = (
(1013,-24,o),
(1241,280,o),
(1321,762,cs),
(1400,1236,o),
(1183,1514,o),
(776,1514,cs),
(428,1514,o),
(169,1304,o),
(117,992,cs),
(69,701,o),
(262,490,o),
(566,490,cs),
(715,490,o),
(826,540,o),
(923,652,c),
(925,652,l),
(887,421,o),
(775,280,o),
(600,280,cs),
(487,280,o),
(428,340,o),
(427,434,c),
(45,434,l),
(28,179,o),
(278,-24,o),
(607,-24,cs)
);
},
{
closed = 1;
nodes = (
(561,782,o),
(489,870,o),
(509,992,cs),
(529,1114,o),
(631,1202,o),
(752,1202,cs),
(871,1202,o),
(943,1114,o),
(923,992,cs),
(903,870,o),
(801,782,o),
(682,782,cs)
);
}
);
width = 1322;
},
{
layerId = m012;
name = ital_gen;
shapes = (
{
closed = 1;
nodes = (
(764,-16,o),
(925,410,o),
(991,812,cs),
(1069,1279,o),
(909,1506,o),
(656,1506,cs),
(406,1506,o),
(210,1288,o),
(169,1040,cs),
(125,776,o),
(293,576,o),
(526,576,cs),
(699,576,o),
(876,684,o),
(949,843,c),
(951,843,l),
(867,314,o),
(677,30,o),
(406,30,cs),
(220,30,o),
(122,151,o),
(128,338,c),
(82,338,l),
(72,124,o),
(195,-16,o),
(406,-16,cs)
);
},
{
closed = 1;
nodes = (
(314,622,o),
(176,805,o),
(215,1040,cs),
(253,1271,o),
(442,1460,o),
(657,1460,cs),
(841,1460,o),
(957,1323,o),
(963,1062,cs),
(968,828,o),
(757,622,o),
(530,622,cs)
);
}
);
width = 1028;
}
);
metricLeft = zero;
metricRight = zero;
note = "six mirrored";
unicode = 57;
}
{
glyphname = semicolon;
kernLeft = colon;
kernRight = colon;
layers = (
{
background = {
shapes = (
{
closed = 1;
nodes = (
(109,-354,l),
(356,208,l),
(158,208,l),
(-23,-354,l)
);
},
{
closed = 1;
nodes = (
(430,797,o),
(499,856,o),
(511,928,cs),
(523,1000,o),
(474,1059,o),
(402,1059,cs),
(330,1059,o),
(261,1000,o),
(249,928,cs),
(237,856,o),
(286,797,o),
(358,797,cs)
);
}
);
};
guides = (
{
angle = 80.6;
pos = (274,287);
}
);
layerId = "11F4534A-B963-4AB5-820F-DAF9A20CD933";
shapes = (
{
alignment = -1;
ref = comma;
},
{
pos = (160,809);
ref = period;
}
);
width = 612;
},
{
background = {
shapes = (
{
closed = 1;
nodes = (
(209,-426,l),
(527,240,l),
(147,240,l),
(-51,-426,l)
);
},
{
closed = 1;
nodes = (
(526,661,o),
(629,748,o),
(648,864,cs),
(668,980,o),
(593,1067,o),
(476,1067,cs),
(359,1067,o),
(256,980,o),
(236,864,cs),
(217,748,o),
(292,661,o),
(409,661,cs)
);
}
);
};
guides = (
{
angle = 80.6;
pos = (347,287);
}
);
layerId = "D0EC06BF-13F9-4C88-A6F5-B8203AF6C77E";
shapes = (
{
alignment = -1;
ref = comma;
},
{
pos = (121,685);
ref = period;
}
);
width = 778;
},
{
background = {
shapes = (
{
closed = 1;
nodes = (
(59,-298,l),
(243,152,l),
(193,152,l),
(18,-298,l)
);
},
{
closed = 1;
nodes = (
(380,955,o),
(408,979,o),
(412,1008,cs),
(417,1037,o),
(397,1061,o),
(368,1061,cs),
(339,1061,o),
(311,1037,o),
(306,1008,cs),
(302,979,o),
(322,955,o),
(351,955,cs)
);
}
);
};
guides = (
{
angle = 80.6;
pos = (240,287);
}
);
layerId = "200BE2C5-40F6-4CF4-AF4F-A33C0CC0964F";
shapes = (
{
alignment = -1;
ref = comma;
},
{
alignment = -1;
pos = (168,964);
ref = period;
}
);
width = 562;
},
{
background = {
shapes = (
{
closed = 1;
nodes = (
(38,-281,l),
(265,208,l),
(83,208,l),
(-86,-281,l)
);
},
{
closed = 1;
nodes = (
(330,772,o),
(391,824,o),
(402,888,cs),
(412,952,o),
(369,1004,o),
(305,1004,cs),
(241,1004,o),
(180,952,o),
(170,888,cs),
(159,824,o),
(202,772,o),
(266,772,cs)
);
}
);
};
guides = (
{
angle = 80.6;
pos = (186,287);
}
);
layerId = m008;
shapes = (
{
alignment = -1;
ref = comma;
},
{
pos = (134,784);
ref = period;
}
);
width = 444;
},
{
background = {
shapes = (
{
closed = 1;
nodes = (
(172,-338,l),
(429,272,l),
(59,272,l),
(-103,-338,l)
);
},
{
closed = 1;
nodes = (
(403,608,o),
(512,701,o),
(531,816,cs),
(550,931,o),
(472,1024,o),
(357,1024,cs),
(242,1024,o),
(134,931,o),
(115,816,cs),
(96,701,o),
(173,608,o),
(288,608,cs)
);
}
);
};
guides = (
{
angle = 80.6;
pos = (235,287);
}
);
layerId = m010;
shapes = (
{
alignment = -1;
ref = comma;
},
{
pos = (104,627);
ref = period;
}
);
width = 544;
},
{
background = {
shapes = (
{
closed = 1;
nodes = (
(-2,-274,l),
(166,160,l),
(116,160,l),
(-42,-274,l)
);
},
{
closed = 1;
nodes = (
(280,904,o),
(305,925,o),
(309,952,cs),
(314,979,o),
(296,1000,o),
(269,1000,cs),
(242,1000,o),
(218,979,o),
(213,952,cs),
(209,925,o),
(226,904,o),
(253,904,cs)
);
}
);
};
guides = (
{
angle = 80.6;
pos = (151,287);
}
);
layerId = m012;
shapes = (
{
alignment = -1;
ref = comma;
},
{
alignment = -1;
pos = (141,912);
ref = period;
}
);
width = 390;
}
);
metricLeft = comma;
metricRight = period;
unicode = 59;
userData = {
"interface.width-adjustments" = (
-16
);
};
}
{
glyphname = equal;
kernLeft = approxequal;
kernRight = approxequal;
layers = (
{
guides = (
{
pos = (406,896);
}
);
layerId = "11F4534A-B963-4AB5-820F-DAF9A20CD933";
shapes = (
{
closed = 1;
nodes = (
(1159,717,l),
(1186,883,l),
(282,883,l),
(255,717,l)
);
},
{
closed = 1;
nodes = (
(1086,283,l),
(1113,449,l),
(209,449,l),
(182,283,l)
);
}
);
width = 1356;
},
{
guides = (
{
pos = (724,896);
}
);
layerId = "D0EC06BF-13F9-4C88-A6F5-B8203AF6C77E";
shapes = (
{
closed = 1;
nodes = (
(1272,702,l),
(1326,1026,l),
(250,1026,l),
(194,702,l)
);
},
{
closed = 1;
nodes = (
(1186,184,l),
(1240,510,l),
(162,510,l),
(110,184,l)
);
}
);
width = 1420;
},
{
layerId = "200BE2C5-40F6-4CF4-AF4F-A33C0CC0964F";
shapes = (
{
closed = 1;
nodes = (
(1030,754,l),
(1038,800,l),
(346,800,l),
(338,754,l)
);
},
{
closed = 1;
nodes = (
(966,364,l),
(974,410,l),
(282,410,l),
(274,364,l)
);
}
);
width = 1304;
},
{
background = {
shapes = (
{
ref = plus;
}
);
};
guides = (
{
angle = -9.4;
pos = (-24,800);
}
);
layerId = m008;
name = ital_gen;
shapes = (
{
closed = 1;
nodes = (
(1121.454,718,l),
(1147.611,876,l),
(251.611,876,l),
(225.454,718,l)
);
},
{
closed = 1;
nodes = (
(1050.268,288,l),
(1076.425,446,l),
(180.425,446,l),
(154.268,288,l)
);
}
);
width = 1287;
},
{
guides = (
{
orientation = center;
angle = -9.4;
pos = (-3182,832);
}
);
layerId = m010;
name = ital_gen;
shapes = (
{
closed = 1;
nodes = (
(1260.806,702,l),
(1314.443,1026,l),
(238.443,1026,l),
(184.806,702,l)
);
},
{
closed = 1;
nodes = (
(1175.051,184,l),
(1229.02,510,l),
(153.02,510,l),
(99.051,184,l)
);
}
);
width = 1388;
},
{
guides = (
{
angle = -9.4;
pos = (140,800);
}
);
layerId = m012;
name = ital_gen;
shapes = (
{
closed = 1;
nodes = (
(971.414,754,l),
(979.029,800,l),
(287.029,800,l),
(279.414,754,l)
);
},
{
closed = 1;
nodes = (
(906.85,364,l),
(914.465,410,l),
(222.465,410,l),
(214.85,364,l)
);
}
);
width = 1176;
}
);
metricWidth = plus;
unicode = 61;
userData = {
com.typemytype.robofont.guideline.magnetic.7d4CjnlrzW = 5;
interface.gridadjust.original = "{'width': 1664, 'leftMargin': 256, 'rightMargin': 256}";
"interface.width-adjustments" = (
-16
);
};
}
{
glyphname = greater;
layers = (
{
anchors = (
{
name = _center;
pos = (677.808,582);
}
);
guides = (
{
pos = (264,800);
}
);
layerId = "11F4534A-B963-4AB5-820F-DAF9A20CD933";
shapes = (
{
closed = 1;
nodes = (
(1188,640,l),
(330,1118,l),
(302,930,l),
(962,584,l),
(956,596,l),
(954,568,l),
(958,578,l),
(186,232,l),
(154,46,l),
(1168,524,l)
);
}
);
width = 1349;
},
{
anchors = (
{
name = _center;
pos = (717.781,606);
}
);
guides = (
{
pos = (-586,248);
},
{
pos = (1622,896);
}
);
layerId = "D0EC06BF-13F9-4C88-A6F5-B8203AF6C77E";
shapes = (
{
closed = 1;
nodes = (
(1298,780,l),
(286,1214,l),
(226,846,l),
(876,608,l),
(868,626,l),
(860,584,l),
(874,602,l),
(146,364,l),
(86,-2,l),
(1240,430,l)
);
}
);
width = 1421;
},
{
anchors = (
{
name = _center;
pos = (654.642,581);
}
);
layerId = "200BE2C5-40F6-4CF4-AF4F-A33C0CC0964F";
shapes = (
{
closed = 1;
nodes = (
(1097,606,l),
(385,1122,l),
(377,1068,l),
(1049,578,l),
(1043,594,l),
(1039,570,l),
(1049,584,l),
(217,96,l),
(207,40,l),
(1089,558,l)
);
}
);
width = 1303;
},
{
anchors = (
{
name = _center;
pos = (651.94,582);
}
);
guides = (
{
angle = -9.4;
pos = (0,800);
}
);
layerId = m008;
name = ital_gen;
shapes = (
{
closed = 1;
nodes = (
(1154.541,640,l),
(295.674,1118,l),
(264.551,930,l),
(927.271,584,l),
(923.257,596,l),
(918.622,568,l),
(926.277,578,l),
(148.998,232,l),
(118.205,46,l),
(1135.338,524,l)
);
}
);
width = 1286;
},
{
anchors = (
{
name = _center;
pos = (707,606);
}
);
guides = (
{
orientation = center;
angle = -9.4;
pos = (-5253,832);
}
);
layerId = m010;
name = ital_gen;
shapes = (
{
closed = 1;
nodes = (
(1286,780,l),
(276,1214,l),
(215,846,l),
(865,608,l),
(856,626,l),
(849,584,l),
(864,602,l),
(135,364,l),
(74,-2,l),
(1228,430,l)
);
}
);
width = 1388;
},
{
anchors = (
{
name = _center;
pos = (587,581);
}
);
guides = (
{
angle = -9.4;
pos = (162,800);
}
);
layerId = m012;
name = ital_gen;
shapes = (
{
closed = 1;
nodes = (
(1021,606,l),
(310,1122,l),
(301,1068,l),
(972,578,l),
(967,594,l),
(963,570,l),
(973,584,l),
(140,96,l),
(131,40,l),
(1013,558,l)
);
}
);
width = 1176;
}
);
metricLeft = "=|less";
metricRight = "=|less";
unicode = 62;
userData = {
"interface.width-adjustments" = (
-16
);
};
}
{
glyphname = question;
layers = (
{
anchors = (
{
name = _center;
pos = (549.792,745);
}
);
layerId = "11F4534A-B963-4AB5-820F-DAF9A20CD933";
shapes = (
{
closed = 1;
nodes = (
(538,448,l),
(539,458,ls),
(569,638,o),
(626,687,o),
(768,766,cs),
(908,844,o),
(1002,956,o),
(1029,1118,cs),
(1066,1344,o),
(928,1510,o),
(671,1510,cs),
(436,1510,o),
(225,1364,o),
(175,1118,c),
(357,1118,l),
(397,1289,o),
(528,1358,o),
(646,1358,cs),
(784,1358,o),
(879,1268,o),
(856,1126,cs),
(837,1010,o),
(757,927,o),
(662,876,cs),
(506,789,o),
(411,735,o),
(365,458,cs),
(364,448,l)
);
},
{
closed = 1;
nodes = (
(448,-12,o),
(517,47,o),
(529,119,cs),
(541,191,o),
(492,250,o),
(420,250,cs),
(348,250,o),
(279,191,o),
(267,119,cs),
(255,47,o),
(304,-12,o),
(376,-12,cs)
);
}
);
width = 1038;
},
{
anchors = (
{
name = _center;
pos = (645.792,745);
}
);
guides = (
{
pos = (1508,2352);
}
);
layerId = "D0EC06BF-13F9-4C88-A6F5-B8203AF6C77E";
shapes = (
{
closed = 1;
nodes = (
(723,466,l),
(728,500,ls),
(747,616,o),
(812,674,o),
(927,736,cs),
(1084,819,o),
(1198,923,o),
(1228,1100,cs),
(1273,1373,o),
(1064,1510,o),
(753,1510,cs),
(470,1510,o),
(211,1376,o),
(158,1056,c),
(530,1056,l),
(544,1140,o),
(621,1198,o),
(700,1198,cs),
(772,1198,o),
(822,1149,o),
(810,1076,cs),
(796,995,o),
(718,945,o),
(616,884,cs),
(495,814,o),
(426,740,o),
(386,500,cs),
(381,466,l)
);
},
{
closed = 1;
nodes = (
(600,-24,o),
(697,52,o),
(717,175,cs),
(738,298,o),
(666,374,o),
(536,374,cs),
(406,374,o),
(310,298,o),
(289,175,cs),
(269,52,o),
(340,-24,o),
(470,-24,cs)
);
}
);
width = 1230;
},
{
anchors = (
{
name = _center;
pos = (520.792,745);
}
);
layerId = "200BE2C5-40F6-4CF4-AF4F-A33C0CC0964F";
shapes = (
{
closed = 1;
nodes = (
(453,442,l),
(470,544,ls),
(490,662,o),
(537,723,o),
(692,824,cs),
(870,937,o),
(941,1021,o),
(961,1144,cs),
(996,1354,o),
(857,1510,o),
(644,1510,cs),
(421,1510,o),
(226,1341,o),
(189,1118,c),
(235,1118,l),
(267,1315,o),
(450,1464,o),
(648,1464,cs),
(835,1464,o),
(946,1333,o),
(915,1148,cs),
(898,1043,o),
(833,966,o),
(668,863,cs),
(502,757,o),
(445,678,o),
(423,544,cs),
(406,442,l)
);
},
{
closed = 1;
nodes = (
(386,-9,o),
(414,15,o),
(419,44,cs),
(424,73,o),
(404,97,o),
(375,97,cs),
(346,97,o),
(318,73,o),
(313,44,cs),
(308,15,o),
(328,-9,o),
(357,-9,cs)
);
}
);
width = 980;
},
{
anchors = (
{
name = _center;
pos = (571.924,745);
}
);
guides = (
{
angle = 80.6;
pos = (508,400);
}
);
layerId = m008;
name = ital_gen;
shapes = (
{
closed = 1;
nodes = (
(579.107,432,l),
(589.702,496,ls),
(611.72,629,o),
(658.011,667,o),
(807.407,760,cs),
(962.3,856,o),
(1058.159,982,o),
(1081.998,1126,cs),
(1119.743,1354,o),
(962.231,1514,o),
(699.231,1514,cs),
(416.231,1514,o),
(196.605,1329,o),
(150.417,1050,c),
(329.417,1050,l),
(361.367,1243,o),
(488.075,1356,o),
(673.075,1356,cs),
(842.075,1356,o),
(931.506,1268,o),
(907.998,1126,cs),
(893.43,1038,o),
(840.027,951,o),
(713.452,869,cs),
(561.063,770,o),
(454.938,733,o),
(418.351,512,cs),
(405.107,432,l)
);
},
{
closed = 1;
nodes = (
(484.604,-12,o),
(545.212,40,o),
(555.807,104,cs),
(566.402,168,o),
(523.011,220,o),
(459.011,220,cs),
(395.011,220,o),
(334.402,168,o),
(323.807,104,cs),
(313.212,40,o),
(356.604,-12,o),
(420.604,-12,cs)
);
}
);
width = 1073;
},
{
anchors = (
{
name = _center;
pos = (654.924,745);
}
);
guides = (
{
angle = -9.4;
pos = (-104,2352);
},
{
angle = 80.6;
pos = (587,448);
}
);
layerId = m010;
name = ital_gen;
shapes = (
{
closed = 1;
nodes = (
(752.702,496,l),
(754.689,508,ls),
(771.409,609,o),
(875.342,669,o),
(1004.759,744,cs),
(1146.334,826,o),
(1227.034,945,o),
(1252.694,1100,cs),
(1292.426,1340,o),
(1099.569,1510,o),
(782.569,1510,cs),
(448.569,1510,o),
(192.135,1302,o),
(145.119,1018,c),
(517.119,1018,l),
(534.998,1126,o),
(617.918,1198,o),
(724.918,1198,cs),
(820.918,1198,o),
(876.985,1138,o),
(862.748,1052,cs),
(851.159,982,o),
(797.895,920,o),
(698.445,875,cs),
(511.374,790,o),
(446.13,710,o),
(416.331,530,cs),
(410.702,496,l)
);
},
{
closed = 1;
nodes = (
(621.445,-19,o),
(725.179,70,o),
(744.879,189,cs),
(764.579,308,o),
(690.313,397,o),
(571.313,397,cs),
(452.313,397,o),
(348.579,308,o),
(328.879,189,cs),
(309.179,70,o),
(383.445,-19,o),
(502.445,-19,cs)
);
}
);
width = 1238;
},
{
anchors = (
{
name = _center;
pos = (495.924,745);
}
);
guides = (
{
angle = 80.6;
pos = (416,391);
}
);
layerId = m012;
name = ital_gen;
shapes = (
{
closed = 1;
nodes = (
(425.763,442,l),
(442.649,544,ls),
(462.184,662,o),
(510.282,723,o),
(665.002,824,cs),
(842.71,937,o),
(913.947,1023,o),
(934.309,1146,cs),
(969.075,1356,o),
(829.569,1510,o),
(616.569,1510,cs),
(393.569,1510,o),
(198.591,1341,o),
(161.674,1118,c),
(207.674,1118,l),
(240.287,1315,o),
(410.954,1464,o),
(608.954,1464,cs),
(795.954,1464,o),
(918.936,1331,o),
(888.309,1146,cs),
(870.927,1041,o),
(810.345,965,o),
(645.293,862,cs),
(478.745,756,o),
(416.832,678,o),
(394.649,544,cs),
(377.763,442,l)
);
},
{
closed = 1;
nodes = (
(354.266,-8,o),
(378.742,13,o),
(383.212,40,cs),
(387.682,67,o),
(370.158,88,o),
(343.158,88,cs),
(316.158,88,o),
(291.682,67,o),
(287.212,40,cs),
(282.742,13,o),
(300.266,-8,o),
(327.266,-8,cs)
);
}
);
width = 920;
}
);
unicode = 63;
userData = {
"interface.width-adjustments" = (
-16
);
};
}
{
glyphname = at;
kernLeft = C;
kernRight = D;
layers = (
{
layerId = "11F4534A-B963-4AB5-820F-DAF9A20CD933";
name = ital_gen;
shapes = (
{
closed = 1;
nodes = (
(1046,-392,o),
(1226,-349,o),
(1321,-312,c),
(1304,-178,l),
(1249,-195,o),
(1062,-254,o),
(903,-254,cs),
(405,-254,o),
(193,26,o),
(275,520,cs),
(356,1007,o),
(675,1298,o),
(1132,1298,cs),
(1595,1298,o),
(1758,972,o),
(1704,646,cs),
(1649,314,o),
(1586,166,o),
(1438,166,cs),
(1350,166,o),
(1321,239,o),
(1334,320,cs),
(1443,978,l),
(1289,978,l),
(1275,896,l),
(1265,896,l),
(1239,942,o),
(1156,1002,o),
(1025,1002,cs),
(787,1002,o),
(588,802,o),
(544,536,cs),
(497,254,o),
(605,38,o),
(870,38,cs),
(1024,38,o),
(1128,116,o),
(1176,198,c),
(1184,198,l),
(1182,95,o),
(1274,30,o),
(1424,30,cs),
(1733,30,o),
(1809,361,o),
(1855,642,cs),
(1921,1041,o),
(1691,1434,o),
(1146,1434,cs),
(585,1434,o),
(210,1094,o),
(116,526,cs),
(19,-61,o),
(304,-392,o),
(898,-392,cs)
);
},
{
closed = 1;
nodes = (
(704,186,o),
(664,358,o),
(695,544,cs),
(723,713,o),
(844,858,o),
(1009,858,cs),
(1184,858,o),
(1265,788,o),
(1225,544,cs),
(1185,303,o),
(1088,186,o),
(892,186,cs)
);
}
);
width = 1962;
},
{
layerId = "D0EC06BF-13F9-4C88-A6F5-B8203AF6C77E";
name = ital_gen;
shapes = (
{
closed = 1;
nodes = (
(1212,-426,o),
(1393,-369,o),
(1510,-312,c),
(1444,-47,l),
(1333,-94,o),
(1180,-124,o),
(1013,-124,cs),
(544,-124,o),
(342,112,o),
(415,554,cs),
(487,986,o),
(775,1244,o),
(1260,1244,cs),
(1695,1244,o),
(1883,1037,o),
(1810,596,cs),
(1777,393,o),
(1712,297,o),
(1602,297,cs),
(1560,297,o),
(1550,311,o),
(1559,363,cs),
(1672,1051,l),
(1424,1051,l),
(1405,933,l),
(1394,933,l),
(1367,1025,o),
(1267,1073,o),
(1134,1073,cs),
(859,1073,o),
(646,866,o),
(593,548,cs),
(542,236,o),
(690,46,o),
(970,46,cs),
(1132,46,o),
(1262,109,o),
(1318,221,c),
(1326,221,l),
(1327,112,o),
(1408,54,o),
(1561,54,cs),
(1850,54,o),
(2069,260,o),
(2131,635,cs),
(2224,1197,o),
(1851,1544,o),
(1248,1544,cs),
(580,1544,o),
(183,1118,o),
(87,538,cs),
(-14,-72,o),
(330,-426,o),
(959,-426,cs)
);
},
{
closed = 1;
nodes = (
(904,310,o),
(847,398,o),
(873,550,cs),
(898,701,o),
(998,781,o),
(1139,781,cs),
(1280,781,o),
(1337,700,o),
(1312,549,cs),
(1287,398,o),
(1185,310,o),
(1045,310,cs)
);
}
);
width = 2208;
},
{
layerId = "200BE2C5-40F6-4CF4-AF4F-A33C0CC0964F";
name = ital_gen;
shapes = (
{
closed = 1;
nodes = (
(1015,-396,o),
(1187,-343,o),
(1344,-244,c),
(1320,-206,l),
(1173,-300,o),
(1006,-350,o),
(846,-350,cs),
(398,-350,o),
(106,38,o),
(186,518,cs),
(265,998,o),
(701,1386,o),
(1149,1386,cs),
(1594,1386,o),
(1887,998,o),
(1808,518,cs),
(1768,279,o),
(1599,102,o),
(1421,102,cs),
(1334,102,o),
(1324,137,o),
(1348,280,cs),
(1465,986,l),
(1419,986,l),
(1381,754,l),
(1375,754,l),
(1329,902,o),
(1212,1000,o),
(1058,1000,cs),
(828,1000,o),
(609,785,o),
(565,518,cs),
(520,250,o),
(668,34,o),
(898,34,cs),
(1052,34,o),
(1202,134,o),
(1296,280,c),
(1302,280,l),
(1275,113,o),
(1305,56,o),
(1421,56,cs),
(1628,56,o),
(1810,253,o),
(1854,518,cs),
(1938,1024,o),
(1620,1432,o),
(1149,1432,cs),
(675,1432,o),
(224,1024,o),
(140,518,cs),
(56,15,o),
(372,-396,o),
(846,-396,cs)
);
},
{
closed = 1;
nodes = (
(696,80,o),
(571,276,o),
(611,518,cs),
(651,759,o),
(857,954,o),
(1058,954,cs),
(1258,954,o),
(1382,759,o),
(1342,518,cs),
(1302,275,o),
(1098,80,o),
(897,80,cs)
);
}
);
width = 2008;
},
{
layerId = m008;
name = ital_gen;
shapes = (
{
closed = 1;
nodes = (
(1077,-402,o),
(1260,-345,o),
(1347,-313,c),
(1319,-168,l),
(1224,-200,o),
(1058,-248,o),
(871,-248,cs),
(407,-248,o),
(181,51,o),
(260,527,cs),
(339,1004,o),
(696,1304,o),
(1160,1304,cs),
(1602,1304,o),
(1824,1019,o),
(1745,544,cs),
(1707,312,o),
(1596,188,o),
(1456,188,cs),
(1370,188,o),
(1353,241,o),
(1370,342,cs),
(1477,992,l),
(1317,992,l),
(1300,889,l),
(1299,889,l),
(1270,950,o),
(1193,1016,o),
(1058,1016,cs),
(819,1016,o),
(595,812,o),
(548,528,cs),
(506,271,o),
(624,41,o),
(887,41,cs),
(1044,41,o),
(1153,124,o),
(1204,220,c),
(1205,220,l),
(1207,158,o),
(1237,36,o),
(1436,36,cs),
(1687,36,o),
(1855,227,o),
(1908,552,cs),
(1999,1098,o),
(1691,1458,o),
(1169,1458,cs),
(626,1458,o),
(181,1074,o),
(90,527,cs),
(0,-18,o),
(318,-402,o),
(861,-402,cs)
);
},
{
closed = 1;
nodes = (
(747,192,o),
(682,311,o),
(718,528,cs),
(754,745,o),
(890,864,o),
(1059,864,cs),
(1230,864,o),
(1284,743,o),
(1248,528,cs),
(1213,313,o),
(1087,192,o),
(916,192,cs)
);
}
);
width = 1994;
},
{
layerId = m010;
name = ital_gen;
shapes = (
{
closed = 1;
nodes = (
(1195,-457,o),
(1370,-396,o),
(1472,-354,c),
(1380,-85,l),
(1286,-121,o),
(1127,-155,o),
(954,-155,cs),
(514,-155,o),
(297,107,o),
(366,527,cs),
(436,946,o),
(764,1211,o),
(1207,1211,cs),
(1617,1211,o),
(1830,983,o),
(1766,595,cs),
(1733,397,o),
(1643,262,o),
(1547,262,cs),
(1520,262,o),
(1495,273,o),
(1504,329,cs),
(1619,1019,l),
(1363,1019,l),
(1347,924,l),
(1345,924,l),
(1321,993,o),
(1217,1041,o),
(1084,1041,cs),
(838,1041,o),
(582,876,o),
(524,528,cs),
(471,207,o),
(631,-4,o),
(922,-4,cs),
(1087,-4,o),
(1202,65,o),
(1245,142,c),
(1247,142,l),
(1249,47,o),
(1361,-13,o),
(1517,-13,cs),
(1817,-13,o),
(2027,208,o),
(2092,597,cs),
(2183,1149,o),
(1835,1513,o),
(1217,1513,cs),
(582,1513,o),
(140,1129,o),
(40,526,cs),
(-60,-78,o),
(296,-457,o),
(938,-457,cs)
);
},
{
closed = 1;
nodes = (
(852,292,o),
(794,377,o),
(819,528,cs),
(845,680,o),
(947,765,o),
(1090,765,cs),
(1225,765,o),
(1279,680,o),
(1253,528,cs),
(1228,377,o),
(1131,292,o),
(995,292,cs)
);
}
);
width = 2121;
},
{
guides = (
{
orientation = center;
angle = 80.6;
pos = (-2958,1812);
}
);
layerId = m012;
name = ital_gen;
shapes = (
{
closed = 1;
nodes = (
(990,-385,o),
(1166,-334,o),
(1319,-246,c),
(1301,-208,l),
(1154,-292,o),
(982,-339,o),
(813,-339,cs),
(343,-339,o),
(49,40,o),
(129,528,cs),
(210,1016,o),
(646,1395,o),
(1116,1395,cs),
(1586,1395,o),
(1880,1016,o),
(1799,528,cs),
(1756,264,o),
(1608,100,o),
(1425,100,cs),
(1314,100,o),
(1285,157,o),
(1308,295,cs),
(1423,992,l),
(1377,992,l),
(1339,761,l),
(1338,761,l),
(1307,915,o),
(1208,1011,o),
(1036,1011,cs),
(790,1011,o),
(586,797,o),
(541,528,cs),
(497,259,o),
(630,45,o),
(876,45,cs),
(1048,45,o),
(1179,141,o),
(1261,295,c),
(1262,295,l),
(1235,133,o),
(1288,55,o),
(1425,55,cs),
(1636,55,o),
(1798,241,o),
(1845,528,cs),
(1929,1032,o),
(1621,1441,o),
(1116,1441,cs),
(610,1441,o),
(167,1032,o),
(83,528,cs),
(0,24,o),
(308,-385,o),
(813,-385,cs)
);
},
{
closed = 1;
nodes = (
(658,91,o),
(547,281,o),
(587,528,cs),
(628,775,o),
(819,965,o),
(1037,965,cs),
(1256,965,o),
(1341,779,o),
(1299,528,cs),
(1258,277,o),
(1096,91,o),
(876,91,cs)
);
}
);
width = 1928;
},
{
associatedMasterId = "D0EC06BF-13F9-4C88-A6F5-B8203AF6C77E";
layerId = "623D09E3-4CE7-4B38-B9EE-686902B7EE57";
name = "May 30, 23, 12:34";
shapes = (
{
closed = 1;
nodes = (
(1207,-454,o),
(1404,-401,o),
(1505,-340,c),
(1456,-78,l),
(1354,-119,o),
(1167,-152,o),
(994,-152,cs),
(536,-152,o),
(336,81,o),
(409,518,cs),
(470,887,o),
(748,1216,o),
(1250,1216,cs),
(1525,1216,o),
(1902,1155,o),
(1812,610,cs),
(1770,358,o),
(1688,242,o),
(1619,242,cs),
(1594,242,o),
(1575,256,o),
(1585,314,cs),
(1708,1058,l),
(1432,1058,l),
(1419,978,l),
(1407,978,l),
(1377,1030,o),
(1276,1082,o),
(1134,1082,cs),
(865,1082,o),
(588.007,888,o),
(525,510,cs),
(468,165,o),
(661,-45,o),
(951,-45,cs),
(1105,-45,o),
(1254,13,o),
(1299,96,c),
(1307,96,l),
(1308,21,o),
(1303,-55,o),
(1458,-55,cs),
(1825,-55,o),
(2056,185,o),
(2122,584,cs),
(2221,1181,o),
(1869,1516,o),
(1268,1516,cs),
(600,1516,o),
(179,1097,o),
(80,500,cs),
(-19,-99,o),
(325,-454,o),
(960,-454,cs)
);
},
{
closed = 1;
nodes = (
(863,256,o),
(823,384,o),
(845,518,cs),
(872,681,o),
(975,766,o),
(1134,766,cs),
(1324,766,o),
(1334,649,o),
(1313,520,cs),
(1285,352,o),
(1221,256,o),
(1053,256,cs)
);
}
);
width = 2208;
}
);
metricLeft = O;
metricRight = O;
unicode = 64;
userData = {
"interface.width-adjustments" = (
-16
);
};
}
{
glyphname = A;
kernLeft = A;
kernRight = A;
layers = (
{
anchors = (
{
name = bottom;
pos = (608,0);
},
{
name = ogonek;
pos = (1257,0);
},
{
name = tonos;
pos = (648,1490);
},
{
name = top;
pos = (855,1490);
}
);
layerId = "11F4534A-B963-4AB5-820F-DAF9A20CD933";
name = ital_gen;
shapes = (
{
closed = 1;
nodes = (
(149,0,l),
(612,898,ls),
(662,996,o),
(741,1154,o),
(853,1402,c),
(819,1402,l),
(851,1154,o),
(877,996,o),
(896,898,cs),
(1069,0,l),
(1257,0,l),
(954,1490,l),
(750,1490,l),
(-41,0,l)
);
},
{
closed = 1;
nodes = (
(1059,422,l),
(1085,582,l),
(323,582,l),
(297,422,l)
);
}
);
width = 1402;
},
{
anchors = (
{
name = bottom;
pos = (717,0);
},
{
name = ogonek;
pos = (1489,0);
},
{
name = tonos;
pos = (614,1490);
},
{
name = top;
pos = (964,1490);
}
);
guides = (
{
orientation = center;
angle = 80.6;
pos = (1020,964);
},
{
angle = 80.6;
pos = (810,1575);
}
);
layerId = "D0EC06BF-13F9-4C88-A6F5-B8203AF6C77E";
name = ital_gen;
shapes = (
{
closed = 1;
nodes = (
(405,0,l),
(666,578,ls),
(779,829,o),
(879,1104,o),
(979,1371,c),
(887,1371,l),
(902,1104,o),
(920,829,o),
(954,578,cs),
(1031,0,l),
(1489,0,l),
(1235,1490,l),
(683,1490,l),
(-47,0,l)
);
},
{
closed = 1;
nodes = (
(1178,286,l),
(1228,588,l),
(408,588,l),
(358,286,l)
);
}
);
width = 1628;
},
{
anchors = (
{
name = bottom;
pos = (562,0);
},
{
name = ogonek;
pos = (1151,0);
},
{
name = tonos;
pos = (680,1490);
},
{
name = top;
pos = (809,1490);
}
);
layerId = "200BE2C5-40F6-4CF4-AF4F-A33C0CC0964F";
name = ital_gen;
shapes = (
{
closed = 1;
nodes = (
(22,0,l),
(643,1154,ls),
(701,1261,o),
(757,1367,o),
(814,1474,c),
(796,1474,l),
(817,1367,o),
(839,1261,o),
(861,1154,cs),
(1102,0,l),
(1151,0,l),
(840,1490,l),
(777,1490,l),
(-27,0,l)
);
},
{
closed = 1;
nodes = (
(1014,496,l),
(1022,542,l),
(282,542,l),
(274,496,l)
);
}
);
width = 1310;
},
{
anchors = (
{
name = bottom;
pos = (585,0);
},
{
name = ogonek;
pos = (1231,0);
},
{
name = tonos;
pos = (635,1490);
},
{
name = top;
pos = (832,1490);
}
);
guides = (
{
orientation = center;
angle = 80.6;
pos = (-9554,144);
},
{
angle = 80.6;
pos = (673,1584);
}
);
layerId = m008;
name = ital_gen;
shapes = (
{
closed = 1;
nodes = (
(121,0,l),
(592,898,ls),
(654,1017,o),
(723,1154,o),
(843,1402,c),
(791,1402,l),
(829,1154,o),
(853,1017,o),
(875,898,cs),
(1039,0,l),
(1231,0,l),
(934,1490,l),
(730,1490,l),
(-67,0,l)
);
},
{
closed = 1;
nodes = (
(1016,418,l),
(1043,578,l),
(313,578,l),
(286,418,l)
);
}
);
width = 1338;
},
{
anchors = (
{
name = bottom;
pos = (696,0);
},
{
name = ogonek;
pos = (1478,0);
},
{
name = tonos;
pos = (590,1490);
},
{
name = top;
pos = (943,1490);
}
);
guides = (
{
angle = 80.6;
pos = (784,1575);
}
);
layerId = m010;
name = ital_gen;
shapes = (
{
closed = 1;
nodes = (
(368,0,l),
(637,578,ls),
(753,829,o),
(861,1067,o),
(971,1331,c),
(859,1331,l),
(880,1067,o),
(908,829,o),
(939,578,cs),
(1010,0,l),
(1478,0,l),
(1220,1490,l),
(660,1490,l),
(-87,0,l)
);
},
{
closed = 1;
nodes = (
(1146,245,l),
(1199,565,l),
(379,565,l),
(326,245,l)
);
}
);
width = 1565;
},
{
anchors = (
{
name = bottom;
pos = (522,0);
},
{
name = ogonek;
pos = (1111,0);
},
{
name = tonos;
pos = (640,1490);
},
{
name = top;
pos = (769,1490);
}
);
layerId = m012;
name = ital_gen;
shapes = (
{
closed = 1;
nodes = (
(-18,0,l),
(603,1154,ls),
(661,1261,o),
(717,1367,o),
(774,1474,c),
(756,1474,l),
(777,1367,o),
(799,1261,o),
(821,1154,cs),
(1062,0,l),
(1111,0,l),
(800,1490,l),
(737,1490,l),
(-67,0,l)
);
},
{
closed = 1;
nodes = (
(971,491,l),
(979,537,l),
(243,537,l),
(235,491,l)
);
}
);
width = 1218;
}
);
metricRight = "=|A";
unicode = 65;
userData = {
com.typemytype.robofont.guideline.magnetic.9EkLRXjahr = 5;
"interface.width-adjustments" = (
-16
);
};
}
{
glyphname = B;
kernLeft = B;
kernRight = B;
layers = (
{
anchors = (
{
name = bottom;
pos = (553,0);
},
{
name = cross;
pos = (316,419);
},
{
name = top;
pos = (792,1490);
},
{
name = topl;
pos = (334,1490);
}
);
layerId = "11F4534A-B963-4AB5-820F-DAF9A20CD933";
name = ital_gen;
shapes = (
{
closed = 1;
nodes = (
(625,0,ls),
(978,0,o),
(1151,172,o),
(1189,396,cs),
(1227,631,o),
(1086,759,o),
(950,768,c),
(952,782,l),
(1086,817,o),
(1214,902,o),
(1246,1094,cs),
(1282,1312,o),
(1166,1490,o),
(856,1490,cs),
(334,1490,l),
(87,0,l)
);
},
{
closed = 1;
nodes = (
(379,678,l),
(747,678,ls),
(941,678,o),
(1042,547,o),
(1017,396,cs),
(995,265,o),
(887,160,o),
(651,160,cs),
(293,160,l)
);
},
{
closed = 1;
nodes = (
(487,1330,l),
(829,1330,ls),
(1026,1330,o),
(1096,1225,o),
(1074,1094,cs),
(1048,937,o),
(903,834,o),
(741,834,cs),
(405,834,l)
);
}
);
width = 1332;
},
{
anchors = (
{
name = bottom;
pos = (571,0);
},
{
name = cross;
pos = (308,480);
},
{
name = top;
pos = (820,1490);
},
{
name = topl;
pos = (250,1490);
}
);
guides = (
{
orientation = center;
angle = 80.6;
pos = (760,716);
}
);
layerId = "D0EC06BF-13F9-4C88-A6F5-B8203AF6C77E";
name = ital_gen;
shapes = (
{
closed = 1;
nodes = (
(705,0,ls),
(1028,0,o),
(1256,177,o),
(1297,422,cs),
(1332,632,o),
(1200,769,o),
(1009,776,c),
(1012,792,l),
(1191,825,o),
(1327,953,o),
(1354,1118,cs),
(1391,1344,o),
(1236,1490,o),
(896,1490,cs),
(250,1490,l),
(3,0,l)
);
},
{
closed = 1;
nodes = (
(513,638,l),
(709,638,ls),
(831,638,o),
(897,579,o),
(879,474,cs),
(863,375,o),
(785,322,o),
(650,322,cs),
(460,322,l)
);
},
{
closed = 1;
nodes = (
(601,1172,l),
(773,1172,ls),
(873,1172,o),
(939,1121,o),
(924,1030,cs),
(908,938,o),
(826.007,888,o),
(720.007,888,cs),
(554.007,888,l)
);
}
);
width = 1368;
},
{
anchors = (
{
name = bottom;
pos = (545,0);
},
{
name = cross;
pos = (268,390);
},
{
name = top;
pos = (774,1490);
},
{
name = topl;
pos = (386,1490);
}
);
guides = (
{
orientation = center;
angle = 180;
pos = (944,1040);
}
);
layerId = "200BE2C5-40F6-4CF4-AF4F-A33C0CC0964F";
name = ital_gen;
shapes = (
{
closed = 1;
nodes = (
(655,0,ls),
(911,0,o),
(1085.998,151,o),
(1124,382,cs),
(1158,588,o),
(1048,740,o),
(902,754,c),
(903,760,l),
(1053,796,o),
(1158,936,o),
(1187,1112,cs),
(1226,1346,o),
(1102,1490,o),
(852,1490,cs),
(386,1490,l),
(139,0,l)
);
},
{
closed = 1;
nodes = (
(309,734,l),
(777,734,ls),
(987,734,o),
(1112,588,o),
(1078,382,cs),
(1045,180,o),
(881,46,o),
(663,46,cs),
(195,46,l)
);
},
{
closed = 1;
nodes = (
(426,1442,l),
(844,1442,ls),
(1061,1442,o),
(1176,1323,o),
(1141,1112,cs),
(1112,934,o),
(987,780,o),
(784,780,cs),
(316,780,l)
);
}
);
width = 1311;
},
{
anchors = (
{
name = bottom;
pos = (527,0);
},
{
name = cross;
pos = (254,419);
},
{
name = top;
pos = (766,1490);
},
{
name = topl;
pos = (308,1490);
}
);
layerId = m008;
name = ital_gen;
shapes = (
{
closed = 1;
nodes = (
(607,0,ls),
(960,0,o),
(1125,172,o),
(1163,396,cs),
(1202,632,o),
(1060,762,o),
(925,771,c),
(925,773,l),
(1059,808,o),
(1188,902,o),
(1220,1094,cs),
(1256,1312,o),
(1132,1490,o),
(822,1490,cs),
(308,1490,l),
(61,0,l)
);
},
{
closed = 1;
nodes = (
(353,678,l),
(721,678,ls),
(915,678,o),
(1016,547,o),
(991,396,cs),
(969,265,o),
(861,160,o),
(625,160,cs),
(267,160,l)
);
},
{
closed = 1;
nodes = (
(461,1330,l),
(811,1330,ls),
(1008,1330,o),
(1070,1225,o),
(1048,1094,cs),
(1022,937,o),
(877,834,o),
(715,834,cs),
(379,834,l)
);
}
);
width = 1269;
},
{
anchors = (
{
name = bottom;
pos = (561,0);
},
{
name = cross;
pos = (301,459);
},
{
name = top;
pos = (810,1490);
},
{
name = topl;
pos = (240,1490);
}
);
guides = (
{
orientation = center;
angle = 80.6;
pos = (-5381,716);
}
);
layerId = m010;
name = ital_gen;
shapes = (
{
closed = 1;
nodes = (
(711,0,ls),
(1034,0,o),
(1238,178,o),
(1279,422,cs),
(1314,632,o),
(1191,776,o),
(1001,783,c),
(1001,785,l),
(1179,818,o),
(1315,945,o),
(1344,1118,cs),
(1380,1335,o),
(1210,1490,o),
(870,1490,cs),
(240,1490,l),
(-7,0,l)
);
},
{
closed = 1;
nodes = (
(497,606,l),
(717,606,ls),
(818,606,o),
(874,548,o),
(859,459,cs),
(844,370,o),
(770,312,o),
(669,312,cs),
(449,312,l)
);
},
{
closed = 1;
nodes = (
(592,1178,l),
(787,1178,ls),
(879,1178,o),
(929,1123,o),
(915,1039,cs),
(901,955,o),
(833,900,o),
(741,900,cs),
(546,900,l)
);
}
);
width = 1329;
},
{
anchors = (
{
name = bottom;
pos = (485,0);
},
{
name = cross;
pos = (192,390);
},
{
name = top;
pos = (714,1490);
},
{
name = topl;
pos = (328,1490);
}
);
layerId = m012;
name = ital_gen;
shapes = (
{
closed = 1;
nodes = (
(592,0,ls),
(848,0,o),
(1025,147,o),
(1063,378,cs),
(1097,584,o),
(981,734,o),
(840,756,c),
(840,758,l),
(990,794,o),
(1098,936,o),
(1127,1112,cs),
(1166,1346,o),
(1042,1490,o),
(792,1490,cs),
(328,1490,l),
(81,0,l)
);
},
{
closed = 1;
nodes = (
(249,734,l),
(717,734,ls),
(927,734,o),
(1052,588,o),
(1018,382,cs),
(985,180,o),
(821,46,o),
(603,46,cs),
(135,46,l)
);
},
{
closed = 1;
nodes = (
(366,1444,l),
(784,1444,ls),
(1001,1444,o),
(1116,1328,o),
(1081,1117,cs),
(1052,939,o),
(927,780,o),
(724,780,cs),
(256,780,l)
);
}
);
width = 1182;
},
{
anchors = (
{
name = bottom;
pos = (527,0);
},
{
name = cross;
pos = (220,419);
},
{
name = top;
pos = (796,1676);
},
{
name = topl;
pos = (308,1490);
}
);
associatedMasterId = m008;
guides = (
{
angle = 80.6;
pos = (632,1772);
},
{
angle = 80.6;
pos = (1320,1340);
}
);
layerId = "008E653D-5D82-4295-90C7-D8BB40835FFD";
name = "Apr 27, 23, 12:36";
shapes = (
{
closed = 1;
nodes = (
(599,0,ls),
(952,0,o),
(1125.474,172,o),
(1162.557,396,cs),
(1201.461,631,o),
(1059.652,759,o),
(924.142,768,c),
(926.459,782,l),
(1060.253,817,o),
(1188.325,902,o),
(1220.111,1094,cs),
(1256.2,1312,o),
(1139.668,1490,o),
(829.668,1490,cs),
(307.668,1490,l),
(61,0,l)
);
},
{
closed = 1;
nodes = (
(353.242,678,l),
(721.242,678,ls),
(915.242,678,o),
(1015.555,547,o),
(990.557,396,cs),
(968.87,265,o),
(861.488,160,o),
(625.488,160,cs),
(267.488,160,l)
);
},
{
closed = 1;
nodes = (
(461.18,1330,l),
(803.18,1330,ls),
(1000.18,1330,o),
(1069.797,1225,o),
(1048.111,1094,cs),
(1022.119,937,o),
(877.068,834,o),
(715.068,834,cs),
(379.068,834,l)
);
}
);
width = 1269;
}
);
metricLeft = H;
unicode = 66;
userData = {
com.typemytype.robofont.guideline.magnetic.olHMUUD5VH = 5;
com.typemytype.robofont.guideline.magnetic.rWKPWS6RQH = 5;
"interface.width-adjustments" = (
-16
);
};
}
{
color = (219,235,247,1);
glyphname = C;
kernLeft = C;
kernRight = C;
layers = (
{
anchors = (
{
name = _center;
pos = (775.792,745);
},
{
name = cedilla;
pos = (697,-12);
},
{
name = center;
pos = (775.792,745);
},
{
name = top;
pos = (969,1676);
}
);
guides = (
{
angle = 90;
pos = (1613,1432);
},
{
angle = -99.4;
pos = (1065,692);
}
);
layerId = "11F4534A-B963-4AB5-820F-DAF9A20CD933";
shapes = (
{
closed = 1;
nodes = (
(990,-20,o),
(1258,160,o),
(1365,466,c),
(1185,466,l),
(1106,259,o),
(906,148,o),
(703,148,cs),
(437,148,o),
(263,352,o),
(327,734,c),
(391,1126,o),
(644,1341,o),
(921,1342,cs),
(1112,1341,o),
(1269,1231,o),
(1279,1024,c),
(1455,1024,l),
(1450,1329,o),
(1232,1510,o),
(929,1510,cs),
(551,1510,o),
(234,1222,o),
(155,756,c),
(77,279,o),
(309,-20,o),
(697,-20,cs)
);
}
);
width = 1491;
},
{
anchors = (
{
name = bottom_dd;
pos = (1250,-408);
},
{
name = cedilla;
pos = (686,-12);
},
{
name = top;
pos = (966,1676);
},
{
name = top0315;
pos = (1588,1632);
},
{
name = top_dd;
pos = (1582,1600);
}
);
associatedMasterId = "11F4534A-B963-4AB5-820F-DAF9A20CD933";
guides = (
{
angle = 90;
pos = (1392,1432);
}
);
layerId = "773773F7-3DB5-4147-B766-F86286931301";
name = "Sep 11 18, 23:27";
shapes = (
{
closed = 1;
nodes = (
(1452,1329,o),
(1236,1510,o),
(936,1510,cs),
(556,1510,o),
(230,1216,o),
(154,744,c),
(76,273,o),
(303,-20,o),
(684,-20,cs),
(983,-20,o),
(1257,160,o),
(1364,466,c),
(1184,466,l),
(1105,259,o),
(911,148,o),
(712,148,cs),
(442,148,o),
(265,358,o),
(328,744,c),
(393,1132,o),
(640,1341,o),
(910,1342,cs),
(1108,1341,o),
(1265,1231,o),
(1274,1024,c),
(1454,1024,l)
);
}
);
width = 1490;
},
{
anchors = (
{
name = _center;
pos = (816.792,745);
},
{
name = cedilla;
pos = (705,6);
},
{
name = center;
pos = (816.792,745);
},
{
name = top;
pos = (993,1676);
}
);
background = {
shapes = (
{
pos = (11,0);
ref = O;
}
);
};
guides = (
{
pos = (1623,1024);
},
{
pos = (-1391,0);
},
{
angle = -99.4;
pos = (935,584);
}
);
layerId = "D0EC06BF-13F9-4C88-A6F5-B8203AF6C77E";
shapes = (
{
closed = 1;
nodes = (
(1160,-20,o),
(1419,285,o),
(1481,538,c),
(1073,538,l),
(1032,413,o),
(919,332,o),
(757,332,cs),
(573,332,o),
(491,460,o),
(533,722,c),
(579,992,o),
(727,1158,o),
(941,1158,cs),
(1088,1158,o),
(1152,1068,o),
(1141,930,c),
(1545,930,l),
(1574,1300,o),
(1332,1510,o),
(943,1510,cs),
(555,1510,o),
(206,1257,o),
(125,768,c),
(43,262,o),
(314,-20,o),
(733,-20,cs)
);
}
);
width = 1573;
},
{
anchors = (
{
name = bottom_dd;
pos = (1314,-408);
},
{
name = cedilla;
pos = (680,6);
},
{
name = top;
pos = (940,1586);
},
{
name = top0315;
pos = (1646,1588);
},
{
name = top_dd;
pos = (1646,1600);
}
);
associatedMasterId = "D0EC06BF-13F9-4C88-A6F5-B8203AF6C77E";
background = {
shapes = (
{
ref = O;
}
);
};
guides = (
{
pos = (1232,1024);
},
{
pos = (-256,0);
}
);
layerId = "06889DA9-D1FD-4E3E-9B69-96C5F07B1474";
name = "Sep 14 18, 09:35";
shapes = (
{
closed = 1;
nodes = (
(1539,1295,o),
(1283,1510,o),
(936,1510,cs),
(547,1510,o),
(192,1233,o),
(114,744,c),
(32,256,o),
(279,-20,o),
(696,-20,cs),
(1129,-20,o),
(1376,282,o),
(1438,536,c),
(1026,538,l),
(989,413,o),
(879,337,o),
(748,338,cs),
(564,337,o),
(480,489,o),
(524,744,c),
(564,1004,o),
(704,1155,o),
(884,1154,cs),
(1012,1155,o),
(1100,1079,o),
(1090,930,c),
(1502,930,l)
);
}
);
width = 1522;
},
{
anchors = (
{
name = _center;
pos = (770.792,745);
},
{
name = cedilla;
pos = (671,0);
},
{
name = center;
pos = (770.792,745);
},
{
name = top;
pos = (949,1676);
}
);
layerId = "200BE2C5-40F6-4CF4-AF4F-A33C0CC0964F";
shapes = (
{
closed = 1;
nodes = (
(1018,-20,o),
(1247,256,o),
(1319,466,c),
(1269,466,l),
(1199,265,o),
(979,26,o),
(675,26,cs),
(370,26,o),
(146,276,o),
(225,744,cs),
(301,1207,o),
(608,1463,o),
(911,1464,cs),
(1217,1463,o),
(1357,1222,o),
(1359,1024,c),
(1409,1024,l),
(1409,1236,o),
(1272,1510,o),
(921,1510,cs),
(554,1510,o),
(253,1201,o),
(179,744,cs),
(101,288,o),
(301,-20,o),
(667,-20,cs)
);
}
);
width = 1481;
},
{
anchors = (
{
name = _center;
pos = (774.924,745);
},
{
name = cedilla;
pos = (670.59,0);
},
{
name = center;
pos = (774.924,745);
},
{
name = top;
pos = (948.05,1676);
}
);
background = {
shapes = (
{
ref = O;
}
);
};
guides = (
{
angle = 80.6;
pos = (758,1432);
},
{
angle = -9.4;
pos = (1240,480);
},
{
angle = -9.4;
pos = (1261,1008);
}
);
layerId = m008;
name = ital_gen;
shapes = (
{
closed = 1;
nodes = (
(995.617,-24,o),
(1284.051,184,o),
(1385.054,480,c),
(1202.054,480,l),
(1122.109,281,o),
(925.429,144,o),
(707.429,144,cs),
(409.429,144,o),
(247.154,390,o),
(305.759,744,cs),
(364.694,1100,o),
(608.419,1346,o),
(906.419,1346,cs),
(1125.419,1346,o),
(1275.573,1208,o),
(1288.463,1008,c),
(1472.463,1008,l),
(1469.797,1306,o),
(1250.231,1514,o),
(934.231,1514,cs),
(537.231,1514,o),
(200.421,1195,o),
(125.759,744,cs),
(51.593,296,o),
(283.617,-24,o),
(679.617,-24,cs)
);
}
);
width = 1479;
},
{
anchors = (
{
name = bottom_dd;
pos = (1250,-408);
},
{
name = cedilla;
pos = (686,-12);
},
{
name = top;
pos = (966,1676);
},
{
name = top0315;
pos = (1588,1632);
},
{
name = top_dd;
pos = (1582,1600);
}
);
associatedMasterId = m008;
guides = (
{
angle = 90;
pos = (1392,1432);
}
);
layerId = "2063B3BD-2DFB-476A-AC3D-03AD0BE8D4ED";
name = "Sep 11 18, 23:27";
shapes = (
{
closed = 1;
nodes = (
(1452,1329,o),
(1236,1510,o),
(936,1510,cs),
(556,1510,o),
(230,1216,o),
(154,744,c),
(76,273,o),
(303,-20,o),
(684,-20,cs),
(983,-20,o),
(1257,160,o),
(1364,466,c),
(1184,466,l),
(1105,259,o),
(911,148,o),
(712,148,cs),
(442,148,o),
(265,358,o),
(328,744,c),
(393,1132,o),
(640,1341,o),
(910,1342,cs),
(1108,1341,o),
(1265,1231,o),
(1274,1024,c),
(1454,1024,l)
);
}
);
width = 1490;
},
{
anchors = (
{
name = _center;
pos = (789.924,745);
},
{
name = cedilla;
pos = (663.583,6);
},
{
name = center;
pos = (789.924,745);
},
{
name = top;
pos = (948.05,1676);
}
);
background = {
hints = (
{
horizontal = 1;
place = (-20, 21);
target = up;
type = BottomGhost;
},
{
horizontal = 1;
place = (1510, -20);
target = down;
type = TopGhost;
},
{
horizontal = 1;
options = 4;
place = (-20, 0);
type = TTSnap;
},
{
horizontal = 1;
options = 4;
place = (1510, 0);
type = TTSnap;
},
{
horizontal = 1;
place = (-20, 21);
target = up;
type = BottomGhost;
},
{
horizontal = 1;
place = (1510, -20);
target = down;
type = TopGhost;
},
{
horizontal = 1;
options = 4;
place = (-20, 0);
type = TTSnap;
},
{
horizontal = 1;
options = 4;
place = (1510, 0);
type = TTSnap;
},
{
horizontal = 1;
place = (-20, 21);
target = up;
type = BottomGhost;
},
{
horizontal = 1;
place = (1510, -20);
target = down;
type = TopGhost;
},
{
horizontal = 1;
options = 4;
place = (-20, 0);
type = TTSnap;
},
{
horizontal = 1;
options = 4;
place = (1510, 0);
type = TTSnap;
}
);
shapes = (
{
pos = (-34,0);
ref = O;
}
);
};
guides = (
{
angle = -9.4;
pos = (-118,0);
},
{
angle = -9.4;
pos = (1158,560);
},
{
angle = -9.4;
pos = (1158,928);
}
);
layerId = m010;
name = ital_gen;
shapes = (
{
closed = 1;
nodes = (
(1053.617,-24,o),
(1361.024,208,o),
(1461.298,560,c),
(1042.298,560,l),
(993.121,420,o),
(883.215,336,o),
(740.215,336,cs),
(537.215,336,o),
(452.716,484,o),
(495.759,744,cs),
(538.967,1005,o),
(673.634,1154,o),
(875.634,1154,cs),
(1018.634,1154,o),
(1101.562,1069,o),
(1103.22,928,c),
(1522.22,928,l),
(1539.493,1280,o),
(1308.231,1514,o),
(927.231,1514,cs),
(520.231,1514,o),
(158.202,1242,o),
(75.759,744,cs),
(-6.023,250,o),
(265.617,-24,o),
(672.617,-24,cs)
);
}
);
width = 1508;
},
{
anchors = (
{
name = bottom_dd;
pos = (1314,-408);
},
{
name = cedilla;
pos = (680,6);
},
{
name = top;
pos = (940,1586);
},
{
name = top0315;
pos = (1646,1588);
},
{
name = top_dd;
pos = (1646,1600);
}
);
associatedMasterId = m010;
background = {
shapes = (
{
ref = O;
}
);
};
guides = (
{
pos = (1232,1024);
},
{
pos = (-256,0);
}
);
layerId = "A252781C-87F7-4164-93F9-D21069582B43";
name = "Sep 14 18, 09:35";
shapes = (
{
closed = 1;
nodes = (
(1539,1295,o),
(1283,1510,o),
(936,1510,cs),
(547,1510,o),
(192,1233,o),
(114,744,c),
(32,256,o),
(279,-20,o),
(696,-20,cs),
(1129,-20,o),
(1376,282,o),
(1438,536,c),
(1026,538,l),
(989,413,o),
(879,337,o),
(748,338,cs),
(564,337,o),
(480,489,o),
(524,744,c),
(564,1004,o),
(704,1155,o),
(884,1154,cs),
(1012,1155,o),
(1100,1079,o),
(1090,930,c),
(1502,930,l)
);
}
);
width = 1522;
},
{
anchors = (
{
name = _center;
pos = (711.924,745);
},
{
name = cedilla;
pos = (614.59,0);
},
{
name = center;
pos = (711.924,745);
},
{
name = top;
pos = (892.05,1676);
}
);
layerId = m012;
name = ital_gen;
shapes = (
{
closed = 1;
nodes = (
(961.279,-20,o),
(1189.971,256,o),
(1261.736,466,c),
(1211.736,466,l),
(1141.461,265,o),
(921.894,26,o),
(618.894,26,cs),
(312.894,26,o),
(88.282,276,o),
(165.759,744,cs),
(242.408,1207,o),
(550.954,1464,o),
(856.954,1464,cs),
(1159.954,1464,o),
(1299.891,1222,o),
(1304.112,1024,c),
(1354.112,1024,l),
(1352.209,1236,o),
(1214.569,1510,o),
(864.569,1510,cs),
(497.569,1510,o),
(195.414,1201,o),
(119.759,744,cs),
(44.268,288,o),
(244.279,-20,o),
(611.279,-20,cs)
);
}
);
width = 1352;
}
);
metricLeft = O;
unicode = 67;
userData = {
com.typemytype.robofont.guideline.magnetic.ju3ppiFr9V = 5;
"interface.width-adjustments" = (
-16
);
};
}
{
color = (219,235,247,1);
glyphname = D;
kernLeft = B;
kernRight = D;
layers = (
{
anchors = (
{
name = _center;
pos = (765.792,745);
},
{
name = bottom;
pos = (436,0);
},
{
name = cross;
pos = (340,768);
},
{
name = top;
pos = (990,1676);
},
{
name = topl;
pos = (334,1490);
}
);
layerId = "11F4534A-B963-4AB5-820F-DAF9A20CD933";
shapes = (
{
closed = 1;
nodes = (
(1007,0,o),
(1303,276,o),
(1378,736,cs),
(1457,1204,o),
(1242,1490,o),
(808,1490,cs),
(428,1490,l),
(402,1330,l),
(782,1330,ls),
(1132,1330,o),
(1268,1114,o),
(1208,760,cs),
(1146,390,o),
(928,160,o),
(558,160,cs),
(216,160,l),
(190,0,l),
(552,0,ls)
);
},
{
closed = 1;
nodes = (
(334,1490,l),
(88,0,l),
(268,0,l),
(514,1490,l)
);
}
);
width = 1471;
},
{
anchors = (
{
name = bottom;
pos = (530,0);
},
{
name = bottom_dd;
pos = (1190,-408);
},
{
name = cross;
pos = (306,768);
},
{
name = top;
pos = (802,1676);
},
{
name = top0315;
pos = (1524,1612);
},
{
name = top_dd;
pos = (1522,1600);
}
);
associatedMasterId = "11F4534A-B963-4AB5-820F-DAF9A20CD933";
layerId = "43B3EEE0-AAB0-4149-B835-61E9C8667B70";
name = "Sep 11 18, 23:23";
shapes = (
{
closed = 1;
nodes = (
(1001,0,o),
(1303,282,o),
(1382,748,c),
(1457,1210,o),
(1248,1489,o),
(814,1490,c),
(428,1490,l),
(402,1330,l),
(776,1330,l),
(1126,1329,o),
(1265,1108,o),
(1208,748,c),
(1146,384,o),
(931,160,o),
(562,160,c),
(216,160,l),
(190,0,l),
(546,0,l)
);
},
{
closed = 1;
nodes = (
(334,1490,l),
(88,0,l),
(268,0,l),
(514,1490,l)
);
}
);
width = 1472;
},
{
anchors = (
{
name = _center;
pos = (782,745);
},
{
name = bottom;
pos = (583,0);
},
{
name = cross;
pos = (335,788);
},
{
name = top;
pos = (781,1676);
},
{
name = topl;
pos = (251,1490);
}
);
guides = (
{
pos = (2177,1024);
},
{
pos = (9,764);
},
{
pos = (789,1548);
},
{
pos = (2805,1696);
},
{
pos = (1469,348);
},
{
pos = (2125,1480);
},
{
pos = (1277,560);
}
);
layerId = "D0EC06BF-13F9-4C88-A6F5-B8203AF6C77E";
shapes = (
{
closed = 1;
nodes = (
(1040,0,o),
(1362,268,o),
(1439,724,c),
(1517,1199,o),
(1269,1489,o),
(809,1490,c),
(411,1490,l),
(353,1146,l),
(749,1146,l),
(981,1146,o),
(1089,1068,o),
(1039,766,c),
(987,445,o),
(833,343,o),
(611,344,c),
(227,344,l),
(169,0,l),
(585,0,l)
);
},
{
closed = 1;
nodes = (
(251,1490,l),
(3,0,l),
(409,0,l),
(655,1490,l)
);
}
);
width = 1502;
},
{
anchors = (
{
name = bottom;
pos = (574,0);
},
{
name = bottom_dd;
pos = (1326,-408);
},
{
name = cross;
pos = (326,788);
},
{
name = top;
pos = (754,1586);
},
{
name = top0315;
pos = (1658,1594);
},
{
name = top_dd;
pos = (1658,1600);
}
);
associatedMasterId = "D0EC06BF-13F9-4C88-A6F5-B8203AF6C77E";
guides = (
{
pos = (1992,1024);
},
{
pos = (0,764);
},
{
pos = (260,1548);
},
{
pos = (2180,1696);
},
{
pos = (1732,348);
},
{
pos = (1644,1480);
},
{
pos = (1404,560);
}
);
layerId = "E3EE1E77-C165-47A6-B00B-72F4081D370D";
name = "Sep 14 18, 09:46";
shapes = (
{
closed = 1;
nodes = (
(1021,0,o),
(1356,279,o),
(1434,744,c),
(1510,1210,o),
(1268,1489,o),
(808,1490,c),
(402,1490,l),
(344,1146,l),
(730,1146,l),
(963,1146,o),
(1076,1056,o),
(1026,744,c),
(975,433,o),
(832,343,o),
(610,344,c),
(218,344,l),
(160,0,l),
(568,0,l)
);
},
{
closed = 1;
nodes = (
(242,1490,l),
(-6,0,l),
(398,0,l),
(646,1490,l)
);
}
);
width = 1484;
},
{
anchors = (
{
name = _center;
pos = (761.792,745);
},
{
name = bottom;
pos = (498,0);
},
{
name = cross;
pos = (288,756);
},
{
name = top;
pos = (818,1676);
},
{
name = topl;
pos = (386,1490);
}
);
layerId = "200BE2C5-40F6-4CF4-AF4F-A33C0CC0964F";
shapes = (
{
closed = 1;
nodes = (
(966,0,o),
(1265,276,o),
(1346,750,cs),
(1425,1213,o),
(1225,1490,o),
(814,1490,cs),
(410,1490,l),
(402,1442,l),
(806,1442,ls),
(1201,1442,o),
(1372,1193,o),
(1300,750,cs),
(1231,317,o),
(943,46,o),
(538,46,cs),
(172,46,l),
(162,0,l),
(530,0,ls)
);
},
{
closed = 1;
nodes = (
(386,1490,l),
(140,0,l),
(186,0,l),
(434,1490,l)
);
}
);
width = 1462;
},
{
anchors = (
{
name = _center;
pos = (741.924,745);
},
{
name = bottom;
pos = (502.59,0);
},
{
name = cross;
pos = (277.732,768);
},
{
name = top;
pos = (774.05,1676);
},
{
name = topl;
pos = (307,1490);
}
);
layerId = m008;
name = ital_gen;
shapes = (
{
closed = 1;
nodes = (
(974.59,0,o),
(1281.275,282,o),
(1358.421,748,cs),
(1434.904,1210,o),
(1221.258,1490,o),
(787.258,1490,cs),
(401.258,1490,l),
(374.77,1330,l),
(748.77,1330,ls),
(1098.77,1330,o),
(1238.018,1108,o),
(1178.421,748,cs),
(1118.161,384,o),
(905.078,160,o),
(535.078,160,cs),
(189.078,160,l),
(162.59,0,l),
(520.59,0,ls)
);
},
{
closed = 1;
nodes = (
(307.258,1490,l),
(60.59,0,l),
(240.59,0,l),
(487.258,1490,l)
);
}
);
width = 1412;
},
{
anchors = (
{
name = bottom;
pos = (530,0);
},
{
name = bottom_dd;
pos = (1190,-408);
},
{
name = cross;
pos = (306,768);
},
{
name = top;
pos = (802,1676);
},
{
name = top0315;
pos = (1524,1612);
},
{
name = top_dd;
pos = (1522,1600);
}
);
associatedMasterId = m008;
layerId = "BB18A406-1301-455B-A742-287CC9CA039A";
name = "Sep 11 18, 23:23";
shapes = (
{
closed = 1;
nodes = (
(1001,0,o),
(1303,282,o),
(1382,748,c),
(1457,1210,o),
(1248,1489,o),
(814,1490,c),
(428,1490,l),
(402,1330,l),
(776,1330,l),
(1126,1329,o),
(1265,1108,o),
(1208,748,c),
(1146,384,o),
(931,160,o),
(562,160,c),
(216,160,l),
(190,0,l),
(546,0,l)
);
},
{
closed = 1;
nodes = (
(334,1490,l),
(88,0,l),
(268,0,l),
(514,1490,l)
);
}
);
width = 1472;
},
{
anchors = (
{
name = _center;
pos = (763.924,745);
},
{
name = bottom;
pos = (578.59,0);
},
{
name = cross;
pos = (331.043,788);
},
{
name = top;
pos = (776.05,1676);
},
{
name = topl;
pos = (239,1490);
}
);
background = {
shapes = (
{
pos = (-106,0);
ref = O;
}
);
};
layerId = m010;
name = ital_gen;
shapes = (
{
closed = 1;
nodes = (
(1033.59,0,o),
(1376.93,292,o),
(1451.759,744,cs),
(1526.752,1197,o),
(1275.258,1490,o),
(815.258,1490,cs),
(407.258,1490,l),
(350.309,1146,l),
(732.309,1146,ls),
(983.309,1146,o),
(1076.953,1017,o),
(1031.759,744,cs),
(986.895,473,o),
(854.539,344,o),
(611.539,344,cs),
(223.539,344,l),
(166.59,0,l),
(574.59,0,l)
);
},
{
closed = 1;
nodes = (
(239.258,1490,l),
(-7.41,0,l),
(408.59,0,l),
(655.258,1490,l)
);
}
);
width = 1456;
},
{
anchors = (
{
name = bottom;
pos = (574,0);
},
{
name = bottom_dd;
pos = (1326,-408);
},
{
name = cross;
pos = (326,788);
},
{
name = top;
pos = (754,1586);
},
{
name = top0315;
pos = (1658,1594);
},
{
name = top_dd;
pos = (1658,1600);
}
);
associatedMasterId = m010;
guides = (
{
pos = (1992,1024);
},
{
pos = (0,764);
},
{
pos = (260,1548);
},
{
pos = (2180,1696);
},
{
pos = (1732,348);
},
{
pos = (1644,1480);
},
{
pos = (1404,560);
}
);
layerId = "882393F0-C9BA-4B9E-A86E-082BD20AF98E";
name = "Sep 14 18, 09:46";
shapes = (
{
closed = 1;
nodes = (
(1021,0,o),
(1356,279,o),
(1434,744,c),
(1510,1210,o),
(1268,1489,o),
(808,1490,c),
(402,1490,l),
(344,1146,l),
(730,1146,l),
(963,1146,o),
(1076,1056,o),
(1026,744,c),
(975,433,o),
(832,343,o),
(610,344,c),
(218,344,l),
(160,0,l),
(568,0,l)
);
},
{
closed = 1;
nodes = (
(242,1490,l),
(-6,0,l),
(398,0,l),
(646,1490,l)
);
}
);
width = 1484;
},
{
anchors = (
{
name = _center;
pos = (698,745);
},
{
name = bottom;
pos = (434,0);
},
{
name = cross;
pos = (225,756);
},
{
name = top;
pos = (753,1676);
},
{
name = topl;
pos = (322,1490);
}
);
layerId = m012;
name = ital_gen;
shapes = (
{
closed = 1;
nodes = (
(904,0,o),
(1203,275,o),
(1282,750,cs),
(1359,1214,o),
(1161,1490,o),
(750,1490,cs),
(346,1490,l),
(338,1442,l),
(742,1442,ls),
(1129,1442,o),
(1308,1185,o),
(1236,750,cs),
(1163,309,o),
(887,46,o),
(473,46,cs),
(107,46,l),
(100,0,l),
(466,0,ls)
);
},
{
closed = 1;
nodes = (
(322,1490,l),
(76,0,l),
(124,0,l),
(370,1490,l)
);
}
);
width = 1334;
}
);
metricLeft = H;
metricRight = O;
note = "!post:RemoveOverlap";
unicode = 68;
userData = {
"interface.width-adjustments" = (
-16
);
};
}
{
glyphname = E;
kernLeft = B;
kernRight = E;
layers = (
{
anchors = (
{
name = bottom;
pos = (542,0);
},
{
name = cedilla;
pos = (542,0);
},
{
name = ogonek;
pos = (997,0);
},
{
name = tonos;
pos = (288,1490);
},
{
name = top;
pos = (789,1490);
}
);
layerId = "11F4534A-B963-4AB5-820F-DAF9A20CD933";
name = ital_gen;
shapes = (
{
closed = 1;
nodes = (
(997,0,l),
(1023,160,l),
(293,160,l),
(378,672,l),
(1050,672,l),
(1077,832,l),
(405,832,l),
(487,1330,l),
(1207,1330,l),
(1234,1490,l),
(334,1490,l),
(87,0,l)
);
}
);
width = 1224;
},
{
anchors = (
{
name = bottom;
pos = (540,0);
},
{
name = cedilla;
pos = (542,0);
},
{
name = ogonek;
pos = (1073,0);
},
{
name = tonos;
pos = (210,1490);
},
{
name = top;
pos = (787,1490);
}
);
layerId = "D0EC06BF-13F9-4C88-A6F5-B8203AF6C77E";
name = ital_gen;
shapes = (
{
closed = 1;
nodes = (
(1073,0,l),
(1127,326,l),
(461,326,l),
(505,594,l),
(1119,594,l),
(1172,912,l),
(558,912,l),
(600,1164,l),
(1270,1164,l),
(1324,1490,l),
(250,1490,l),
(3,0,l)
);
}
);
width = 1274;
},
{
anchors = (
{
name = bottom;
pos = (547,0);
},
{
name = cedilla;
pos = (547,0);
},
{
name = ogonek;
pos = (955,0);
},
{
name = tonos;
pos = (334,1490);
},
{
name = top;
pos = (794,1490);
}
);
layerId = "200BE2C5-40F6-4CF4-AF4F-A33C0CC0964F";
name = ital_gen;
shapes = (
{
closed = 1;
nodes = (
(955,0,l),
(963,46,l),
(195,46,l),
(307,722,l),
(1011,722,l),
(1018,768,l),
(314,768,l),
(426,1442,l),
(1172,1442,l),
(1180,1490,l),
(386,1490,l),
(139,0,l)
);
}
);
width = 1196;
},
{
anchors = (
{
name = bottom;
pos = (545,0);
},
{
name = cedilla;
pos = (556,0);
},
{
name = ogonek;
pos = (1030,0);
},
{
name = tonos;
pos = (262,1490);
},
{
name = top;
pos = (792,1490);
}
);
layerId = m008;
name = ital_gen;
shapes = (
{
closed = 1;
nodes = (
(1030,0,l),
(1056,160,l),
(267,160,l),
(354,683,l),
(1085,683,l),
(1112,843,l),
(381,843,l),
(461,1330,l),
(1250,1330,l),
(1277,1490,l),
(308,1490,l),
(61,0,l)
);
}
);
width = 1183;
},
{
anchors = (
{
name = bottom;
pos = (570,0);
},
{
name = cedilla;
pos = (568,0);
},
{
name = ogonek;
pos = (1147,0);
},
{
name = tonos;
pos = (200,1490);
},
{
name = top;
pos = (817,1490);
}
);
layerId = m010;
name = ital_gen;
shapes = (
{
closed = 1;
nodes = (
(1147,0,l),
(1205,352,l),
(467,352,l),
(504,574,l),
(1185,574,l),
(1241,914,l),
(560,914,l),
(597,1138,l),
(1335,1138,l),
(1393,1490,l),
(240,1490,l),
(-7,0,l)
);
}
);
width = 1289;
},
{
anchors = (
{
name = bottom;
pos = (532,0);
},
{
name = cedilla;
pos = (529,0);
},
{
name = ogonek;
pos = (983,0);
},
{
name = tonos;
pos = (276,1490);
},
{
name = top;
pos = (779,1490);
}
);
layerId = m012;
name = ital_gen;
shapes = (
{
closed = 1;
nodes = (
(983,0,l),
(991,46,l),
(137,46,l),
(251,738,l),
(1028,738,l),
(1036,784,l),
(259,784,l),
(368,1442,l),
(1222,1442,l),
(1230,1490,l),
(328,1490,l),
(81,0,l)
);
}
);
width = 1146;
}
);
metricLeft = H;
unicode = 69;
userData = {
"interface.width-adjustments" = (
-16
);
};
}
{
color = (219,235,247,1);
glyphname = F;
kernLeft = B;
kernRight = F;
layers = (
{
anchors = (
{
name = _center;
pos = (632,745);
},
{
name = bottom;
pos = (468,12);
},
{
name = cross;
pos = (236,350);
},
{
name = top;
pos = (831,1676);
}
);
background = {
shapes = (
{
pos = (-5,0);
ref = E;
}
);
};
layerId = "11F4534A-B963-4AB5-820F-DAF9A20CD933";
name = ital_gen;
shapes = (
{
closed = 1;
nodes = (
(268,0,l),
(375,650,l),
(1021,650,l),
(1048,810,l),
(402,810,l),
(488,1330,l),
(1202,1330,l),
(1228,1490,l),
(334,1490,l),
(88,0,l)
);
}
);
width = 1197;
},
{
anchors = (
{
name = _center;
pos = (628,745);
},
{
name = bottom;
pos = (551,12);
},
{
name = cross;
pos = (244,250);
},
{
name = top;
pos = (806,1676);
}
);
background = {
shapes = (
{
pos = (-6,0);
ref = E;
}
);
};
layerId = "D0EC06BF-13F9-4C88-A6F5-B8203AF6C77E";
name = ital_gen;
shapes = (
{
closed = 1;
nodes = (
(407,0,l),
(491,510,l),
(1071,510,l),
(1124,828,l),
(544,828,l),
(599,1164,l),
(1243,1164,l),
(1297,1490,l),
(249,1490,l),
(3,0,l)
);
}
);
width = 1190;
},
{
anchors = (
{
name = _center;
pos = (630,745);
},
{
name = bottom;
pos = (420,12);
},
{
name = cross;
pos = (231,410);
},
{
name = top;
pos = (819,1676);
}
);
guides = (
{
angle = 80.6;
pos = (867,2220);
}
);
layerId = "200BE2C5-40F6-4CF4-AF4F-A33C0CC0964F";
name = ital_gen;
shapes = (
{
closed = 1;
nodes = (
(188,0,l),
(307,722,l),
(989,722,l),
(997,768,l),
(315,768,l),
(426,1442,l),
(1178,1442,l),
(1186,1490,l),
(386,1490,l),
(140,0,l)
);
}
);
width = 1193;
},
{
anchors = (
{
name = _center;
pos = (604.924,745);
},
{
name = bottom;
pos = (440.577,12);
},
{
name = cross;
pos = (208.532,350);
},
{
name = top;
pos = (804.05,1676);
}
);
background = {
shapes = (
{
ref = E;
}
);
};
layerId = m008;
name = ital_gen;
shapes = (
{
closed = 1;
nodes = (
(240.59,0,l),
(348.197,650,l),
(994.197,650,l),
(1020.685,810,l),
(374.685,810,l),
(460.77,1330,l),
(1174.77,1330,l),
(1201.258,1490,l),
(307.258,1490,l),
(60.59,0,l)
);
}
);
width = 1138;
},
{
anchors = (
{
name = _center;
pos = (631.924,745);
},
{
name = bottom;
pos = (540.577,12);
},
{
name = cross;
pos = (233.977,250);
},
{
name = top;
pos = (796.05,1676);
}
);
background = {
shapes = (
{
ref = E;
}
);
};
guides = (
{
pos = (-84,1320);
}
);
layerId = m010;
name = ital_gen;
shapes = (
{
closed = 1;
nodes = (
(408.59,0,l),
(494.345,518,l),
(1054.345,518,l),
(1108.976,848,l),
(548.976,848,l),
(598.309,1146,l),
(1258.309,1146,l),
(1315.258,1490,l),
(239.258,1490,l),
(-7.41,0,l)
);
}
);
width = 1192;
},
{
anchors = (
{
name = _center;
pos = (570.924,745);
},
{
name = bottom;
pos = (360.577,12);
},
{
name = cross;
pos = (172.465,410);
},
{
name = top;
pos = (760.05,1676);
}
);
guides = (
{
angle = 80.6;
pos = (744,2220);
}
);
layerId = m012;
name = ital_gen;
shapes = (
{
closed = 1;
nodes = (
(128.59,0,l),
(248.116,722,l),
(930.116,722,l),
(937.732,768,l),
(255.732,768,l),
(367.312,1442,l),
(1119.312,1442,l),
(1127.258,1490,l),
(327.258,1490,l),
(80.59,0,l)
);
}
);
width = 1070;
}
);
metricLeft = H;
unicode = 70;
userData = {
"interface.width-adjustments" = (
-16
);
};
}
{
color = (219,235,247,1);
glyphname = G;
kernLeft = C;
kernRight = G;
layers = (
{
anchors = (
{
name = _center;
pos = (790.792,745);
},
{
name = bottom;
pos = (677,0);
},
{
name = top;
pos = (959,1676);
}
);
guides = (
{
pos = (3039,1408);
},
{
angle = 90;
pos = (2863,1304);
},
{
angle = 90;
pos = (2651,1644);
},
{
angle = -99.4;
pos = (1271,1024);
}
);
layerId = "11F4534A-B963-4AB5-820F-DAF9A20CD933";
shapes = (
{
closed = 1;
nodes = (
(1043,-20,o),
(1337,215,o),
(1395,584,cs),
(1425,744,l),
(857,744,l),
(829,584,l),
(1277,584,l),
(1223,596,l),
(1180,323,o),
(959,148,o),
(703,148,cs),
(427,148,o),
(264,358,o),
(327,744,cs),
(392,1132,o),
(654,1341,o),
(919,1342,cs),
(1134,1341,o),
(1244,1219,o),
(1273,1024,c),
(1459,1024,l),
(1454,1312,o),
(1244,1510,o),
(929,1510,cs),
(549,1510,o),
(229,1216,o),
(153,744,cs),
(75,273,o),
(293,-20,o),
(689,-20,cs)
);
}
);
width = 1521;
},
{
anchors = (
{
name = bottom;
pos = (680,-12);
},
{
name = bottom_dd;
pos = (1312,-408);
},
{
name = top;
pos = (960,1676);
},
{
name = top0315;
pos = (1650,1632);
},
{
name = top_dd;
pos = (1644,1600);
}
);
associatedMasterId = "11F4534A-B963-4AB5-820F-DAF9A20CD933";
guides = (
{
pos = (2196,1408);
},
{
angle = 90;
pos = (2160,1304);
},
{
angle = 90;
pos = (1492,1644);
}
);
layerId = "4E80DD12-BE55-4A22-8C8A-5EF47AF296F7";
name = "Sep 11 18, 23:24";
shapes = (
{
closed = 1;
nodes = (
(76,273,o),
(303,-20,o),
(692,-20,cs),
(1041,-20,o),
(1335,212,o),
(1396,578,cs),
(1422,738,l),
(884,738,l),
(858,578,l),
(1268,578,l),
(1228,622,l),
(1222,578,l),
(1181,326,o),
(972,148,o),
(718,148,cs),
(442,148,o),
(265,358,o),
(328,744,cs),
(393,1132,o),
(640,1341,o),
(904,1342,cs),
(1097,1341,o),
(1239,1231,o),
(1274,1024,c),
(1458,1024,l),
(1423,1329,o),
(1228,1510,o),
(930,1510,cs),
(553,1510,o),
(233,1216,o),
(154,748,cs)
);
}
);
width = 1522;
},
{
anchors = (
{
name = _center;
pos = (821.792,745);
},
{
name = bottom;
pos = (712,6);
},
{
name = top;
pos = (990,1676);
}
);
background = {
shapes = (
{
pos = (146,0);
ref = C;
}
);
};
layerId = "D0EC06BF-13F9-4C88-A6F5-B8203AF6C77E";
shapes = (
{
closed = 1;
nodes = (
(1115,-20,o),
(1433,218,o),
(1502,626,cs),
(1534,832,l),
(874,832,l),
(828,544,l),
(1168,544,l),
(1098,552,l),
(1077,417,o),
(964,332,o),
(778,332,cs),
(569,332,o),
(495,486,o),
(538,748,cs),
(580,1006,o),
(737,1158,o),
(942,1158,cs),
(1067,1158,o),
(1129,1100,o),
(1136,998,c),
(1544,998,l),
(1564,1297,o),
(1327,1510,o),
(976,1510,cs),
(574,1510,o),
(202,1233,o),
(120,742,cs),
(43,271,o),
(290,-20,o),
(724,-20,cs)
);
}
);
width = 1582;
},
{
anchors = (
{
name = bottom;
pos = (684,6);
},
{
name = bottom_dd;
pos = (1374,-408);
},
{
name = top;
pos = (942,1586);
},
{
name = top0315;
pos = (1704,1588);
},
{
name = top_dd;
pos = (1704,1600);
}
);
associatedMasterId = "D0EC06BF-13F9-4C88-A6F5-B8203AF6C77E";
background = {
shapes = (
{
ref = C;
}
);
};
guides = (
{
angle = 7.9575;
pos = (1208,1320);
},
{
angle = 90;
pos = (944,528);
},
{
pos = (1356,756);
}
);
layerId = "DB24DE82-64F7-46A2-B463-9A6336A82810";
name = "Sep 14 18, 09:43";
shapes = (
{
closed = 1;
nodes = (
(35,271,o),
(268,-20,o),
(690,-20,cs),
(1071,-20,o),
(1385,218,o),
(1452,626,cs),
(1484,820,l),
(812,820,l),
(766,538,l),
(1140,538,l),
(1070,626,l),
(1056,538,l),
(1021,407,o),
(887,337,o),
(756,338,cs),
(564,337,o),
(480,489,o),
(524,748,cs),
(564,1004,o),
(698,1155,o),
(888,1154,cs),
(1030,1155,o),
(1079,1068,o),
(1088,998,c),
(1502,998,l),
(1533,1295,o),
(1283,1510,o),
(936,1510,cs),
(547,1510,o),
(192,1233,o),
(110,742,cs)
);
}
);
width = 1524;
},
{
anchors = (
{
name = _center;
pos = (786.792,745);
},
{
name = bottom;
pos = (661,0);
},
{
name = top;
pos = (941,1676);
}
);
layerId = "200BE2C5-40F6-4CF4-AF4F-A33C0CC0964F";
shapes = (
{
closed = 1;
nodes = (
(1008,-20,o),
(1289,221,o),
(1357,628,cs),
(1365,674,l),
(803,674,l),
(795,628,l),
(1331,628,l),
(1313,646,l),
(1255,261,o),
(988,26,o),
(681,26,cs),
(322,26,o),
(152,311,o),
(225,744,cs),
(303,1205,o),
(609,1463,o),
(911,1464,cs),
(1230,1463,o),
(1362,1233,o),
(1363,1024,c),
(1409,1024,l),
(1410,1236,o),
(1273,1510,o),
(921,1510,cs),
(554,1510,o),
(253,1201,o),
(179,744,cs),
(101,288,o),
(295,-20,o),
(673,-20,cs)
);
}
);
width = 1513;
},
{
anchors = (
{
name = _center;
pos = (783.924,745);
},
{
name = bottom;
pos = (670.59,0);
},
{
name = top;
pos = (948.05,1676);
}
);
background = {
shapes = (
{
ref = C;
}
);
};
guides = (
{
angle = 80.6;
pos = (758,1592);
}
);
layerId = m008;
name = ital_gen;
shapes = (
{
closed = 1;
nodes = (
(1034.617,-24,o),
(1351.66,236,o),
(1409.271,584,cs),
(1435.759,744,l),
(867.759,744,l),
(841.271,584,l),
(1289.271,584,l),
(1231.933,588,l),
(1188.228,324,o),
(956.429,144,o),
(707.429,144,cs),
(409.429,144,o),
(247.154,390,o),
(305.759,744,cs),
(364.694,1100,o),
(608.419,1346,o),
(906.419,1346,cs),
(1125.419,1346,o),
(1275.573,1208,o),
(1288.463,1008,c),
(1470.463,1008,l),
(1467.797,1306,o),
(1250.231,1514,o),
(934.231,1514,cs),
(537.231,1514,o),
(200.421,1195,o),
(125.759,744,cs),
(51.593,296,o),
(283.617,-24,o),
(679.617,-24,cs)
);
}
);
width = 1496;
},
{
anchors = (
{
name = bottom;
pos = (680,-12);
},
{
name = bottom_dd;
pos = (1312,-408);
},
{
name = top;
pos = (960,1676);
},
{
name = top0315;
pos = (1650,1632);
},
{
name = top_dd;
pos = (1644,1600);
}
);
associatedMasterId = m008;
guides = (
{
pos = (2196,1408);
},
{
angle = 90;
pos = (2160,1304);
},
{
angle = 90;
pos = (1492,1644);
}
);
layerId = "64FE4C0C-99C4-4714-B3F1-52E54AB55142";
name = "Sep 11 18, 23:24";
shapes = (
{
closed = 1;
nodes = (
(76,273,o),
(303,-20,o),
(692,-20,cs),
(1041,-20,o),
(1335,212,o),
(1396,578,cs),
(1422,738,l),
(884,738,l),
(858,578,l),
(1268,578,l),
(1228,622,l),
(1222,578,l),
(1181,326,o),
(972,148,o),
(718,148,cs),
(442,148,o),
(265,358,o),
(328,744,cs),
(393,1132,o),
(640,1341,o),
(904,1342,cs),
(1097,1341,o),
(1239,1231,o),
(1274,1024,c),
(1458,1024,l),
(1423,1329,o),
(1228,1510,o),
(930,1510,cs),
(553,1510,o),
(233,1216,o),
(154,748,cs)
);
}
);
width = 1522;
},
{
anchors = (
{
name = _center;
pos = (793.924,745);
},
{
name = bottom;
pos = (665.583,6);
},
{
name = top;
pos = (946.05,1676);
}
);
background = {
shapes = (
{
pos = (-34,0);
ref = C;
}
);
};
guides = (
{
angle = -1.4425;
pos = (906,1320);
},
{
orientation = center;
angle = 80.6;
pos = (-3768,528);
},
{
angle = -9.4;
pos = (1242,756);
}
);
layerId = m010;
name = ital_gen;
shapes = (
{
closed = 1;
nodes = (
(1095.617,-24,o),
(1411.991,238,o),
(1476.886,630,cs),
(1512.313,844,l),
(852.313,844,l),
(803.311,548,l),
(1143.311,548,l),
(1074.635,556,l),
(1054.107,432,o),
(922.215,336,o),
(748.215,336,cs),
(533.215,336,o),
(451.888,479,o),
(495.759,744,cs),
(539.629,1009,o),
(672.634,1154,o),
(883.634,1154,cs),
(1022.634,1154,o),
(1096.542,1087,o),
(1099.166,976,c),
(1523.166,976,l),
(1549.804,1300,o),
(1290.231,1514,o),
(927.231,1514,cs),
(520.231,1514,o),
(158.202,1242,o),
(75.759,744,cs),
(-6.023,250,o),
(265.617,-24,o),
(672.617,-24,cs)
);
}
);
width = 1516;
},
{
anchors = (
{
name = bottom;
pos = (684,6);
},
{
name = bottom_dd;
pos = (1374,-408);
},
{
name = top;
pos = (942,1586);
},
{
name = top0315;
pos = (1704,1588);
},
{
name = top_dd;
pos = (1704,1600);
}
);
associatedMasterId = m010;
background = {
shapes = (
{
ref = C;
}
);
};
guides = (
{
angle = 7.9575;
pos = (1208,1320);
},
{
angle = 90;
pos = (944,528);
},
{
pos = (1356,756);
}
);
layerId = "0EE0EFC6-77FE-4315-B6B1-1FFB4C83A456";
name = "Sep 14 18, 09:43";
shapes = (
{
closed = 1;
nodes = (
(35,271,o),
(268,-20,o),
(690,-20,cs),
(1071,-20,o),
(1385,218,o),
(1452,626,cs),
(1484,820,l),
(812,820,l),
(766,538,l),
(1140,538,l),
(1070,626,l),
(1056,538,l),
(1021,407,o),
(887,337,o),
(756,338,cs),
(564,337,o),
(480,489,o),
(524,748,cs),
(564,1004,o),
(698,1155,o),
(888,1154,cs),
(1030,1155,o),
(1079,1068,o),
(1088,998,c),
(1502,998,l),
(1533,1295,o),
(1283,1510,o),
(936,1510,cs),
(547,1510,o),
(192,1233,o),
(110,742,cs)
);
}
);
width = 1524;
},
{
anchors = (
{
name = _center;
pos = (727.924,745);
},
{
name = bottom;
pos = (604.59,0);
},
{
name = top;
pos = (882.05,1676);
}
);
guides = (
{
angle = -9.4;
pos = (1744,1408);
}
);
layerId = m012;
name = ital_gen;
shapes = (
{
closed = 1;
nodes = (
(950.279,-20,o),
(1231.176,221,o),
(1298.555,628,cs),
(1306.17,674,l),
(746.17,674,l),
(738.555,628,l),
(1272.555,628,l),
(1255.535,646,l),
(1189.646,248,o),
(934.894,26,o),
(622.894,26,cs),
(271.894,26,o),
(95.4,319,o),
(165.759,744,cs),
(237.11,1175,o),
(513.954,1464,o),
(856.954,1464,cs),
(1161.954,1464,o),
(1304.719,1227,o),
(1306.112,1024,c),
(1354.112,1024,l),
(1353.209,1236,o),
(1211.569,1510,o),
(864.569,1510,cs),
(494.569,1510,o),
(195.746,1203,o),
(119.759,744,cs),
(44.434,289,o),
(238.279,-20,o),
(615.279,-20,cs)
);
}
);
width = 1384;
}
);
metricLeft = O;
note = "C + hook segments";
unicode = 71;
userData = {
com.typemytype.robofont.guideline.magnetic.DBpTQJmUAf = 5;
com.typemytype.robofont.guideline.magnetic.Mdeh49HlEG = 5;
com.typemytype.robofont.guideline.magnetic.iFgX6ho5qJ = 5;
"interface.width-adjustments" = (
-16
);
};
}
{
color = (219,235,247,1);
glyphname = H;
kernLeft = B;
kernRight = H;
layers = (
{
anchors = (
{
name = _center;
pos = (788,745);
},
{
name = bottom;
pos = (663,0);
},
{
name = cedilla;
pos = (201,-2);
},
{
name = cyrtic;
pos = (1318,64);
},
{
name = lfthook;
pos = (1061,0);
},
{
name = right;
pos = (1241,0);
},
{
name = tonos;
pos = (300,1490);
},
{
name = top;
pos = (941,1676);
}
);
guides = (
{
angle = 80.6;
pos = (756,1400);
}
);
layerId = "11F4534A-B963-4AB5-820F-DAF9A20CD933";
name = ital_gen;
shapes = (
{
closed = 1;
nodes = (
(267,0,l),
(377.256,666,l),
(1171.256,666,l),
(1061,0,l),
(1241,0,l),
(1487.668,1490,l),
(1307.668,1490,l),
(1197.743,826,l),
(403.743,826,l),
(513.668,1490,l),
(333.668,1490,l),
(87,0,l)
);
}
);
width = 1514;
},
{
anchors = (
{
name = _center;
pos = (799,745);
},
{
name = bottom;
pos = (675,0);
},
{
name = cedilla;
pos = (195,0);
},
{
name = cyrtic;
pos = (1566,162);
},
{
name = lfthook;
pos = (943,0);
},
{
name = right;
pos = (1347,0);
},
{
name = tonos;
pos = (216,1490);
},
{
name = top;
pos = (953,1676);
}
);
layerId = "D0EC06BF-13F9-4C88-A6F5-B8203AF6C77E";
name = ital_gen;
shapes = (
{
closed = 1;
nodes = (
(407,0,l),
(503.349,582,l),
(1039.349,582,l),
(943,0,l),
(1347,0,l),
(1593.668,1490,l),
(1189.668,1490,l),
(1093.318,908,l),
(557.318,908,l),
(653.668,1490,l),
(249.668,1490,l),
(3,0,l)
);
}
);
width = 1536;
},
{
anchors = (
{
name = _center;
pos = (784,745);
},
{
name = bottom;
pos = (661,0);
},
{
name = cedilla;
pos = (162,-6);
},
{
name = cyrtic;
pos = (1202,6);
},
{
name = lfthook;
pos = (1135,0);
},
{
name = right;
pos = (1181,0);
},
{
name = tonos;
pos = (352,1490);
},
{
name = top;
pos = (939,1676);
}
);
layerId = "200BE2C5-40F6-4CF4-AF4F-A33C0CC0964F";
name = ital_gen;
shapes = (
{
closed = 1;
nodes = (
(187,0,l),
(306.526,722,l),
(1254.526,722,l),
(1135,0,l),
(1181,0,l),
(1427.668,1490,l),
(1381.668,1490,l),
(1262.142,768,l),
(314.142,768,l),
(433.668,1490,l),
(385.668,1490,l),
(139,0,l)
);
}
);
width = 1506;
},
{
anchors = (
{
name = _center;
pos = (761,745);
},
{
name = bottom;
pos = (637,0);
},
{
name = cedilla;
pos = (174,-2);
},
{
name = cyrtic;
pos = (1293,64);
},
{
name = lfthook;
pos = (1035,0);
},
{
name = right;
pos = (1217,0);
},
{
name = tonos;
pos = (273,1490);
},
{
name = top;
pos = (924,1678);
}
);
guides = (
{
orientation = center;
angle = 80.6;
pos = (-6640,56);
}
);
layerId = m008;
name = ital_gen;
shapes = (
{
closed = 1;
nodes = (
(241,0,l),
(351.256,666,l),
(1145.256,666,l),
(1035,0,l),
(1215,0,l),
(1461.668,1490,l),
(1281.668,1490,l),
(1171.743,826,l),
(377.743,826,l),
(487.668,1490,l),
(307.668,1490,l),
(61,0,l)
);
}
);
width = 1451;
},
{
anchors = (
{
name = _center;
pos = (780,745);
},
{
name = bottom;
pos = (657,0);
},
{
name = cedilla;
pos = (201,0);
},
{
name = cyrtic;
pos = (1555,162);
},
{
name = lfthook;
pos = (905,0);
},
{
name = right;
pos = (1321,0);
},
{
name = tonos;
pos = (205,1490);
},
{
name = top;
pos = (934,1676);
}
);
guides = (
{
angle = 80.6;
pos = (664,1520);
}
);
layerId = m010;
name = ital_gen;
shapes = (
{
closed = 1;
nodes = (
(409,0,l),
(504.687,578,l),
(1000.687,578,l),
(905,0,l),
(1321,0,l),
(1567.668,1490,l),
(1151.668,1490,l),
(1058.961,930,l),
(562.961,930,l),
(655.668,1490,l),
(239.668,1490,l),
(-7,0,l)
);
}
);
width = 1489;
},
{
anchors = (
{
name = _center;
pos = (720,745);
},
{
name = bottom;
pos = (597,0);
},
{
name = cedilla;
pos = (98,-6);
},
{
name = cyrtic;
pos = (1138,0);
},
{
name = lfthook;
pos = (1071,0);
},
{
name = right;
pos = (1117,0);
},
{
name = tonos;
pos = (288,1490);
},
{
name = top;
pos = (875,1676);
}
);
layerId = m012;
name = ital_gen;
shapes = (
{
closed = 1;
nodes = (
(123,0,l),
(242.526,722,l),
(1190.526,722,l),
(1071,0,l),
(1117,0,l),
(1363.668,1490,l),
(1317.668,1490,l),
(1198.142,768,l),
(250.142,768,l),
(369.668,1490,l),
(321.668,1490,l),
(75,0,l)
);
}
);
width = 1378;
}
);
unicode = 72;
userData = {
"interface.width-adjustments" = (
-16
);
};
}
{
color = (219,235,247,1);
glyphname = I;
kernLeft = B;
kernRight = H;
layers = (
{
anchors = (
{
name = _center;
pos = (300.792,745);
},
{
name = bottom;
pos = (180,0);
},
{
name = cross;
pos = (306,768);
},
{
name = ogonek;
pos = (268,0);
},
{
name = right;
pos = (282,0);
},
{
name = tonos;
pos = (334,1490);
},
{
name = top;
pos = (454,1676);
}
);
guides = (
{
angle = -99.4;
pos = (552,1852);
}
);
layerId = "11F4534A-B963-4AB5-820F-DAF9A20CD933";
shapes = (
{
closed = 1;
nodes = (
(334,1490,l),
(88,0,l),
(268,0,l),
(514,1490,l)
);
}
);
width = 541;
},
{
anchors = (
{
name = _center;
pos = (330,745);
},
{
name = bottom;
pos = (207,0);
},
{
name = cross;
pos = (335,788);
},
{
name = ogonek;
pos = (409,0);
},
{
name = right;
pos = (435,0);
},
{
name = tonos;
pos = (251,1490);
},
{
name = top;
pos = (487,1676);
}
);
guides = (
{
angle = -99.4;
pos = (605,1356);
}
);
layerId = "D0EC06BF-13F9-4C88-A6F5-B8203AF6C77E";
shapes = (
{
closed = 1;
nodes = (
(251,1490,l),
(3,0,l),
(409,0,l),
(655,1490,l)
);
}
);
width = 598;
},
{
anchors = (
{
name = _center;
pos = (285.792,745);
},
{
name = bottom;
pos = (162,0);
},
{
name = cross;
pos = (290,768);
},
{
name = ogonek;
pos = (186,0);
},
{
name = right;
pos = (194,0);
},
{
name = tonos;
pos = (386,1490);
},
{
name = top;
pos = (442,1676);
}
);
layerId = "200BE2C5-40F6-4CF4-AF4F-A33C0CC0964F";
shapes = (
{
closed = 1;
nodes = (
(386,1490,l),
(140,0,l),
(186,0,l),
(434,1490,l)
);
}
);
width = 512;
},
{
anchors = (
{
name = _center;
pos = (273.924,745);
},
{
name = bottom;
pos = (150.59,0);
},
{
name = cross;
pos = (277.732,768);
},
{
name = ogonek;
pos = (240.59,0);
},
{
name = right;
pos = (256.59,0);
},
{
name = tonos;
pos = (307.258,1490);
},
{
name = top;
pos = (428.05,1676);
}
);
guides = (
{
angle = 80.6;
pos = (80,1848);
}
);
layerId = m008;
name = ital_gen;
shapes = (
{
closed = 1;
nodes = (
(307.258,1490,l),
(60.59,0,l),
(240.59,0,l),
(487.258,1490,l)
);
}
);
width = 476;
},
{
anchors = (
{
name = _center;
pos = (323.924,745);
},
{
name = bottom;
pos = (200.59,0);
},
{
name = cross;
pos = (331.043,788);
},
{
name = ogonek;
pos = (408.59,0);
},
{
name = right;
pos = (434.59,0);
},
{
name = tonos;
pos = (239.258,1490);
},
{
name = top;
pos = (478.05,1676);
}
);
guides = (
{
orientation = center;
angle = 80.6;
pos = (-1560,1240);
}
);
layerId = m010;
name = ital_gen;
shapes = (
{
closed = 1;
nodes = (
(239.258,1490,l),
(-7.41,0,l),
(408.59,0,l),
(655.258,1490,l)
);
}
);
width = 576;
},
{
anchors = (
{
name = _center;
pos = (223,745);
},
{
name = bottom;
pos = (100,0);
},
{
name = cross;
pos = (227,768);
},
{
name = ogonek;
pos = (124,0);
},
{
name = right;
pos = (132,0);
},
{
name = tonos;
pos = (322,1490);
},
{
name = top;
pos = (377,1676);
}
);
layerId = m012;
name = ital_gen;
shapes = (
{
closed = 1;
nodes = (
(322,1490,l),
(76,0,l),
(124,0,l),
(370,1490,l)
);
}
);
width = 385;
}
);
metricLeft = H;
metricRight = H;
unicode = 73;
userData = {
"interface.width-adjustments" = (
-16
);
};
}
{
glyphname = J;
kernLeft = J;
kernRight = J;
layers = (
{
anchors = (
{
name = cross;
pos = (973,884);
},
{
name = top;
pos = (1074,1490);
}
);
layerId = "200BE2C5-40F6-4CF4-AF4F-A33C0CC0964F";
name = ital_gen;
shapes = (
{
closed = 1;
nodes = (
(705,-20,o),
(875,140,o),
(917,396,cs),
(1098,1490,l),
(1052,1490,l),
(871,396,ls),
(833,167,o),
(679,26,o),
(463,26,cs),
(247,26,o),
(142,167,o),
(179,396,cs),
(190,464,l),
(144,464,l),
(133,396,ls),
(92,140,o),
(223,-20,o),
(464,-20,cs)
);
}
);
width = 1176;
},
{
anchors = (
{
name = cross;
pos = (944,884);
},
{
name = top;
pos = (1045,1490);
}
);
layerId = "11F4534A-B963-4AB5-820F-DAF9A20CD933";
name = ital_gen;
shapes = (
{
closed = 1;
nodes = (
(712,-20,o),
(911,139,o),
(958,424,cs),
(1135,1490,l),
(955,1490,l),
(778,424,ls),
(747,239,o),
(627,140,o),
(471,140,cs),
(315,140,o),
(228,239,o),
(258,424,cs),
(271,504,l),
(91,504,l),
(78,424,ls),
(32,139,o),
(194,-20,o),
(453,-20,cs)
);
}
);
width = 1161;
},
{
anchors = (
{
name = cross;
pos = (924,884);
},
{
name = top;
pos = (1025,1490);
}
);
layerId = m008;
name = ital_gen;
shapes = (
{
closed = 1;
nodes = (
(700,-20,o),
(891,139,o),
(938,424,cs),
(1115,1490,l),
(935,1490,l),
(758,424,ls),
(727,239,o),
(602,140,o),
(446,140,cs),
(290,140,o),
(208,239,o),
(238,424,cs),
(251,504,l),
(71,504,l),
(58,424,ls),
(12,139,o),
(182,-20,o),
(441,-20,cs)
);
}
);
width = 1096;
},
{
anchors = (
{
name = cross;
pos = (974,884);
},
{
name = top;
pos = (1079,1490);
}
);
layerId = "D0EC06BF-13F9-4C88-A6F5-B8203AF6C77E";
name = ital_gen;
shapes = (
{
closed = 1;
nodes = (
(852,-20,o),
(1057,155,o),
(1109,468,cs),
(1279,1490,l),
(881,1490,l),
(710,460,ls),
(691,348,o),
(632,294,o),
(543,294,cs),
(452,294,o),
(409,348,o),
(428,458,cs),
(445,559,l),
(41,559,l),
(25,466,ls),
(-29,154,o),
(156,-20,o),
(507,-20,cs)
);
}
);
width = 1221;
},
{
anchors = (
{
name = bottom;
pos = (488,-12);
},
{
name = bottom_dd;
pos = (1096,-408);
},
{
name = cross;
pos = (1032,884);
},
{
name = top;
pos = (1140,1570);
},
{
name = top0315;
pos = (1428,1600);
},
{
name = top_dd;
pos = (1428,1600);
}
);
associatedMasterId = "D0EC06BF-13F9-4C88-A6F5-B8203AF6C77E";
layerId = "AD268349-6365-406D-9447-8D02F922AB8D";
name = "Sep 14 18, 09:53";
shapes = (
{
closed = 1;
nodes = (
(753,384,o),
(695,294,o),
(594,294,cs),
(509,294,o),
(471,349,o),
(486,466,c),
(82,466,l),
(23,122,o),
(236,-20,o),
(520,-20,cs),
(852,-20,o),
(1117,177,o),
(1166,468,c),
(1336,1490,l),
(936,1490,l),
(768,468,l)
);
}
);
width = 1274;
},
{
anchors = (
{
name = cross;
pos = (970,884);
},
{
name = top;
pos = (1071,1490);
}
);
layerId = m010;
name = ital_gen;
shapes = (
{
closed = 1;
nodes = (
(849,-24,o),
(1056,150,o),
(1108,462,cs),
(1279,1490,l),
(863,1490,l),
(694,470,ls),
(678,374,o),
(620,320,o),
(532,320,cs),
(444,320,o),
(404,374,o),
(420,470,cs),
(440,592,l),
(56,592,l),
(36,474,ls),
(-18,154,o),
(159,-24,o),
(498,-24,cs)
);
}
);
width = 1200;
},
{
anchors = (
{
name = bottom;
pos = (488,-12);
},
{
name = bottom_dd;
pos = (1096,-408);
},
{
name = cross;
pos = (1032,884);
},
{
name = top;
pos = (1140,1570);
},
{
name = top0315;
pos = (1428,1600);
},
{
name = top_dd;
pos = (1428,1600);
}
);
associatedMasterId = m010;
layerId = "A924AC49-D08D-4BCF-BF04-5A801DC68FFD";
name = "Sep 14 18, 09:53";
shapes = (
{
closed = 1;
nodes = (
(753,384,o),
(695,294,o),
(594,294,cs),
(509,294,o),
(471,349,o),
(486,466,c),
(82,466,l),
(23,122,o),
(236,-20,o),
(520,-20,cs),
(852,-20,o),
(1117,177,o),
(1166,468,c),
(1336,1490,l),
(936,1490,l),
(768,468,l)
);
}
);
width = 1274;
},
{
anchors = (
{
name = cross;
pos = (928,884);
},
{
name = top;
pos = (1029,1490);
}
);
layerId = m012;
name = ital_gen;
shapes = (
{
closed = 1;
nodes = (
(659,-20,o),
(830,140,o),
(872,396,cs),
(1053,1490,l),
(1007,1490,l),
(826,396,ls),
(788,167,o),
(634,26,o),
(418,26,cs),
(202,26,o),
(97,167,o),
(134,396,cs),
(145,464,l),
(99,464,l),
(88,396,ls),
(47,140,o),
(178,-20,o),
(419,-20,cs)
);
}
);
width = 1034;
}
);
metricRight = U;
unicode = 74;
}
{
color = (219,235,247,1);
glyphname = K;
kernLeft = B;
kernRight = K;
layers = (
{
anchors = (
{
name = _center;
pos = (698.792,745);
},
{
name = bottom;
pos = (596,0);
},
{
name = top;
pos = (856,1676);
}
);
guides = (
{
angle = -99.4;
pos = (836,212);
}
);
layerId = "11F4534A-B963-4AB5-820F-DAF9A20CD933";
shapes = (
{
closed = 1;
nodes = (
(268,0,l),
(350,482,l),
(570,692,l),
(972,0,l),
(1190,0,l),
(702,818,l),
(1438,1490,l),
(1202,1490,l),
(410,750,l),
(392,750,l),
(514,1490,l),
(334,1490,l),
(88,0,l)
);
}
);
width = 1336;
},
{
anchors = (
{
name = _center;
pos = (762.792,745);
},
{
name = bottom;
pos = (632,2);
},
{
name = top;
pos = (910,1676);
}
);
guides = (
{
angle = -99.4;
pos = (1444,1372);
}
);
layerId = "D0EC06BF-13F9-4C88-A6F5-B8203AF6C77E";
shapes = (
{
closed = 1;
nodes = (
(408,0,l),
(472,382,l),
(638,558,l),
(876,0,l),
(1358,0,l),
(984,826,l),
(1594,1490,l),
(1122,1490,l),
(576,888,l),
(556,888,l),
(654,1490,l),
(250,1490,l),
(2,0,l)
);
}
);
width = 1464;
},
{
anchors = (
{
name = _center;
pos = (661.792,745);
},
{
name = bottom;
pos = (542,0);
},
{
name = top;
pos = (824,1676);
}
);
layerId = "200BE2C5-40F6-4CF4-AF4F-A33C0CC0964F";
shapes = (
{
closed = 1;
nodes = (
(186,0,l),
(268,486,l),
(532,734,l),
(1030,0,l),
(1090,0,l),
(570,768,l),
(1346,1490,l),
(1282,1490,l),
(286,562,l),
(280,562,l),
(434,1490,l),
(386,1490,l),
(140,0,l)
);
}
);
width = 1262;
},
{
anchors = (
{
name = _center;
pos = (671.924,745);
},
{
name = bottom;
pos = (550.59,0);
},
{
name = top;
pos = (832.05,1676);
}
);
guides = (
{
angle = 218.2708;
pos = (1456,2048);
},
{
angle = 80.6;
pos = (636,212);
}
);
layerId = m008;
name = ital_gen;
shapes = (
{
closed = 1;
nodes = (
(240.59,0,l),
(320.385,482,l),
(541.15,692,l),
(944.59,0,l),
(1162.59,0,l),
(674.009,818,l),
(1409.258,1490,l),
(1175.258,1490,l),
(382.752,750,l),
(364.752,750,l),
(487.258,1490,l),
(307.258,1490,l),
(60.59,0,l)
);
}
);
width = 1272;
},
{
anchors = (
{
name = _center;
pos = (774.924,745);
},
{
name = bottom;
pos = (630.921,2);
},
{
name = top;
pos = (910.05,1676);
}
);
guides = (
{
orientation = center;
angle = 80.6;
pos = (-3487,1820);
}
);
layerId = m010;
metricRight = "=X-16";
name = ital_gen;
shapes = (
{
closed = 1;
nodes = (
(408.59,0,l),
(472.161,384,l),
(652.96,564,l),
(888.59,0,l),
(1360.59,0,l),
(973.334,826,l),
(1595.258,1490,l),
(1105.258,1490,l),
(557.598,888,l),
(555.598,888,l),
(655.258,1490,l),
(239.258,1490,l),
(-7.41,0,l)
);
}
);
width = 1478;
},
{
anchors = (
{
name = _center;
pos = (602.924,745);
},
{
name = bottom;
pos = (482.59,0);
},
{
name = top;
pos = (764.05,1676);
}
);
guides = (
{
angle = 218.2708;
pos = (1512,2048);
}
);
layerId = m012;
name = ital_gen;
shapes = (
{
closed = 1;
nodes = (
(128.59,0,l),
(209.047,486,l),
(474.103,734,l),
(970.59,0,l),
(1032.59,0,l),
(511.732,768,l),
(1287.258,1490,l),
(1223.258,1490,l),
(227.629,562,l),
(221.629,562,l),
(375.258,1490,l),
(327.258,1490,l),
(80.59,0,l)
);
}
);
width = 1134;
}
);
metricLeft = H;
unicode = 75;
userData = {
com.typemytype.robofont.guideline.magnetic.bB6GeEoQ3O = 5;
"interface.width-adjustments" = (
-16
);
};
}
{
glyphname = L;
kernLeft = B;
kernRight = L;
layers = (
{
anchors = (
{
name = bottom;
pos = (532,0);
},
{
name = cross;
pos = (306,768);
},
{
name = dot;
pos = (642,794);
},
{
name = raccent;
pos = (766,1490);
},
{
name = top;
pos = (460,1676);
}
);
layerId = "11F4534A-B963-4AB5-820F-DAF9A20CD933";
shapes = (
{
closed = 1;
nodes = (
(960,0,l),
(986,160,l),
(294,160,l),
(514,1490,l),
(334,1490,l),
(88,0,l)
);
}
);
width = 1152;
},
{
anchors = (
{
name = bottom;
pos = (461,0);
},
{
name = cross;
pos = (335,788);
},
{
name = dot;
pos = (659,872);
},
{
name = raccent;
pos = (863,1490);
},
{
name = top;
pos = (481,1676);
}
);
guides = (
{
pos = (277,1304);
},
{
orientation = center;
angle = 90;
pos = (440,584);
}
);
layerId = "D0EC06BF-13F9-4C88-A6F5-B8203AF6C77E";
shapes = (
{
closed = 1;
nodes = (
(1011,0,l),
(1065,326,l),
(463,326,l),
(655,1490,l),
(251,1490,l),
(3,0,l)
);
}
);
width = 1171;
},
{
anchors = (
{
name = bottom;
pos = (536,0);
},
{
name = cross;
pos = (290,768);
},
{
name = dot;
pos = (638,748);
},
{
name = raccent;
pos = (780,1490);
},
{
name = top;
pos = (442,1676);
}
);
layerId = "200BE2C5-40F6-4CF4-AF4F-A33C0CC0964F";
shapes = (
{
closed = 1;
nodes = (
(930,0,l),
(940,46,l),
(194,46,l),
(434,1490,l),
(386,1490,l),
(140,0,l)
);
}
);
width = 1152;
},
{
anchors = (
{
name = bottom;
pos = (496.59,0);
},
{
name = cross;
pos = (277.732,768);
},
{
name = dot;
pos = (618.036,794);
},
{
name = raccent;
pos = (741.258,1490);
},
{
name = top;
pos = (428.05,1676);
}
);
guides = (
{
angle = 80.6;
pos = (80,1944);
},
{
angle = 80.6;
pos = (556,-100);
}
);
layerId = m008;
name = ital_gen;
shapes = (
{
closed = 1;
nodes = (
(934.59,0,l),
(961.078,160,l),
(267.078,160,l),
(487.258,1490,l),
(307.258,1490,l),
(60.59,0,l)
);
}
);
width = 1088;
},
{
anchors = (
{
name = bottom;
pos = (496.59,0);
},
{
name = cross;
pos = (323.043,788);
},
{
name = dot;
pos = (646.949,872);
},
{
name = raccent;
pos = (847.258,1490);
},
{
name = top;
pos = (468.05,1676);
}
);
guides = (
{
angle = -9.4;
pos = (-84,1304);
},
{
angle = 80.6;
pos = (728,584);
},
{
angle = -9.4;
pos = (892,-416);
}
);
layerId = m010;
name = ital_gen;
shapes = (
{
closed = 1;
nodes = (
(998.59,0,l),
(1056.863,352,l),
(454.863,352,l),
(643.258,1490,l),
(239.258,1490,l),
(-7.41,0,l)
);
}
);
width = 1138;
},
{
anchors = (
{
name = bottom;
pos = (477,0);
},
{
name = cross;
pos = (232,768);
},
{
name = dot;
pos = (578,748);
},
{
name = raccent;
pos = (721,1490);
},
{
name = top;
pos = (382,1676);
}
);
guides = (
{
angle = 80.6;
pos = (736,2088);
},
{
angle = 80.6;
pos = (224,1932);
}
);
layerId = m012;
name = ital_gen;
shapes = (
{
closed = 1;
nodes = (
(873,0,l),
(880,46,l),
(136,46,l),
(375,1490,l),
(327,1490,l),
(81,0,l)
);
}
);
width = 1024;
}
);
metricLeft = H;
unicode = 76;
userData = {
"interface.width-adjustments" = (
-16
);
};
}
{
color = (219,235,247,1);
glyphname = M;
kernLeft = B;
kernRight = H;
layers = (
{
anchors = (
{
name = _center;
pos = (940.792,745);
},
{
name = bottom;
pos = (818,0);
},
{
name = right;
pos = (1528,0);
},
{
name = top;
pos = (1096,1676);
}
);
guides = (
{
angle = 90;
pos = (716,152);
},
{
angle = 90;
pos = (1584,2056);
},
{
angle = 90;
pos = (3000,2060);
}
);
layerId = "11F4534A-B963-4AB5-820F-DAF9A20CD933";
shapes = (
{
closed = 1;
nodes = (
(88,0,l),
(256,0,l),
(446,1132,l),
(460,1132,l),
(736,0,l),
(898,0,l),
(1554,1132,l),
(1568,1132,l),
(1378,0,l),
(1548,0,l),
(1794,1490,l),
(1580,1490,l),
(870,254,l),
(852,254,l),
(550,1490,l),
(334,1490,l)
);
}
);
width = 1821;
},
{
anchors = (
{
name = _center;
pos = (984.792,745);
},
{
name = bottom;
pos = (862,0);
},
{
name = right;
pos = (1720,0);
},
{
name = top;
pos = (1140,1676);
}
);
guides = (
{
pos = (384,1220);
},
{
angle = 90;
pos = (2184,1848);
},
{
angle = 90;
pos = (1916,2164);
},
{
angle = 90;
pos = (2880,2040);
}
);
layerId = "D0EC06BF-13F9-4C88-A6F5-B8203AF6C77E";
shapes = (
{
closed = 1;
nodes = (
(2,0,l),
(398,0,l),
(544,866,l),
(556,866,l),
(744,12,l),
(984,12,l),
(1454,862,l),
(1466,862,l),
(1324,0,l),
(1720,0,l),
(1966,1490,l),
(1464,1490,l),
(978,646,l),
(960,646,l),
(754,1490,l),
(250,1490,l)
);
}
);
width = 1909;
},
{
anchors = (
{
name = _center;
pos = (913.792,745);
},
{
name = bottom;
pos = (792,0);
},
{
name = right;
pos = (1442,0);
},
{
name = top;
pos = (1070,1676);
}
);
layerId = "200BE2C5-40F6-4CF4-AF4F-A33C0CC0964F";
shapes = (
{
closed = 1;
nodes = (
(140,0,l),
(186,0,l),
(410,1344,l),
(416,1344,l),
(768,0,l),
(814,0,l),
(1614,1344,l),
(1620,1344,l),
(1396,0,l),
(1442,0,l),
(1690,1490,l),
(1650,1490,l),
(806,70,l),
(800,70,l),
(428,1490,l),
(386,1490,l)
);
}
);
width = 1767;
},
{
anchors = (
{
name = _center;
pos = (909.924,745);
},
{
name = bottom;
pos = (786.59,0);
},
{
name = right;
pos = (1512.59,0);
},
{
name = top;
pos = (1064.05,1676);
}
);
guides = (
{
orientation = center;
angle = 80.6;
pos = (-7117,152);
},
{
angle = 80.6;
pos = (224,2056);
},
{
angle = 80.6;
pos = (874,1578);
}
);
layerId = m008;
name = ital_gen;
shapes = (
{
closed = 1;
nodes = (
(60.59,0,l),
(230.59,0,l),
(428.918,1198,l),
(432.918,1198,l),
(710.59,0,l),
(857.59,0,l),
(1529.918,1198,l),
(1533.918,1198,l),
(1335.59,0,l),
(1512.59,0,l),
(1759.258,1490,l),
(1516.258,1490,l),
(830.308,252,l),
(826.308,252,l),
(545.258,1490,l),
(307.258,1490,l)
);
}
);
width = 1748;
},
{
anchors = (
{
name = _center;
pos = (977.924,745);
},
{
name = bottom;
pos = (850.59,0);
},
{
name = right;
pos = (1708.59,0);
},
{
name = top;
pos = (1128.05,1676);
}
);
guides = (
{
angle = -9.4;
pos = (92,1220);
},
{
orientation = center;
angle = 80.6;
pos = (-3742,2164);
},
{
angle = 80.6;
pos = (858,1520);
}
);
layerId = m010;
name = ital_gen;
shapes = (
{
closed = 1;
nodes = (
(-7.41,0,l),
(388.59,0,l),
(531.956,866,l),
(533.956,866,l),
(732.577,12,l),
(972.577,12,l),
(1453.293,862,l),
(1455.293,862,l),
(1312.59,0,l),
(1716.59,0,l),
(1963.258,1490,l),
(1452.258,1490,l),
(959.184,662,l),
(957.184,662,l),
(741.258,1490,l),
(239.258,1490,l)
);
}
);
width = 1884;
},
{
anchors = (
{
name = _center;
pos = (855.924,745);
},
{
name = bottom;
pos = (732.59,0);
},
{
name = right;
pos = (1384.59,0);
},
{
name = top;
pos = (1010.05,1676);
}
);
layerId = m012;
name = ital_gen;
shapes = (
{
closed = 1;
nodes = (
(80.59,0,l),
(128.59,0,l),
(351.088,1344,l),
(357.088,1344,l),
(710.59,0,l),
(756.59,0,l),
(1555.088,1344,l),
(1561.088,1344,l),
(1338.59,0,l),
(1384.59,0,l),
(1631.258,1490,l),
(1591.258,1490,l),
(748.179,70,l),
(742.179,70,l),
(369.258,1490,l),
(327.258,1490,l)
);
}
);
width = 1640;
}
);
metricLeft = H;
metricRight = H;
unicode = 77;
userData = {
com.typemytype.robofont.guideline.magnetic.ezYETy42tZ = 5;
com.typemytype.robofont.guideline.magnetic.wu5HJlZVk6 = 5;
com.typemytype.robofont.guideline.magnetic.x5YoYrsuLC = 5;
"interface.width-adjustments" = (
-16
);
};
}
{
color = (219,235,247,1);
glyphname = N;
kernLeft = B;
kernRight = H;
layers = (
{
anchors = (
{
name = _center;
pos = (820.792,745);
},
{
name = bottom;
pos = (698,0);
},
{
name = right;
pos = (1208,0);
},
{
name = top;
pos = (978,1676);
}
);
layerId = "200BE2C5-40F6-4CF4-AF4F-A33C0CC0964F";
shapes = (
{
closed = 1;
nodes = (
(1458,1490,l),
(1224,88,l),
(1218,88,l),
(434,1490,l),
(386,1490,l),
(140,0,l),
(186,0,l),
(418,1402,l),
(424,1402,l),
(1210,0,l),
(1256,0,l),
(1504,1490,l)
);
}
);
width = 1581;
},
{
anchors = (
{
name = _center;
pos = (801.792,745);
},
{
name = bottom;
pos = (678,0);
},
{
name = right;
pos = (1266,0);
},
{
name = top;
pos = (958,1676);
}
);
guides = (
{
angle = -99.4;
pos = (804,284);
}
);
layerId = "11F4534A-B963-4AB5-820F-DAF9A20CD933";
shapes = (
{
closed = 1;
nodes = (
(1338,1490,l),
(1144,318,l),
(1128,318,l),
(510,1490,l),
(334,1490,l),
(88,0,l),
(268,0,l),
(462,1170,l),
(478,1170,l),
(1094,0,l),
(1268,0,l),
(1516,1490,l)
);
}
);
width = 1542;
},
{
anchors = (
{
name = _center;
pos = (767.924,745);
},
{
name = bottom;
pos = (650.59,0);
},
{
name = right;
pos = (1244.59,0);
},
{
name = top;
pos = (928.05,1676);
}
);
layerId = m008;
name = ital_gen;
shapes = (
{
closed = 1;
nodes = (
(1299.258,1490,l),
(1100.93,292,l),
(1096.93,292,l),
(489.258,1490,l),
(307.258,1490,l),
(60.59,0,l),
(236.59,0,l),
(434.09,1193,l),
(438.09,1193,l),
(1050.59,0,l),
(1228.59,0,l),
(1475.258,1490,l)
);
}
);
width = 1464;
},
{
anchors = (
{
name = _center;
pos = (770.792,745);
},
{
name = bottom;
pos = (648,0);
},
{
name = right;
pos = (1362,0);
},
{
name = top;
pos = (928,1676);
}
);
guides = (
{
pos = (744,1652);
},
{
angle = -99.4;
pos = (664,240);
}
);
layerId = "D0EC06BF-13F9-4C88-A6F5-B8203AF6C77E";
shapes = (
{
closed = 1;
nodes = (
(1134,1490,l),
(1006,710,l),
(994,710,l),
(594,1490,l),
(250,1490,l),
(2,0,l),
(408,0,l),
(538,782,l),
(546,782,l),
(954,0,l),
(1292,0,l),
(1538,1490,l)
);
}
);
width = 1481;
},
{
anchors = (
{
name = _center;
pos = (789.924,745);
},
{
name = bottom;
pos = (666.59,0);
},
{
name = right;
pos = (1340.59,0);
},
{
name = top;
pos = (944.05,1676);
}
);
guides = (
{
orientation = center;
angle = 80.6;
pos = (-3890,1520);
}
);
layerId = m010;
name = ital_gen;
shapes = (
{
closed = 1;
nodes = (
(1171.258,1490,l),
(1039.481,694,l),
(1037.481,694,l),
(591.258,1490,l),
(239.258,1490,l),
(-7.41,0,l),
(404.59,0,l),
(536.698,798,l),
(538.698,798,l),
(992.59,0,l),
(1340.59,0,l),
(1587.258,1490,l)
);
}
);
width = 1508;
},
{
anchors = (
{
name = _center;
pos = (762.924,745);
},
{
name = bottom;
pos = (640.59,0);
},
{
name = right;
pos = (1148.59,0);
},
{
name = top;
pos = (918.05,1676);
}
);
layerId = m012;
name = ital_gen;
shapes = (
{
closed = 1;
nodes = (
(1399.258,1490,l),
(1167.158,88,l),
(1161.158,88,l),
(375.258,1490,l),
(327.258,1490,l),
(80.59,0,l),
(128.59,0,l),
(360.69,1402,l),
(366.69,1402,l),
(1152.59,0,l),
(1198.59,0,l),
(1445.258,1490,l)
);
}
);
width = 1454;
}
);
metricLeft = H;
metricRight = H;
unicode = 78;
userData = {
"interface.width-adjustments" = (
-16
);
};
}
{
color = (219,235,247,1);
glyphname = O;
kernLeft = C;
kernRight = D;
layers = (
{
anchors = (
{
name = _center;
pos = (795.792,745);
},
{
name = bottom;
pos = (673,0);
},
{
name = ogonek;
pos = (707,0);
},
{
name = tonos;
pos = (376,1490);
},
{
name = top;
pos = (951,1676);
},
{
name = tophorn;
pos = (1297,1295);
}
);
layerId = "200BE2C5-40F6-4CF4-AF4F-A33C0CC0964F";
shapes = (
{
closed = 1;
nodes = (
(1036,-20,o),
(1337,289,o),
(1413,744,cs),
(1488,1200,o),
(1289,1510,o),
(923,1510,cs),
(555,1510,o),
(254,1199,o),
(179,744,cs),
(104,291,o),
(301,-20,o),
(670,-20,cs)
);
},
{
closed = 1;
nodes = (
(336,26,o),
(155,314,o),
(224,737,cs),
(295,1169,o),
(579,1464,o),
(923,1464,cs),
(1257,1464,o),
(1438,1175,o),
(1368,752,cs),
(1296,321,o),
(1013,26,o),
(670,26,cs)
);
}
);
width = 1530;
},
{
anchors = (
{
name = _center;
pos = (736.924,745);
},
{
name = bottom;
pos = (614.59,0);
},
{
name = ogonek;
pos = (648.59,0);
},
{
name = tonos;
pos = (317.258,1490);
},
{
name = top;
pos = (892.05,1676);
},
{
name = tophorn;
pos = (1237.976,1295);
}
);
layerId = m012;
name = ital_gen;
shapes = (
{
closed = 1;
nodes = (
(977.279,-20,o),
(1278.434,289,o),
(1353.759,744,cs),
(1429.249,1200,o),
(1230.569,1510,o),
(864.569,1510,cs),
(496.569,1510,o),
(195.083,1199,o),
(119.759,744,cs),
(44.765,291,o),
(242.279,-20,o),
(611.279,-20,cs)
);
},
{
closed = 1;
nodes = (
(275.894,26,o),
(95.566,320,o),
(165.759,744,cs),
(237.11,1175,o),
(518.954,1464,o),
(856.954,1464,cs),
(1194.954,1464,o),
(1378.614,1172,o),
(1307.759,744,cs),
(1237.069,317,o),
(956.894,26,o),
(618.894,26,cs)
);
}
);
width = 1402;
},
{
anchors = (
{
name = _center;
pos = (810.792,745);
},
{
name = bottom;
pos = (688,0);
},
{
name = ogonek;
pos = (828,-6);
},
{
name = tonos;
pos = (352,1490);
},
{
name = top;
pos = (966,1676);
},
{
name = tophorn;
pos = (1270,1186);
}
);
layerId = "11F4534A-B963-4AB5-820F-DAF9A20CD933";
shapes = (
{
closed = 1;
nodes = (
(1071,-20,o),
(1390,267,o),
(1467,733,cs),
(1546,1210,o),
(1314,1510,o),
(928,1510,cs),
(552,1510,o),
(232,1222,o),
(154,755,cs),
(76,279,o),
(309,-20,o),
(696,-20,cs)
);
},
{
closed = 1;
nodes = (
(437,148,o),
(262,352,o),
(325,733,cs),
(390,1126,o),
(645,1342,o),
(921,1342,cs),
(1186,1342,o),
(1360,1138,o),
(1296,755,cs),
(1232,364,o),
(978,148,o),
(702,148,cs)
);
}
);
width = 1560;
},
{
anchors = (
{
name = bottom;
pos = (686,0);
},
{
name = bottom_dd;
pos = (1330,-408);
},
{
name = ogonek;
pos = (830,-6);
},
{
name = tonos;
pos = (440,1490);
},
{
name = top;
pos = (966,1676);
},
{
name = top0315;
pos = (1614,1600);
},
{
name = top_dd;
pos = (1614,1600);
}
);
associatedMasterId = "11F4534A-B963-4AB5-820F-DAF9A20CD933";
guides = (
{
angle = 90;
pos = (1512,1652);
}
);
layerId = "E11F9D15-1819-45F7-A1B9-2845A462DB74";
name = "Sep 11 18, 23:22";
shapes = (
{
closed = 1;
nodes = (
(1545,1216,o),
(1318,1510,o),
(936,1510,cs),
(556,1510,o),
(230,1216,o),
(154,744,c),
(76,273,o),
(303,-20,o),
(684,-20,cs),
(1065,-20,o),
(1391,273,o),
(1470,744,c)
);
},
{
closed = 1;
nodes = (
(1231,358,o),
(983,148,o),
(712,148,cs),
(442,148,o),
(265,358,o),
(328,744,c),
(393,1132,o),
(640,1341,o),
(910,1342,cs),
(1181,1341,o),
(1359,1132,o),
(1294,744,c)
);
}
);
width = 1560;
},
{
anchors = (
{
name = _center;
pos = (802.924,745);
},
{
name = bottom;
pos = (679.59,0);
},
{
name = ogonek;
pos = (844.59,0);
},
{
name = tonos;
pos = (328.258,1490);
},
{
name = top;
pos = (957.05,1676);
},
{
name = tophorn;
pos = (1277.931,1186);
}
);
guides = (
{
angle = 80.6;
pos = (767,1568);
}
);
layerId = m008;
name = ital_gen;
shapes = (
{
closed = 1;
nodes = (
(1070.617,-24,o),
(1405.758,297,o),
(1479.759,744,cs),
(1554.09,1193,o),
(1325.231,1514,o),
(930.231,1514,cs),
(535.231,1514,o),
(200.09,1193,o),
(125.759,744,cs),
(51.758,297,o),
(280.617,-24,o),
(675.617,-24,cs)
);
},
{
closed = 1;
nodes = (
(432.429,144,o),
(241.857,358,o),
(305.759,744,cs),
(369.992,1132,o),
(631.419,1346,o),
(902.419,1346,cs),
(1172.419,1346,o),
(1363.992,1132,o),
(1299.759,744,cs),
(1235.857,358,o),
(973.429,144,o),
(703.429,144,cs)
);
}
);
width = 1534;
},
{
anchors = (
{
name = bottom;
pos = (686,0);
},
{
name = bottom_dd;
pos = (1330,-408);
},
{
name = ogonek;
pos = (830,-6);
},
{
name = tonos;
pos = (440,1490);
},
{
name = top;
pos = (966,1676);
},
{
name = top0315;
pos = (1614,1600);
},
{
name = top_dd;
pos = (1614,1600);
}
);
associatedMasterId = m008;
guides = (
{
angle = 90;
pos = (1512,1652);
}
);
layerId = "1F7EAFDE-8B80-41F7-8CAE-2AEEE1B049F0";
name = "Sep 11 18, 23:22";
shapes = (
{
closed = 1;
nodes = (
(1545,1216,o),
(1318,1510,o),
(936,1510,cs),
(556,1510,o),
(230,1216,o),
(154,744,c),
(76,273,o),
(303,-20,o),
(684,-20,cs),
(1065,-20,o),
(1391,273,o),
(1470,744,c)
);
},
{
closed = 1;
nodes = (
(1231,358,o),
(983,148,o),
(712,148,cs),
(442,148,o),
(265,358,o),
(328,744,c),
(393,1132,o),
(640,1341,o),
(910,1342,cs),
(1181,1341,o),
(1359,1132,o),
(1294,744,c)
);
}
);
width = 1560;
},
{
anchors = (
{
name = _center;
pos = (844.792,745);
},
{
name = bottom;
pos = (721,0);
},
{
name = ogonek;
pos = (930,6);
},
{
name = tonos;
pos = (326,1490);
},
{
name = top;
pos = (999,1676);
},
{
name = tophorn;
pos = (1395,1056);
}
);
background = {
shapes = (
{
closed = 1;
nodes = (
(1649,1228,o),
(1367,1510,o),
(952,1510,cs),
(556,1510,o),
(204,1251,o),
(126,766,cs),
(41,259,o),
(323,-20,o),
(742,-20,cs),
(1135,-20,o),
(1484,233,o),
(1566,718,cs)
);
},
{
closed = 1;
nodes = (
(1111,489,o),
(969,332,o),
(756,332,cs),
(570,332,o),
(486,460,o),
(532,718,cs),
(576,995,o),
(721,1158,o),
(936,1158,cs),
(1126,1158,o),
(1199,1021,o),
(1158,766,cs)
);
}
);
};
guides = (
{
angle = 90;
pos = (3688,2104);
}
);
layerId = "D0EC06BF-13F9-4C88-A6F5-B8203AF6C77E";
shapes = (
{
closed = 1;
nodes = (
(1133,-20,o),
(1484,234,o),
(1564,718,cs),
(1649,1229,o),
(1366,1510,o),
(951,1510,cs),
(554,1510,o),
(205,1255,o),
(125,770,cs),
(41,263,o),
(321,-20,o),
(739,-20,cs)
);
},
{
closed = 1;
nodes = (
(566,332,o),
(490,464,o),
(532,718,cs),
(579,999,o),
(723,1158,o),
(934,1158,cs),
(1124,1158,o),
(1199,1025,o),
(1157,770,cs),
(1111,490,o),
(967,332,o),
(756,332,cs)
);
}
);
width = 1628;
},
{
anchors = (
{
name = bottom;
pos = (678,0);
},
{
name = bottom_dd;
pos = (1350,-408);
},
{
name = ogonek;
pos = (878,6);
},
{
name = tonos;
pos = (366,1490);
},
{
name = top;
pos = (940,1586);
},
{
name = top0315;
pos = (1696,1600);
},
{
name = top_dd;
pos = (1696,1600);
}
);
associatedMasterId = "D0EC06BF-13F9-4C88-A6F5-B8203AF6C77E";
guides = (
{
angle = 90;
pos = (1468,2104);
}
);
layerId = "62410FF8-B362-47DD-87E9-ADD04A63F2F4";
name = "Sep 14 18, 09:39";
shapes = (
{
closed = 1;
nodes = (
(1568,1239,o),
(1312,1510,o),
(928,1510,cs),
(541,1510,o),
(195,1239,o),
(110,742,c),
(29,247,o),
(288,-20,o),
(674,-20,cs),
(1059,-20,o),
(1402,244,o),
(1484,742,c)
);
},
{
closed = 1;
nodes = (
(1030,474,o),
(913,335,o),
(734,334,cs),
(550,335,o),
(477,474,o),
(520,742,c),
(567,1012,o),
(687,1155,o),
(870,1154,cs),
(1050,1155,o),
(1120,1012,o),
(1074,742,c)
);
}
);
width = 1536;
},
{
anchors = (
{
name = _center;
pos = (799.924,745);
},
{
name = bottom;
pos = (676.59,0);
},
{
name = ogonek;
pos = (885.583,6);
},
{
name = tonos;
pos = (281.258,1490);
},
{
name = top;
pos = (954.05,1676);
},
{
name = tophorn;
pos = (1350.41,1056);
}
);
guides = (
{
orientation = center;
angle = 80.6;
pos = (-3658,940);
},
{
orientation = center;
angle = 80.6;
pos = (-4942,1003);
},
{
angle = -9.4;
name = "x-Height";
pos = (-34,1056);
}
);
layerId = m010;
metricLeft = "=H/2";
metricRight = "=H/2";
name = ital_gen;
shapes = (
{
closed = 1;
nodes = (
(1077.617,-24,o),
(1441.481,247,o),
(1523.759,744,cs),
(1606.202,1242,o),
(1332.231,1514,o),
(927.231,1514,cs),
(520.231,1514,o),
(158.202,1242,o),
(75.759,744,cs),
(-6.023,250,o),
(265.617,-24,o),
(672.617,-24,cs)
);
},
{
closed = 1;
nodes = (
(537.215,336,o),
(453.212,487,o),
(495.759,744,cs),
(538.47,1002,o),
(672.634,1154,o),
(867.634,1154,cs),
(1063.634,1154,o),
(1146.47,1002,o),
(1103.759,744,cs),
(1061.212,487,o),
(928.215,336,o),
(732.215,336,cs)
);
}
);
width = 1528;
},
{
anchors = (
{
name = bottom;
pos = (678,0);
},
{
name = bottom_dd;
pos = (1350,-408);
},
{
name = ogonek;
pos = (878,6);
},
{
name = tonos;
pos = (366,1490);
},
{
name = top;
pos = (940,1586);
},
{
name = top0315;
pos = (1696,1600);
},
{
name = top_dd;
pos = (1696,1600);
}
);
associatedMasterId = m010;
guides = (
{
angle = 90;
pos = (1468,2104);
}
);
layerId = "6CE4CD18-139D-4104-8C3F-0FEC8A7796D2";
name = "Sep 14 18, 09:39";
shapes = (
{
closed = 1;
nodes = (
(1568,1239,o),
(1312,1510,o),
(928,1510,cs),
(541,1510,o),
(195,1239,o),
(110,742,c),
(29,247,o),
(288,-20,o),
(674,-20,cs),
(1059,-20,o),
(1402,244,o),
(1484,742,c)
);
},
{
closed = 1;
nodes = (
(1030,474,o),
(913,335,o),
(734,334,cs),
(550,335,o),
(477,474,o),
(520,742,c),
(567,1012,o),
(687,1155,o),
(870,1154,cs),
(1050,1155,o),
(1120,1012,o),
(1074,742,c)
);
}
);
width = 1536;
}
);
unicode = 79;
userData = {
com.typemytype.robofont.guideline.magnetic.GU6fgH972W = 5;
"interface.width-adjustments" = (
-16
);
};
}
{
color = (219,235,247,1);
glyphname = P;
kernLeft = B;
kernRight = P;
layers = (
{
anchors = (
{
name = _center;
pos = (651.792,745);
},
{
name = tonos;
pos = (344,1490);
},
{
name = top;
pos = (824,1676);
}
);
layerId = "200BE2C5-40F6-4CF4-AF4F-A33C0CC0964F";
shapes = (
{
closed = 1;
nodes = (
(186,0,l),
(424,1442,l),
(814,1442,ls),
(1039,1443,o),
(1169,1283,o),
(1132,1054,cs),
(1094,826,o),
(911,666,o),
(686,666,cs),
(274,666,l),
(264,620,l),
(678,620,ls),
(928,620,o),
(1137,800,o),
(1178,1054,cs),
(1222,1309,o),
(1073,1489,o),
(824,1490,cs),
(386,1490,l),
(140,0,l)
);
}
);
width = 1242;
},
{
anchors = (
{
name = _center;
pos = (679.792,745);
},
{
name = tonos;
pos = (300,1490);
},
{
name = top;
pos = (834,1676);
}
);
guides = (
{
angle = 90;
pos = (2216,1760);
},
{
angle = 90;
pos = (2108,1804);
}
);
layerId = "11F4534A-B963-4AB5-820F-DAF9A20CD933";
shapes = (
{
closed = 1;
nodes = (
(268,0,l),
(488,1330,l),
(806,1330,l),
(1047,1329,o),
(1117,1199,o),
(1088,1018,cs),
(1059,841,o),
(943,704,o),
(704,704,c),
(350,704,l),
(322,544,l),
(684,544,l),
(1030,544,o),
(1222,756,o),
(1266,1018,cs),
(1309,1283,o),
(1187,1489,o),
(838,1490,c),
(334,1490,l),
(88,0,l)
);
}
);
width = 1298;
},
{
anchors = (
{
name = _center;
pos = (653.924,745);
},
{
name = tonos;
pos = (273.258,1490);
},
{
name = top;
pos = (806.05,1676);
}
);
guides = (
{
angle = 80.6;
pos = (1104,1760);
},
{
angle = 80.6;
pos = (956,1804);
}
);
layerId = m008;
name = ital_gen;
shapes = (
{
closed = 1;
nodes = (
(240.59,0,l),
(460.77,1330,l),
(778.77,1330,ls),
(1020.77,1330,o),
(1090.752,1197,o),
(1061.119,1018,cs),
(1031.486,839,o),
(917.137,704,o),
(677.137,704,cs),
(323.137,704,l),
(296.649,544,l),
(656.649,544,ls),
(1003.649,544,o),
(1195.58,755,o),
(1239.119,1018,cs),
(1282.658,1281,o),
(1160.258,1490,o),
(811.258,1490,cs),
(307.258,1490,l),
(60.59,0,l)
);
}
);
width = 1236;
},
{
anchors = (
{
name = _center;
pos = (702.792,745);
},
{
name = tonos;
pos = (230,1490);
},
{
name = top;
pos = (844,1676);
}
);
guides = (
{
pos = (396,1240);
},
{
pos = (4,764);
},
{
pos = (652,1552);
},
{
pos = (1312,1372);
}
);
layerId = "D0EC06BF-13F9-4C88-A6F5-B8203AF6C77E";
shapes = (
{
closed = 1;
nodes = (
(408,0,l),
(602,1166,l),
(744,1166,ls),
(887,1167,o),
(957,1091,o),
(936,962,cs),
(916,835,o),
(820,756,o),
(674,756,cs),
(372,756,l),
(320,442,l),
(704,442,ls),
(1047,442,o),
(1306,640,o),
(1358,962,cs),
(1411,1280,o),
(1225,1489,o),
(894,1490,cs),
(250,1490,l),
(2,0,l)
);
}
);
width = 1344;
},
{
anchors = (
{
name = _center;
pos = (689.924,745);
},
{
name = tonos;
pos = (227.258,1490);
},
{
name = top;
pos = (840.05,1676);
}
);
layerId = m010;
name = ital_gen;
shapes = (
{
closed = 1;
nodes = (
(404.59,0,l),
(595.303,1152,l),
(757.303,1152,ls),
(901.303,1152,o),
(959.866,1095,o),
(939.835,974,cs),
(919.803,853,o),
(842.367,796,o),
(698.367,796,cs),
(376.367,796,l),
(323.06,474,l),
(662.06,474,ls),
(1054.06,474,o),
(1292.694,653,o),
(1345.835,974,cs),
(1400.797,1306,o),
(1227.258,1490,o),
(844.258,1490,cs),
(239.258,1490,l),
(-7.41,0,l)
);
}
);
width = 1308;
},
{
anchors = (
{
name = _center;
pos = (592.924,745);
},
{
name = tonos;
pos = (285.258,1490);
},
{
name = top;
pos = (764.05,1676);
}
);
layerId = m012;
name = ital_gen;
shapes = (
{
closed = 1;
nodes = (
(128.59,0,l),
(367.312,1442,l),
(757.312,1442,ls),
(979.312,1442,o),
(1110.658,1281,o),
(1073.079,1054,cs),
(1035.334,826,o),
(850.846,666,o),
(628.846,666,cs),
(214.846,666,l),
(207.231,620,l),
(621.231,620,ls),
(870.231,620,o),
(1076.864,799,o),
(1119.079,1054,cs),
(1161.128,1308,o),
(1014.258,1490,o),
(765.258,1490,cs),
(327.258,1490,l),
(80.59,0,l)
);
}
);
width = 1114;
}
);
metricLeft = H;
unicode = 80;
userData = {
com.typemytype.robofont.guideline.magnetic.fNIC4eKo9v = 5;
com.typemytype.robofont.guideline.magnetic.hdLF6WxJ6g = 5;
"interface.width-adjustments" = (
-16
);
};
}
{
color = (219,235,247,1);
glyphname = Q;
kernLeft = C;
kernRight = D;
layers = (
{
anchors = (
{
name = _center;
pos = (814.859,685);
}
);
layerId = "11F4534A-B963-4AB5-820F-DAF9A20CD933";
shapes = (
{
closed = 1;
nodes = (
(948,134,l),
(990,78,l),
(1152,-140,l),
(1350,-140,l),
(1102,190,l),
(1058,248,l),
(894,466,l),
(696,466,l)
);
},
{
ref = O;
}
);
width = 1588;
},
{
anchors = (
{
name = _center;
pos = (837.342,700);
}
);
guides = (
{
angle = 90;
pos = (1588,1432);
}
);
layerId = "D0EC06BF-13F9-4C88-A6F5-B8203AF6C77E";
shapes = (
{
closed = 1;
nodes = (
(834,268,l),
(928,96,l),
(1070,-110,l),
(1428,-110,l),
(1228,192,l),
(1074,410,l),
(984,552,l),
(670,552,l)
);
},
{
ref = O;
}
);
width = 1629;
},
{
anchors = (
{
name = _center;
pos = (789.859,685);
}
);
layerId = "200BE2C5-40F6-4CF4-AF4F-A33C0CC0964F";
shapes = (
{
closed = 1;
nodes = (
(1018,122,l),
(1026,110,l),
(1216,-140,l),
(1274,-140,l),
(1068,134,l),
(1058,146,l),
(818,466,l),
(760,466,l)
);
},
{
alignment = -1;
ref = O;
}
);
width = 1538;
},
{
anchors = (
{
name = _center;
pos = (793.322,687);
}
);
layerId = m008;
name = ital_gen;
shapes = (
{
closed = 1;
nodes = (
(876.774,134,l),
(909.503,78,l),
(1035.413,-140,l),
(1233.413,-140,l),
(1040.044,190,l),
(1007.646,248,l),
(877.736,466,l),
(679.736,466,l)
);
},
{
ref = O;
}
);
width = 1534;
},
{
anchors = (
{
name = _center;
pos = (815.806,702);
}
);
background = {
shapes = (
{
closed = 1;
nodes = (
(1355,-136,l),
(1540,51,l),
(1365,225,l),
(1478,358,o),
(1542,536,o),
(1542,741,cs),
(1542,1179,o),
(1251,1505,o),
(796,1505,cs),
(341,1505,o),
(55,1179,o),
(55,741,cs),
(55,303,o),
(341,-21,o),
(796,-21,cs),
(933,-21,o),
(1054,8,o),
(1159,61,c)
);
},
{
closed = 1;
nodes = (
(593,321,o),
(489,501,o),
(489,741,cs),
(489,981,o),
(593,1163,o),
(798,1163,cs),
(1003,1163,o),
(1107,981,o),
(1107,741,cs),
(1107,657,o),
(1095,583,o),
(1071,520,c),
(933,657,l),
(749,471,l),
(886,333,l),
(860,325,o),
(829,321,o),
(798,321,cs)
);
}
);
};
guides = (
{
angle = 80.6;
pos = (928,1432);
}
);
layerId = m010;
name = ital_gen;
shapes = (
{
closed = 1;
nodes = (
(828.957,268,l),
(942.483,96,l),
(1078.38,-110,l),
(1428.38,-110,l),
(1220.376,192,l),
(1064.465,410,l),
(973.973,552,l),
(659.973,552,l)
);
},
{
ref = O;
}
);
width = 1574;
},
{
anchors = (
{
name = _center;
pos = (726.991,685);
}
);
layerId = m012;
name = ital_gen;
shapes = (
{
closed = 1;
nodes = (
(950.787,122,l),
(956.801,110,l),
(1105.413,-140,l),
(1163.413,-140,l),
(1002.774,134,l),
(994.76,146,l),
(807.736,466,l),
(749.736,466,l)
);
},
{
alignment = -1;
ref = O;
}
);
width = 1402;
}
);
metricLeft = O;
metricRight = O;
unicode = 81;
userData = {
"interface.width-adjustments" = (
-16
);
};
}
{
color = (219,235,247,1);
glyphname = R;
kernLeft = B;
kernRight = R;
layers = (
{
anchors = (
{
name = _center;
pos = (660.792,745);
},
{
name = bottom;
pos = (552,0);
},
{
name = top;
pos = (812,1676);
}
);
layerId = "200BE2C5-40F6-4CF4-AF4F-A33C0CC0964F";
shapes = (
{
closed = 1;
nodes = (
(186,0,l),
(424,1442,l),
(814,1442,ls),
(1039,1443,o),
(1172,1295,o),
(1134,1064,cs),
(1097,838,o),
(913,689,o),
(690,690,cs),
(276,690,l),
(270,642,l),
(684,642,ls),
(934,643,o),
(1137,812,o),
(1182,1064,cs),
(1222,1321,o),
(1073,1489,o),
(824,1490,cs),
(386,1490,l),
(140,0,l)
);
},
{
closed = 1;
nodes = (
(1074,0,l),
(820,678,l),
(770,678,l),
(1024,0,l)
);
}
);
width = 1260;
},
{
anchors = (
{
name = _center;
pos = (685.792,745);
},
{
name = bottom;
pos = (578,0);
},
{
name = top;
pos = (832,1676);
}
);
guides = (
{
angle = -99.4;
pos = (1560,2112);
}
);
layerId = "11F4534A-B963-4AB5-820F-DAF9A20CD933";
shapes = (
{
closed = 1;
nodes = (
(268,0,l),
(488,1330,l),
(806,1330,ls),
(1047,1329,o),
(1120,1213,o),
(1090,1032,cs),
(1062,855,o),
(951,745,o),
(712,744,cs),
(312,744,l),
(282,582,l),
(690,582,ls),
(1036,582,o),
(1225,771,o),
(1268,1032,cs),
(1312,1297,o),
(1187,1489,o),
(838,1490,cs),
(334,1490,l),
(88,0,l)
);
},
{
closed = 1;
nodes = (
(1154,0,l),
(898,670,l),
(696,670,l),
(946,0,l)
);
}
);
width = 1310;
},
{
anchors = (
{
name = _center;
pos = (658.924,745);
},
{
name = bottom;
pos = (552.59,0);
},
{
name = top;
pos = (804.05,1676);
}
);
background = {
shapes = (
{
closed = 1;
nodes = (
(360,0,l),
(360,1330,l),
(706,1330,ls),
(905,1329,o),
(1012,1219,o),
(1012,1032,cs),
(1012,855,o),
(911,745,o),
(686,744,cs),
(290,744,l),
(290,582,l),
(724,582,l),
(1038,0,l),
(1248,0,l),
(910,616,l),
(1100,687,o),
(1190,844,o),
(1190,1036,cs),
(1190,1303,o),
(1015,1489,o),
(716,1490,cs),
(180,1490,l),
(180,0,l)
);
}
);
};
guides = (
{
orientation = center;
angle = 80.6;
pos = (-5113,2112);
}
);
layerId = m008;
name = ital_gen;
shapes = (
{
closed = 1;
nodes = (
(240.59,0,l),
(460.77,1330,l),
(778.77,1330,ls),
(1019.77,1330,o),
(1093.235,1212,o),
(1063.437,1032,cs),
(1033.969,854,o),
(922.759,744,o),
(683.759,744,cs),
(283.759,744,l),
(256.94,582,l),
(662.94,582,ls),
(1009.94,582,o),
(1197.897,769,o),
(1241.437,1032,cs),
(1285.142,1296,o),
(1160.258,1490,o),
(811.258,1490,cs),
(307.258,1490,l),
(60.59,0,l)
);
},
{
closed = 1;
nodes = (
(1128.59,0,l),
(873.508,670,l),
(669.508,670,l),
(918.59,0,l)
);
}
);
width = 1246;
},
{
anchors = (
{
name = _center;
pos = (726,745);
},
{
name = bottom;
pos = (607,0);
},
{
name = top;
pos = (863,1676);
}
);
guides = (
{
pos = (921,1552);
},
{
angle = 90;
pos = (553,0);
},
{
orientation = center;
angle = 90;
pos = (-485,220);
}
);
layerId = "D0EC06BF-13F9-4C88-A6F5-B8203AF6C77E";
shapes = (
{
closed = 1;
nodes = (
(409,0,l),
(603,1166,l),
(745,1166,ls),
(885,1167,o),
(961,1111,o),
(941,984,cs),
(920,855,o),
(827,806,o),
(685,806,cs),
(383,806,l),
(329,492,l),
(713,492,ls),
(1054,492,o),
(1310,663,o),
(1363,984,cs),
(1415,1300,o),
(1226,1489,o),
(895,1490,cs),
(251,1490,l),
(3,0,l)
);
},
{
closed = 1;
nodes = (
(1249,0,l),
(991,684,l),
(559,684,l),
(809,0,l)
);
}
);
width = 1389;
},
{
anchors = (
{
name = _center;
pos = (707.924,745);
},
{
name = bottom;
pos = (602.59,0);
},
{
name = top;
pos = (856.05,1676);
}
);
background = {
shapes = (
{
ref = P;
}
);
};
guides = (
{
angle = -9.4;
pos = (-76,1552);
}
);
layerId = m010;
name = ital_gen;
shapes = (
{
closed = 1;
nodes = (
(404.59,0,l),
(595.303,1152,l),
(757.303,1152,ls),
(901.303,1152,o),
(960.032,1096,o),
(941.821,986,cs),
(923.611,876,o),
(846.34,820,o),
(702.34,820,cs),
(380.34,820,l),
(327.034,498,l),
(666.034,498,ls),
(1052.034,498,o),
(1296.336,675,o),
(1347.821,986,cs),
(1400.963,1307,o),
(1221.258,1490,o),
(844.258,1490,cs),
(239.258,1490,l),
(-7.41,0,l)
);
},
{
closed = 1;
nodes = (
(1246.59,0,l),
(988.501,676,l),
(554.501,676,l),
(787.59,0,l)
);
}
);
width = 1344;
},
{
anchors = (
{
name = _center;
pos = (597,745);
},
{
name = bottom;
pos = (490,0);
},
{
name = top;
pos = (747,1676);
}
);
layerId = m012;
name = ital_gen;
shapes = (
{
closed = 1;
nodes = (
(124,0,l),
(362,1442,l),
(752,1442,ls),
(974,1442,o),
(1108,1293,o),
(1070,1064,cs),
(1032,838,o),
(850,690,o),
(628,690,cs),
(214,690,l),
(206,642,l),
(620,642,ls),
(869,642,o),
(1074,811,o),
(1116,1064,cs),
(1158,1320,o),
(1009,1490,o),
(760,1490,cs),
(322,1490,l),
(76,0,l)
);
},
{
closed = 1;
nodes = (
(1010,0,l),
(756,678,l),
(704,678,l),
(958,0,l)
);
}
);
width = 1127;
}
);
metricLeft = H;
unicode = 82;
userData = {
com.typemytype.robofont.guideline.magnetic.vulxOItvKZ = 5;
"interface.width-adjustments" = (
-16
);
};
}
{
glyphname = S;
kernLeft = S;
kernRight = S;
layers = (
{
anchors = (
{
name = bottom;
pos = (531,-24);
},
{
name = cedilla;
pos = (535,0);
},
{
name = top;
pos = (782,1490);
}
);
layerId = "200BE2C5-40F6-4CF4-AF4F-A33C0CC0964F";
name = ital_gen;
shapes = (
{
closed = 1;
nodes = (
(808,-24,o),
(1027.005,145,o),
(1066,378,cs),
(1096,561,o),
(998,677,o),
(754,756,cs),
(593,808,ls),
(391,873,o),
(307,977,o),
(332,1128,cs),
(364,1324,o),
(557,1466,o),
(784,1466,cs),
(1015,1466,o),
(1141,1321,o),
(1122,1118,c),
(1168,1118,l),
(1191.994,1347,o),
(1046,1512,o),
(791,1512,cs),
(537,1512,o),
(322,1348,o),
(286,1128,cs),
(257,956,o),
(352,835,o),
(575,762,cs),
(735,710,ls),
(963,635,o),
(1046,538,o),
(1020,378,cs),
(985,167,o),
(790,24,o),
(533,24,cs),
(288,24,o),
(151,156,o),
(169,350,c),
(123,350,l),
(101,130,o),
(254,-24,o),
(525,-24,cs)
);
}
);
width = 1254;
},
{
anchors = (
{
name = bottom;
pos = (473,-24);
},
{
name = cedilla;
pos = (477,0);
},
{
name = top;
pos = (724,1490);
}
);
layerId = m012;
name = ital_gen;
shapes = (
{
closed = 1;
nodes = (
(750,-22,o),
(969,145,o),
(1008,378,cs),
(1038,561,o),
(940,677,o),
(696,756,cs),
(535,808,ls),
(333,873,o),
(249,977,o),
(274,1128,cs),
(306,1324,o),
(499,1466,o),
(726,1466,cs),
(957,1466,o),
(1083,1321,o),
(1064,1118,c),
(1110,1118,l),
(1134,1347,o),
(988,1512,o),
(733,1512,cs),
(479,1512,o),
(264,1348,o),
(228,1128,cs),
(199,956,o),
(294,836,o),
(517,763,cs),
(677,711,ls),
(905,636,o),
(988,538,o),
(962,378,cs),
(927,167,o),
(732,24,o),
(475,24,cs),
(230,24,o),
(93,156,o),
(111,350,c),
(65,350,l),
(43,130,o),
(196,-22,o),
(467,-22,cs)
);
}
);
width = 1127;
},
{
anchors = (
{
name = bottom;
pos = (557,-26);
},
{
name = cedilla;
pos = (561,0);
},
{
name = top;
pos = (806,1490);
}
);
guides = (
{
pos = (60,528);
},
{
orientation = center;
angle = 80.6;
pos = (639,-72);
}
);
layerId = "11F4534A-B963-4AB5-820F-DAF9A20CD933";
name = ital_gen;
shapes = (
{
closed = 1;
nodes = (
(898,-26,o),
(1124,163,o),
(1164,404,cs),
(1210,684,o),
(959,771,o),
(812,814,cs),
(669,856,ls),
(564,887,o),
(395,943,o),
(421,1102,cs),
(445,1245,o),
(593,1350,o),
(790,1350,cs),
(971,1350,o),
(1093,1264,o),
(1086,1118,c),
(1262,1118,l),
(1290,1342,o),
(1111,1510,o),
(823,1510,cs),
(538,1510,o),
(287,1344,o),
(246,1094,cs),
(213,893,o),
(338,773,o),
(560,706,cs),
(733,654,ls),
(883,609,o),
(1015,556,o),
(991,408,cs),
(963,244,o),
(788,136,o),
(582,136,cs),
(404,136,o),
(260,215,o),
(273,384,c),
(87,384,l),
(64,140,o),
(235,-26,o),
(555,-26,cs)
);
}
);
width = 1306;
},
{
anchors = (
{
name = bottom;
pos = (542,-24);
},
{
name = cedilla;
pos = (546,0);
},
{
name = top;
pos = (784,1490);
}
);
guides = (
{
pos = (-225,528);
},
{
orientation = center;
angle = 80.6;
pos = (-7852,-72);
}
);
layerId = m008;
name = ital_gen;
shapes = (
{
closed = 1;
nodes = (
(873,-24,o),
(1118,143,o),
(1161,402,cs),
(1195,610,o),
(1080,746,o),
(802,818,cs),
(640,860,ls),
(433,914,o),
(361,973,o),
(381,1089,cs),
(405,1237,o),
(567,1349,o),
(760,1349,cs),
(962,1349,o),
(1067,1236,o),
(1047,1050,c),
(1225,1050,l),
(1264,1336,o),
(1096,1514,o),
(786,1514,cs),
(475,1514,o),
(244,1353,o),
(201,1096,cs),
(168,893,o),
(277,774,o),
(569,699,cs),
(729,658,ls),
(935,605,o),
(1000,534,o),
(980,410,cs),
(953,250,o),
(785,140,o),
(568,140,cs),
(329,140,o),
(219,267,o),
(254,480,c),
(70,480,l),
(19,170,o),
(205,-24,o),
(549,-24,cs)
);
}
);
width = 1259;
},
{
anchors = (
{
name = bottom;
pos = (597,0);
},
{
name = cedilla;
pos = (593,0);
},
{
name = top;
pos = (838,1490);
}
);
guides = (
{
pos = (12,764);
},
{
pos = (12,1552);
},
{
orientation = center;
angle = 80.6;
pos = (490,-132);
}
);
layerId = "D0EC06BF-13F9-4C88-A6F5-B8203AF6C77E";
name = ital_gen;
shapes = (
{
closed = 1;
nodes = (
(983,-18,o),
(1237.005,145,o),
(1286,440,cs),
(1323,666,o),
(1213,826,o),
(895,896,cs),
(778,922,ls),
(642,952,o),
(589,993,o),
(601,1064,cs),
(612,1130,o),
(675,1178,o),
(800,1178,cs),
(931,1178,o),
(984,1121,o),
(975,1024,c),
(1363,1024,l),
(1409,1316,o),
(1216,1510,o),
(855,1510,cs),
(501,1510,o),
(221,1319,o),
(175,1036,cs),
(136,803,o),
(275,672,o),
(529,616,cs),
(674,584,ls),
(833,549,o),
(885,507,o),
(874,440,cs,{
name = hr00;
}),
(862,366,o),
(784,314,o),
(655,314,cs),
(499,314,o),
(420,387,o),
(436,524,c),
(52,524,l),
(-8,150,o),
(217,-18,o),
(606,-18,cs)
);
}
);
width = 1364;
},
{
anchors = (
{
name = bottom;
pos = (610,12);
},
{
name = bottom_dd;
pos = (1210,-408);
},
{
name = top;
pos = (850,1586);
},
{
name = top0315;
pos = (1542,1600);
},
{
name = top_dd;
pos = (1542,1600);
}
);
associatedMasterId = "D0EC06BF-13F9-4C88-A6F5-B8203AF6C77E";
guides = (
{
pos = (500,2280);
},
{
pos = (0,764);
},
{
pos = (260,1552);
},
{
orientation = center;
angle = 90;
pos = (864,-132);
}
);
layerId = "18B59461-478D-4DF5-86A0-7D050CD23FB5";
name = "Sep 14 18, 09:56";
shapes = (
{
closed = 1;
nodes = (
(1346,1024,l),
(1402,1324,o),
(1193,1510,o),
(846,1510,cs),
(500,1510,o),
(224,1338,o),
(184,1090,c),
(145,858,o),
(337,719,o),
(576,634,cs),
(562,640,ls),
(637,614,o),
(876,550,o),
(852,418,cs,{
name = hr00;
}),
(847,375,o),
(791,308,o),
(642,308,cs),
(483,308,o),
(410,387,o),
(428,524,c),
(44,524,l),
(-29,128,o),
(279,-17,o),
(594,-18,cs),
(916,-17,o),
(1190,128,o),
(1240,424,c),
(1277,652,o),
(1164,803,o),
(846,914,cs),
(838,916,ls),
(663,977,o),
(564,1015,o),
(576,1082,c),
(585,1143,o),
(678,1178,o),
(794,1178,cs),
(934,1178,o),
(983,1114,o),
(966,1024,c)
);
}
);
width = 1356;
},
{
anchors = (
{
name = bottom;
pos = (617,0);
},
{
name = cedilla;
pos = (614,0);
},
{
name = top;
pos = (861,1490);
}
);
guides = (
{
angle = 80.6;
pos = (702,1568);
}
);
layerId = m010;
name = ital_gen;
shapes = (
{
closed = 1;
nodes = (
(1017,-24,o),
(1277,154,o),
(1329,466,cs),
(1369,704,o),
(1245,836,o),
(914,899,cs),
(797,921,ls),
(647,949,o),
(586,987,o),
(598,1058,cs),
(611,1133,o),
(701,1186,o),
(818,1186,cs),
(942,1186,o),
(1015,1122,o),
(1008,1018,c),
(1390,1018,l),
(1431,1330,o),
(1237,1514,o),
(865,1514,cs),
(503,1514,o),
(224,1321,o),
(177,1038,cs),
(140,817,o),
(271,664,o),
(550,609,cs),
(693,581,ls),
(856,549,o),
(925,507,o),
(913,435,cs),
(900,357,o),
(803,304,o),
(672,304,cs),
(521,304,o),
(438,375,o),
(452,496,c),
(59,496,l),
(4,161,o),
(200,-24,o),
(613,-24,cs)
);
}
);
width = 1403;
},
{
anchors = (
{
name = bottom;
pos = (610,12);
},
{
name = bottom_dd;
pos = (1210,-408);
},
{
name = top;
pos = (850,1586);
},
{
name = top0315;
pos = (1542,1600);
},
{
name = top_dd;
pos = (1542,1600);
}
);
associatedMasterId = m010;
guides = (
{
pos = (500,2280);
},
{
pos = (0,764);
},
{
pos = (260,1552);
},
{
orientation = center;
angle = 90;
pos = (864,-132);
}
);
layerId = "D16EEA28-4608-4A0F-B59D-191C59268586";
name = "Sep 14 18, 09:56";
shapes = (
{
closed = 1;
nodes = (
(1346,1024,l),
(1402,1324,o),
(1193,1510,o),
(846,1510,cs),
(500,1510,o),
(224,1338,o),
(184,1090,c),
(145,858,o),
(337,719,o),
(576,634,cs),
(562,640,ls),
(637,614,o),
(876,550,o),
(852,418,cs,{
name = hr00;
}),
(847,375,o),
(791,308,o),
(642,308,cs),
(483,308,o),
(410,387,o),
(428,524,c),
(44,524,l),
(-29,128,o),
(279,-17,o),
(594,-18,cs),
(916,-17,o),
(1190,128,o),
(1240,424,c),
(1277,652,o),
(1164,803,o),
(846,914,cs),
(838,916,ls),
(663,977,o),
(564,1015,o),
(576,1082,c),
(585,1143,o),
(678,1178,o),
(794,1178,cs),
(934,1178,o),
(983,1114,o),
(966,1024,c)
);
}
);
width = 1356;
}
);
note = "recipe: use stroke + offset curve filter with 32, no autostroke";
unicode = 83;
userData = {
com.typemytype.robofont.guideline.magnetic.yXeOBXqbc8 = 5;
"interface.width-adjustments" = (
-16
);
};
}
{
color = (219,235,247,1);
glyphname = T;
kernLeft = T;
kernRight = T;
layers = (
{
anchors = (
{
name = _center;
pos = (687.792,745);
},
{
name = bottom;
pos = (564,0);
},
{
name = cedilla;
pos = (584,0);
},
{
name = cross;
pos = (692,768);
},
{
name = cyrtic;
pos = (748,64);
},
{
name = right;
pos = (606,0);
},
{
name = top;
pos = (844,1676);
}
);
guides = (
{
angle = -99.4;
pos = (804,176);
}
);
layerId = "11F4534A-B963-4AB5-820F-DAF9A20CD933";
shapes = (
{
closed = 1;
nodes = (
(696,1330,l),
(474,0,l),
(654,0,l),
(876,1330,l),
(1344,1330,l),
(1370,1490,l),
(254,1490,l),
(226,1330,l)
);
}
);
width = 1314;
},
{
anchors = (
{
name = _center;
pos = (733.792,745);
},
{
name = bottom;
pos = (608,0);
},
{
name = cedilla;
pos = (602,0);
},
{
name = cross;
pos = (718,666);
},
{
name = cyrtic;
pos = (1010,162);
},
{
name = right;
pos = (762,0);
},
{
name = top;
pos = (890,1676);
}
);
guides = (
{
angle = -99.4;
pos = (998,960);
}
);
layerId = "D0EC06BF-13F9-4C88-A6F5-B8203AF6C77E";
shapes = (
{
closed = 1;
nodes = (
(602,1164,l),
(410,0,l),
(808,0,l),
(1000,1164,l),
(1448,1164,l),
(1504,1490,l),
(210,1490,l),
(154,1164,l)
);
}
);
width = 1406;
},
{
anchors = (
{
name = _center;
pos = (658.792,745);
},
{
name = bottom;
pos = (536,0);
},
{
name = cedilla;
pos = (534,-6);
},
{
name = cross;
pos = (664,768);
},
{
name = cyrtic;
pos = (580,6);
},
{
name = right;
pos = (546,0);
},
{
name = top;
pos = (814,1676);
}
);
layerId = "200BE2C5-40F6-4CF4-AF4F-A33C0CC0964F";
shapes = (
{
closed = 1;
nodes = (
(750,1442,l),
(512,0,l),
(558,0,l),
(798,1442,l),
(1278,1442,l),
(1286,1490,l),
(280,1490,l),
(270,1442,l)
);
}
);
width = 1256;
},
{
anchors = (
{
name = _center;
pos = (660.924,745);
},
{
name = bottom;
pos = (538.59,0);
},
{
name = cedilla;
pos = (560.59,0);
},
{
name = cross;
pos = (665.732,768);
},
{
name = cyrtic;
pos = (721.185,64);
},
{
name = right;
pos = (578.59,0);
},
{
name = top;
pos = (816.05,1676);
}
);
guides = (
{
orientation = center;
angle = 80.6;
pos = (-4791,176);
}
);
layerId = m008;
name = ital_gen;
shapes = (
{
closed = 1;
nodes = (
(668.77,1330,l),
(448.59,0,l),
(628.59,0,l),
(848.77,1330,l),
(1316.77,1330,l),
(1343.258,1490,l),
(225.258,1490,l),
(198.77,1330,l)
);
}
);
width = 1250;
},
{
anchors = (
{
name = _center;
pos = (731.924,745);
},
{
name = bottom;
pos = (607.59,0);
},
{
name = cedilla;
pos = (601.59,0);
},
{
name = cross;
pos = (717.846,666);
},
{
name = cyrtic;
pos = (1008.409,162);
},
{
name = right;
pos = (761.59,0);
},
{
name = top;
pos = (887.05,1676);
}
);
layerId = m010;
name = ital_gen;
shapes = (
{
closed = 1;
nodes = (
(588.985,1138,l),
(400.59,0,l),
(816.59,0,l),
(1004.985,1138,l),
(1452.985,1138,l),
(1511.258,1490,l),
(199.258,1490,l),
(140.985,1138,l)
);
}
);
width = 1392;
},
{
anchors = (
{
name = _center;
pos = (599.924,745);
},
{
name = bottom;
pos = (476.59,0);
},
{
name = cedilla;
pos = (475.597,-6);
},
{
name = cross;
pos = (603.732,768);
},
{
name = cyrtic;
pos = (521.583,6);
},
{
name = right;
pos = (488.59,0);
},
{
name = top;
pos = (754.05,1676);
}
);
layerId = m012;
name = ital_gen;
shapes = (
{
closed = 1;
nodes = (
(693.312,1442,l),
(454.59,0,l),
(500.59,0,l),
(739.312,1442,l),
(1219.312,1442,l),
(1227.258,1490,l),
(221.258,1490,l),
(213.312,1442,l)
);
}
);
width = 1128;
}
);
unicode = 84;
userData = {
"interface.width-adjustments" = (
-16
);
};
}
{
color = (219,235,247,1);
glyphname = U;
kernLeft = U;
kernRight = J;
layers = (
{
anchors = (
{
name = _center;
pos = (789,745);
},
{
name = bottom;
pos = (667,0);
},
{
name = ogonek;
pos = (1328,504);
},
{
name = right;
pos = (751,0);
},
{
name = rtophorn;
pos = (1312,1490);
},
{
name = top;
pos = (944,1676);
}
);
guides = (
{
orientation = center;
angle = 80.6;
pos = (1036,2084);
}
);
layerId = "11F4534A-B963-4AB5-820F-DAF9A20CD933";
name = ital_gen;
shapes = (
{
closed = 1;
nodes = (
(1151,520,ls),
(1114.996,302,o),
(939,144,o),
(691,144,cs),
(442,144,o),
(316.996,302,o),
(353,520,cs),
(514,1490,l),
(334,1490,l),
(171,506,ls),
(120,200,o),
(312,-24,o),
(663,-24,cs),
(1013,-24,o),
(1278,200,o),
(1329,506,cs),
(1492,1490,l),
(1312,1490,l)
);
}
);
width = 1518;
},
{
anchors = (
{
name = _center;
pos = (769,745);
},
{
name = bottom;
pos = (645,0);
},
{
name = ogonek;
pos = (1378,536);
},
{
name = right;
pos = (773,0);
},
{
name = rtophorn;
pos = (1132,1490);
},
{
name = top;
pos = (922,1676);
}
);
layerId = "D0EC06BF-13F9-4C88-A6F5-B8203AF6C77E";
name = ital_gen;
shapes = (
{
closed = 1;
nodes = (
(979,570,ls),
(956,431,o),
(840,332,o),
(700,332,cs),
(562,332,o),
(478,431,o),
(501,570,cs),
(654,1490,l),
(250,1490,l),
(92,536,ls),
(35,195,o),
(257,-18,o),
(642,-18,cs),
(1025,-18,o),
(1321,195,o),
(1378,536,cs),
(1536,1490,l),
(1132,1490,l)
);
}
);
width = 1478;
},
{
anchors = (
{
name = _center;
pos = (799,745);
},
{
name = bottom;
pos = (676,0);
},
{
name = ogonek;
pos = (1295,504);
},
{
name = right;
pos = (738,0);
},
{
name = rtophorn;
pos = (1411,1490);
},
{
name = top;
pos = (953,1676);
}
);
layerId = "200BE2C5-40F6-4CF4-AF4F-A33C0CC0964F";
name = ital_gen;
shapes = (
{
closed = 1;
nodes = (
(1247,504,ls),
(1201,228,o),
(953,24,o),
(672,24,cs),
(391,24,o),
(225,228,o),
(271,504,cs),
(435,1490,l),
(387,1490,l),
(223,504,ls),
(173,202,o),
(367,-24,o),
(672,-24,cs),
(978,-24,o),
(1245,201,o),
(1295,504,cs),
(1459,1490,l),
(1411,1490,l)
);
}
);
width = 1537;
},
{
anchors = (
{
name = _center;
pos = (762,745);
},
{
name = bottom;
pos = (640,0);
},
{
name = ogonek;
pos = (1302,506);
},
{
name = right;
pos = (724,0);
},
{
name = rtophorn;
pos = (1285,1490);
},
{
name = top;
pos = (918,1676);
}
);
guides = (
{
orientation = center;
angle = 80.6;
pos = (-5937,2084);
}
);
layerId = m008;
name = ital_gen;
shapes = (
{
closed = 1;
nodes = (
(1124,520,ls),
(1088,302,o),
(912,144,o),
(664,144,cs),
(415,144,o),
(290,302,o),
(326,520,cs),
(487,1490,l),
(307,1490,l),
(144,506,ls),
(93,200,o),
(301,-24,o),
(652,-24,cs),
(1002,-24,o),
(1251,200,o),
(1302,506,cs),
(1465,1490,l),
(1285,1490,l)
);
}
);
width = 1454;
},
{
anchors = (
{
name = _center;
pos = (758,745);
},
{
name = bottom;
pos = (634,0);
},
{
name = ogonek;
pos = (1364,530);
},
{
name = right;
pos = (762,0);
},
{
name = rtophorn;
pos = (1119,1490);
},
{
name = top;
pos = (912,1676);
}
);
layerId = m010;
name = ital_gen;
shapes = (
{
closed = 1;
nodes = (
(965,564,ls),
(942,425,o),
(819,326,o),
(680,326,cs),
(541,326,o),
(466,426,o),
(489,564,cs),
(643,1490,l),
(239,1490,l),
(80,530,ls),
(24,193,o),
(248,-24,o),
(638,-24,cs),
(1027,-24,o),
(1308,194,o),
(1364,530,cs),
(1523,1490,l),
(1119,1490,l)
);
}
);
width = 1444;
},
{
anchors = (
{
name = _center;
pos = (734,745);
},
{
name = bottom;
pos = (611,0);
},
{
name = ogonek;
pos = (1231,504);
},
{
name = right;
pos = (673,0);
},
{
name = rtophorn;
pos = (1346,1490);
},
{
name = top;
pos = (889,1676);
}
);
layerId = m012;
name = ital_gen;
shapes = (
{
closed = 1;
nodes = (
(1182,504,ls),
(1136,228,o),
(888,24,o),
(607,24,cs),
(326,24,o),
(160,228,o),
(206,504,cs),
(370,1490,l),
(322,1490,l),
(158,504,ls),
(108,202,o),
(302,-24,o),
(607,-24,cs),
(913,-24,o),
(1180,201,o),
(1230,504,cs),
(1394,1490,l),
(1346,1490,l)
);
}
);
width = 1408;
}
);
metricLeft = H;
metricRight = H;
unicode = 85;
userData = {
com.typemytype.robofont.guideline.magnetic.icXM2D4lH7 = 5;
"interface.width-adjustments" = (
-16
);
};
}
{
glyphname = V;
kernLeft = V;
kernRight = V;
layers = (
{
anchors = (
{
name = bottom;
pos = (609,0);
},
{
name = top;
pos = (856,1490);
}
);
layerId = "11F4534A-B963-4AB5-820F-DAF9A20CD933";
name = ital_gen;
shapes = (
{
closed = 1;
nodes = (
(714,0,l),
(1505,1490,l),
(1315,1490,l),
(852,592,ls),
(802,494,o),
(723,336,o),
(611,88,c),
(645,88,l),
(613,336,o),
(587,494,o),
(568,592,cs),
(395,1490,l),
(207,1490,l),
(510,0,l)
);
}
);
width = 1404;
},
{
anchors = (
{
name = bottom;
pos = (722,0);
},
{
name = top;
pos = (969,1490);
}
);
guides = (
{
orientation = center;
angle = 80.6;
pos = (-1402,1048);
}
);
layerId = "D0EC06BF-13F9-4C88-A6F5-B8203AF6C77E";
name = ital_gen;
shapes = (
{
closed = 1;
nodes = (
(1006,0,l),
(1737,1490,l),
(1285,1490,l),
(1024,912,ls),
(911,661,o),
(812,402,o),
(711,135,c),
(801,135,l),
(787,402,o),
(770,661,o),
(736,912,cs),
(659,1490,l),
(201,1490,l),
(454,0,l)
);
}
);
width = 1630;
},
{
anchors = (
{
name = bottom;
pos = (563,0);
},
{
name = top;
pos = (810,1490);
}
);
layerId = "200BE2C5-40F6-4CF4-AF4F-A33C0CC0964F";
name = ital_gen;
shapes = (
{
closed = 1;
nodes = (
(595,0,l),
(1399,1490,l),
(1350,1490,l),
(729,336,ls),
(671,229,o),
(614,123,o),
(558,16,c),
(576,16,l),
(554,123,o),
(533,229,o),
(511,336,cs),
(270,1490,l),
(221,1490,l),
(532,0,l)
);
}
);
width = 1312;
},
{
anchors = (
{
name = bottom;
pos = (581,0);
},
{
name = top;
pos = (828,1490);
}
);
guides = (
{
angle = 250.7354;
pos = (1128,1490);
},
{
angle = 109.7366;
pos = (208,1490);
}
);
layerId = m008;
name = ital_gen;
shapes = (
{
closed = 1;
nodes = (
(686,0,l),
(1477,1490,l),
(1279,1490,l),
(816,592,ls),
(766,494,o),
(687,336,o),
(567,88,c),
(617,88,l),
(577,336,o),
(551,494,o),
(532,592,cs),
(359,1490,l),
(179,1490,l),
(482,0,l)
);
}
);
width = 1338;
},
{
anchors = (
{
name = bottom;
pos = (680,0);
},
{
name = top;
pos = (927,1490);
}
);
guides = (
{
angle = 106.6794;
pos = (458,1490);
},
{
angle = 254.0188;
pos = (1084,1490);
}
);
layerId = m010;
name = ital_gen;
shapes = (
{
closed = 1;
nodes = (
(964,0,l),
(1695,1490,l),
(1243,1490,l),
(981,912,ls),
(869,661,o),
(763,410,o),
(657,159,c),
(779,159,l),
(754,410,o),
(728,661,o),
(694,912,cs),
(617,1490,l),
(159,1490,l),
(412,0,l)
);
}
);
width = 1536;
},
{
anchors = (
{
name = bottom;
pos = (503,0);
},
{
name = top;
pos = (750,1490);
}
);
layerId = m012;
name = ital_gen;
shapes = (
{
closed = 1;
nodes = (
(535,0,l),
(1339,1490,l),
(1287,1490,l),
(666,336,ls),
(608,229,o),
(551,123,o),
(495,16,c),
(513,16,l),
(491,123,o),
(470,229,o),
(448,336,cs),
(207,1490,l),
(161,1490,l),
(472,0,l)
);
}
);
width = 1182;
}
);
metricLeft = A;
metricRight = A;
unicode = 86;
userData = {
com.typemytype.robofont.guideline.magnetic.IJvllllLzF = 5;
com.typemytype.robofont.guideline.magnetic.KeOP4W9VuQ = 5;
com.typemytype.robofont.guideline.magnetic.yHrbtxZ5FX = 5;
"interface.width-adjustments" = (
-16
);
};
}
{
glyphname = W;
kernLeft = W;
kernRight = W;
layers = (
{
anchors = (
{
name = bottom;
pos = (883,12);
},
{
name = top;
pos = (1159,1676);
}
);
guides = (
{
pos = (925,360);
},
{
angle = 90;
pos = (1989,2096);
},
{
angle = 90;
pos = (525,332);
},
{
angle = 90;
pos = (1713,356);
}
);
layerId = "11F4534A-B963-4AB5-820F-DAF9A20CD933";
metricLeft = "=A*0.84";
metricRight = "=A*0.84";
shapes = (
{
closed = 1;
nodes = (
(545,0,l),
(1071,1186,l),
(1083,1186,l),
(1215,0,l),
(1401,0,l),
(2055,1490,l),
(1871,1490,l),
(1359,276,l),
(1345,276,l),
(1229,1490,l),
(1025,1490,l),
(507,276,l),
(493,276,l),
(383,1490,l),
(199,1490,l),
(359,0,l)
);
}
);
width = 1946;
},
{
anchors = (
{
name = bottom;
pos = (1021,0);
},
{
name = top;
pos = (1301,1676);
}
);
guides = (
{
pos = (2027,2512);
}
);
layerId = "D0EC06BF-13F9-4C88-A6F5-B8203AF6C77E";
metricLeft = "=A-16";
metricRight = "=A-16";
shapes = (
{
closed = 1;
nodes = (
(763,0,l),
(1155,832,l),
(1167,832,l),
(1281,0,l),
(1667,0,l),
(2355,1490,l),
(1903,1490,l),
(1549,570,l),
(1537,570,l),
(1447,1490,l),
(1091,1490,l),
(699,574,l),
(687,574,l),
(635,1490,l),
(185,1490,l),
(377,0,l)
);
}
);
width = 2232;
},
{
anchors = (
{
name = bottom;
pos = (821,12);
},
{
name = top;
pos = (1093,1676);
}
);
layerId = "200BE2C5-40F6-4CF4-AF4F-A33C0CC0964F";
metricLeft = "=A-12";
metricRight = "=A-12";
shapes = (
{
closed = 1;
nodes = (
(437,0,l),
(1051,1416,l),
(1055,1416,l),
(1199,0,l),
(1265,0,l),
(1923,1490,l),
(1871,1490,l),
(1245,72,l),
(1239,72,l),
(1097,1490,l),
(1033,1490,l),
(415,72,l),
(411,72,l),
(259,1490,l),
(209,1490,l),
(373,0,l)
);
}
);
width = 1824;
},
{
anchors = (
{
name = bottom;
pos = (859.577,12);
},
{
name = top;
pos = (1135.05,1676);
}
);
guides = (
{
angle = -9.4;
pos = (841,258);
},
{
orientation = center;
angle = 80.6;
pos = (-8497,2096);
},
{
angle = 80.6;
pos = (453,332);
},
{
angle = 80.6;
pos = (1629,356);
}
);
layerId = m008;
metricLeft = "=A*0.84";
metricRight = "=A*0.84";
name = ital_gen;
shapes = (
{
closed = 1;
nodes = (
(523.59,0,l),
(1054.249,1200,l),
(1058.249,1200,l),
(1191.59,0,l),
(1377.59,0,l),
(2032.258,1490,l),
(1848.258,1490,l),
(1328.302,258,l),
(1324.302,258,l),
(1206.258,1490,l),
(1002.258,1490,l),
(475.302,258,l),
(471.302,258,l),
(358.258,1490,l),
(176.258,1490,l),
(335.59,0,l)
);
}
);
width = 1890;
},
{
anchors = (
{
name = bottom;
pos = (998.59,0);
},
{
name = top;
pos = (1276.05,1676);
}
);
guides = (
{
orientation = center;
angle = 80.6;
pos = (-7501,2076);
}
);
layerId = m010;
metricLeft = "=A";
metricRight = "=A";
name = ital_gen;
shapes = (
{
closed = 1;
nodes = (
(740.59,0,l),
(1136.479,845,l),
(1140.479,845,l),
(1256.59,0,l),
(1644.59,0,l),
(2331.258,1490,l),
(1879.258,1490,l),
(1517.298,560,l),
(1513.298,560,l),
(1423.258,1490,l),
(1067.258,1490,l),
(669.298,560,l),
(665.298,560,l),
(611.258,1490,l),
(159.258,1490,l),
(352.59,0,l)
);
}
);
width = 2172;
},
{
anchors = (
{
name = bottom;
pos = (761,12);
},
{
name = top;
pos = (1036,1676);
}
);
layerId = m012;
metricLeft = "=A-12";
metricRight = "=A-12";
name = ital_gen;
shapes = (
{
closed = 1;
nodes = (
(377,0,l),
(992,1423,l),
(994,1423,l),
(1139,0,l),
(1203,0,l),
(1859,1490,l),
(1811,1490,l),
(1183,65,l),
(1181,65,l),
(1037,1490,l),
(973,1490,l),
(357,65,l),
(355,65,l),
(199,1490,l),
(149,1490,l),
(313,0,l)
);
}
);
width = 1690;
}
);
unicode = 87;
userData = {
com.typemytype.robofont.guideline.magnetic.8gZT6dIVxI = 5;
com.typemytype.robofont.guideline.magnetic.ZoWqubfLj9 = 5;
com.typemytype.robofont.guideline.magnetic.k6chDe7LUI = 5;
com.typemytype.robofont.guideline.magnetic.tUpIEqa0MC = 5;
"interface.width-adjustments" = (
-16
);
};
}
